<svg width="651" height="130" viewBox="0 0 651 130" fill="none" xmlns="http://www.w3.org/2000/svg">
<path d="M0 3C0 1.34314 1.34315 0 3 0H648C649.657 0 651 1.34315 651 3V95.6096C651 97.2664 649.657 98.6096 648 98.6096H145.566C144.585 98.6096 143.678 99.0703 143.081 99.8483C138.682 105.576 118.854 129.222 91.1929 129.321C88.7645 129.33 87.5304 126.357 88.4087 124.093C91.8012 115.349 87.9246 104.416 86.1867 100.29C85.7459 99.2434 84.7131 98.6096 83.5775 98.6096H3C1.34315 98.6096 0 97.2664 0 95.6096V3Z" fill="#C9EAE6"/>
<path d="M100.231 50.2H94.2468L92.4708 53H90.7428L98.0708 41.8H99.6548L102.487 53H100.903L100.231 50.2ZM99.9108 48.92L98.5828 43.4L95.0628 48.92H99.9108ZM107.518 41.128H109.054L106.686 53H105.15L107.518 41.128ZM113.186 41.128H114.722L112.354 53H110.818L113.186 41.128ZM124.256 50.296C124.224 50.456 124.208 50.6053 124.208 50.744C124.208 51.0853 124.299 51.3467 124.48 51.528C124.672 51.7093 124.955 51.8 125.328 51.8C125.776 51.8 126.181 51.6667 126.544 51.4L126.864 52.568C126.352 52.92 125.696 53.096 124.896 53.096C124.224 53.096 123.68 52.9093 123.264 52.536C122.859 52.152 122.656 51.6293 122.656 50.968C122.656 50.744 122.677 50.5307 122.72 50.328L123.632 45.784H122.192L122.432 44.52H123.888L124.256 42.664H125.792L125.424 44.52H127.856L127.6 45.784H125.168L124.256 50.296ZM135.825 44.44C136.796 44.44 137.548 44.6853 138.081 45.176C138.625 45.6667 138.897 46.36 138.897 47.256C138.897 47.5653 138.865 47.896 138.801 48.248L137.857 53H136.321L137.265 48.248C137.318 47.96 137.345 47.7253 137.345 47.544C137.345 46.9893 137.18 46.5627 136.849 46.264C136.518 45.9653 136.028 45.816 135.377 45.816C134.545 45.816 133.857 46.0453 133.313 46.504C132.78 46.952 132.422 47.624 132.241 48.52L131.345 53H129.809L132.177 41.128H133.713L132.833 45.512C133.59 44.7973 134.588 44.44 135.825 44.44ZM143.434 49.24V49.336C143.434 50.1253 143.658 50.728 144.106 51.144C144.554 51.5493 145.226 51.752 146.122 51.752C146.645 51.752 147.136 51.6667 147.594 51.496C148.053 51.3147 148.437 51.0747 148.746 50.776L149.402 51.88C148.986 52.264 148.48 52.5627 147.882 52.776C147.285 52.9893 146.656 53.096 145.994 53.096C145.162 53.096 144.442 52.9467 143.834 52.648C143.226 52.3493 142.757 51.9227 142.426 51.368C142.096 50.8133 141.93 50.1627 141.93 49.416C141.93 48.4667 142.133 47.6133 142.538 46.856C142.954 46.0987 143.525 45.5067 144.25 45.08C144.986 44.6533 145.808 44.44 146.714 44.44C147.866 44.44 148.784 44.7707 149.466 45.432C150.16 46.0827 150.506 46.9733 150.506 48.104C150.506 48.4453 150.469 48.824 150.394 49.24H143.434ZM146.65 45.72C145.893 45.72 145.242 45.9333 144.698 46.36C144.154 46.7867 143.786 47.3733 143.594 48.12H149.066C149.109 47.3627 148.906 46.776 148.458 46.36C148.021 45.9333 147.418 45.72 146.65 45.72ZM160.697 50.296C160.665 50.456 160.649 50.6053 160.649 50.744C160.649 51.0853 160.739 51.3467 160.921 51.528C161.113 51.7093 161.395 51.8 161.769 51.8C162.217 51.8 162.622 51.6667 162.985 51.4L163.305 52.568C162.793 52.92 162.137 53.096 161.337 53.096C160.665 53.096 160.121 52.9093 159.705 52.536C159.299 52.152 159.097 51.6293 159.097 50.968C159.097 50.744 159.118 50.5307 159.161 50.328L160.073 45.784H158.633L158.873 44.52H160.329L160.697 42.664H162.233L161.865 44.52H164.297L164.041 45.784H161.609L160.697 50.296ZM167.456 49.24V49.336C167.456 50.1253 167.68 50.728 168.128 51.144C168.576 51.5493 169.248 51.752 170.144 51.752C170.667 51.752 171.158 51.6667 171.616 51.496C172.075 51.3147 172.459 51.0747 172.768 50.776L173.424 51.88C173.008 52.264 172.502 52.5627 171.904 52.776C171.307 52.9893 170.678 53.096 170.016 53.096C169.184 53.096 168.464 52.9467 167.856 52.648C167.248 52.3493 166.779 51.9227 166.448 51.368C166.118 50.8133 165.952 50.1627 165.952 49.416C165.952 48.4667 166.155 47.6133 166.56 46.856C166.976 46.0987 167.547 45.5067 168.272 45.08C169.008 44.6533 169.83 44.44 170.736 44.44C171.888 44.44 172.806 44.7707 173.488 45.432C174.182 46.0827 174.528 46.9733 174.528 48.104C174.528 48.4453 174.491 48.824 174.416 49.24H167.456ZM170.672 45.72C169.915 45.72 169.264 45.9333 168.72 46.36C168.176 46.7867 167.808 47.3733 167.616 48.12H173.088C173.131 47.3627 172.928 46.776 172.48 46.36C172.043 45.9333 171.44 45.72 170.672 45.72ZM181.339 48.728L183.803 53H182.171L180.347 49.736L177.243 53H175.451L179.723 48.616L177.387 44.52H178.987L180.715 47.592L183.659 44.52H185.403L181.339 48.728ZM189.015 50.296C188.983 50.456 188.967 50.6053 188.967 50.744C188.967 51.0853 189.058 51.3467 189.239 51.528C189.431 51.7093 189.714 51.8 190.087 51.8C190.535 51.8 190.941 51.6667 191.303 51.4L191.623 52.568C191.111 52.92 190.455 53.096 189.655 53.096C188.983 53.096 188.439 52.9093 188.023 52.536C187.618 52.152 187.415 51.6293 187.415 50.968C187.415 50.744 187.437 50.5307 187.479 50.328L188.391 45.784H186.951L187.191 44.52H188.647L189.015 42.664H190.551L190.183 44.52H192.615L192.359 45.784H189.927L189.015 50.296ZM201.745 44.52H203.281L201.601 53H200.065L201.745 44.52ZM202.961 42.888C202.684 42.888 202.455 42.7973 202.273 42.616C202.092 42.4347 202.001 42.216 202.001 41.96C202.001 41.6613 202.103 41.4107 202.305 41.208C202.519 40.9947 202.785 40.888 203.105 40.888C203.383 40.888 203.612 40.9787 203.793 41.16C203.985 41.3307 204.081 41.5387 204.081 41.784C204.081 42.1147 203.975 42.3813 203.761 42.584C203.559 42.7867 203.292 42.888 202.961 42.888ZM208.406 53.096C207.702 53.096 207.03 53.0053 206.39 52.824C205.761 52.6427 205.27 52.408 204.918 52.12L205.606 50.904C205.937 51.1707 206.363 51.384 206.886 51.544C207.419 51.6933 207.974 51.768 208.55 51.768C209.275 51.768 209.825 51.6613 210.198 51.448C210.582 51.224 210.774 50.9147 210.774 50.52C210.774 50.2 210.619 49.9707 210.31 49.832C210.011 49.6933 209.542 49.5547 208.902 49.416C208.305 49.288 207.814 49.16 207.43 49.032C207.057 48.8933 206.737 48.68 206.47 48.392C206.203 48.0933 206.07 47.6933 206.07 47.192C206.07 46.6373 206.225 46.152 206.534 45.736C206.854 45.32 207.302 45 207.878 44.776C208.465 44.552 209.142 44.44 209.91 44.44C210.475 44.44 211.025 44.5093 211.558 44.648C212.091 44.7867 212.529 44.9733 212.87 45.208L212.262 46.424C211.931 46.2 211.547 46.0347 211.11 45.928C210.673 45.8107 210.225 45.752 209.766 45.752C209.073 45.752 208.539 45.8693 208.166 46.104C207.793 46.328 207.606 46.632 207.606 47.016C207.606 47.3573 207.761 47.6027 208.07 47.752C208.379 47.8907 208.859 48.0293 209.51 48.168C210.097 48.296 210.577 48.424 210.95 48.552C211.323 48.68 211.638 48.888 211.894 49.176C212.161 49.464 212.294 49.8533 212.294 50.344C212.294 51.208 211.937 51.8853 211.222 52.376C210.518 52.856 209.579 53.096 208.406 53.096ZM224.462 53.096C223.652 53.096 222.942 52.9467 222.334 52.648C221.726 52.3387 221.257 51.912 220.926 51.368C220.596 50.8133 220.43 50.168 220.43 49.432C220.43 48.4827 220.644 47.6293 221.07 46.872C221.497 46.1147 222.089 45.5227 222.846 45.096C223.604 44.6587 224.462 44.44 225.422 44.44C227.097 44.44 228.26 45.0533 228.91 46.28L227.614 47C227.166 46.1893 226.398 45.784 225.31 45.784C224.681 45.784 224.11 45.9387 223.598 46.248C223.097 46.5467 222.702 46.968 222.414 47.512C222.126 48.056 221.982 48.6747 221.982 49.368C221.982 50.1147 222.201 50.7013 222.638 51.128C223.086 51.544 223.716 51.752 224.526 51.752C225.038 51.752 225.513 51.6507 225.95 51.448C226.398 51.2453 226.766 50.9467 227.054 50.552L228.174 51.352C227.78 51.896 227.252 52.3227 226.59 52.632C225.929 52.9413 225.22 53.096 224.462 53.096ZM233.046 41.128H234.582L232.214 53H230.678L233.046 41.128ZM237.834 49.24V49.336C237.834 50.1253 238.058 50.728 238.506 51.144C238.954 51.5493 239.626 51.752 240.522 51.752C241.045 51.752 241.536 51.6667 241.994 51.496C242.453 51.3147 242.837 51.0747 243.146 50.776L243.802 51.88C243.386 52.264 242.88 52.5627 242.282 52.776C241.685 52.9893 241.056 53.096 240.394 53.096C239.562 53.096 238.842 52.9467 238.234 52.648C237.626 52.3493 237.157 51.9227 236.826 51.368C236.496 50.8133 236.33 50.1627 236.33 49.416C236.33 48.4667 236.533 47.6133 236.938 46.856C237.354 46.0987 237.925 45.5067 238.65 45.08C239.386 44.6533 240.208 44.44 241.114 44.44C242.266 44.44 243.184 44.7707 243.866 45.432C244.56 46.0827 244.906 46.9733 244.906 48.104C244.906 48.4453 244.869 48.824 244.794 49.24H237.834ZM241.05 45.72C240.293 45.72 239.642 45.9333 239.098 46.36C238.554 46.7867 238.186 47.3733 237.994 48.12H243.466C243.509 47.3627 243.306 46.776 242.858 46.36C242.421 45.9333 241.818 45.72 241.05 45.72ZM256.992 44.52L255.312 53H253.84L254.048 51.96C253.664 52.3227 253.216 52.6053 252.704 52.808C252.202 53 251.653 53.096 251.056 53.096C250.33 53.096 249.685 52.952 249.12 52.664C248.554 52.3653 248.112 51.9387 247.792 51.384C247.472 50.8293 247.312 50.1787 247.312 49.432C247.312 48.472 247.52 47.6133 247.936 46.856C248.352 46.0987 248.922 45.5067 249.648 45.08C250.384 44.6533 251.205 44.44 252.112 44.44C252.837 44.44 253.456 44.568 253.968 44.824C254.49 45.08 254.89 45.4587 255.168 45.96L255.456 44.52H256.992ZM251.392 51.752C252.021 51.752 252.586 51.6027 253.088 51.304C253.6 50.9947 253.994 50.568 254.272 50.024C254.56 49.48 254.704 48.8613 254.704 48.168C254.704 47.4107 254.485 46.824 254.048 46.408C253.61 45.992 252.986 45.784 252.176 45.784C251.546 45.784 250.981 45.9387 250.48 46.248C249.978 46.5467 249.584 46.968 249.296 47.512C249.008 48.056 248.864 48.6747 248.864 49.368C248.864 50.1147 249.082 50.7013 249.52 51.128C249.968 51.544 250.592 51.752 251.392 51.752ZM262.346 45.784C262.719 45.3147 263.178 44.9733 263.722 44.76C264.266 44.5467 264.927 44.44 265.706 44.44L265.418 45.928C265.322 45.9173 265.189 45.912 265.018 45.912C263.258 45.912 262.191 46.8613 261.818 48.76L260.97 53H259.434L261.114 44.52H262.586L262.346 45.784ZM282.357 44.52L280.677 53H279.205L279.413 51.96C279.029 52.3227 278.581 52.6053 278.069 52.808C277.568 53 277.019 53.096 276.421 53.096C275.696 53.096 275.051 52.952 274.485 52.664C273.92 52.3653 273.477 51.9387 273.157 51.384C272.837 50.8293 272.677 50.1787 272.677 49.432C272.677 48.472 272.885 47.6133 273.301 46.856C273.717 46.0987 274.288 45.5067 275.013 45.08C275.749 44.6533 276.571 44.44 277.477 44.44C278.203 44.44 278.821 44.568 279.333 44.824C279.856 45.08 280.256 45.4587 280.533 45.96L280.821 44.52H282.357ZM276.757 51.752C277.387 51.752 277.952 51.6027 278.453 51.304C278.965 50.9947 279.36 50.568 279.637 50.024C279.925 49.48 280.069 48.8613 280.069 48.168C280.069 47.4107 279.851 46.824 279.413 46.408C278.976 45.992 278.352 45.784 277.541 45.784C276.912 45.784 276.347 45.9387 275.845 46.248C275.344 46.5467 274.949 46.968 274.661 47.512C274.373 48.056 274.229 48.6747 274.229 49.368C274.229 50.1147 274.448 50.7013 274.885 51.128C275.333 51.544 275.957 51.752 276.757 51.752ZM290.816 44.44C291.786 44.44 292.538 44.6853 293.072 45.176C293.616 45.6667 293.888 46.36 293.888 47.256C293.888 47.5653 293.856 47.896 293.792 48.248L292.848 53H291.312L292.256 48.248C292.309 47.96 292.336 47.7253 292.336 47.544C292.336 46.9893 292.17 46.5627 291.84 46.264C291.509 45.9653 291.018 45.816 290.368 45.816C289.536 45.816 288.848 46.0453 288.304 46.504C287.77 46.952 287.413 47.624 287.232 48.52L286.336 53H284.8L286.48 44.52H287.952L287.744 45.608C288.512 44.8293 289.536 44.44 290.816 44.44ZM307.289 41.128L304.921 53H303.449L303.657 51.96C303.273 52.3227 302.825 52.6053 302.313 52.808C301.812 53 301.262 53.096 300.665 53.096C299.94 53.096 299.294 52.952 298.729 52.664C298.164 52.3653 297.721 51.9387 297.401 51.384C297.081 50.8293 296.921 50.1787 296.921 49.432C296.921 48.472 297.129 47.6133 297.545 46.856C297.961 46.0987 298.532 45.5067 299.257 45.08C299.993 44.6533 300.814 44.44 301.721 44.44C302.446 44.44 303.07 44.5733 303.593 44.84C304.126 45.096 304.526 45.4747 304.793 45.976L305.753 41.128H307.289ZM301.001 51.752C301.63 51.752 302.196 51.6027 302.697 51.304C303.209 50.9947 303.604 50.568 303.881 50.024C304.169 49.48 304.313 48.8613 304.313 48.168C304.313 47.4107 304.094 46.824 303.657 46.408C303.22 45.992 302.596 45.784 301.785 45.784C301.156 45.784 300.59 45.9387 300.089 46.248C299.588 46.5467 299.193 46.968 298.905 47.512C298.617 48.056 298.473 48.6747 298.473 49.368C298.473 50.1147 298.692 50.7013 299.129 51.128C299.577 51.544 300.201 51.752 301.001 51.752ZM317.212 53.096C316.508 53.096 315.836 53.0053 315.196 52.824C314.567 52.6427 314.076 52.408 313.724 52.12L314.412 50.904C314.743 51.1707 315.17 51.384 315.692 51.544C316.226 51.6933 316.78 51.768 317.356 51.768C318.082 51.768 318.631 51.6613 319.004 51.448C319.388 51.224 319.58 50.9147 319.58 50.52C319.58 50.2 319.426 49.9707 319.116 49.832C318.818 49.6933 318.348 49.5547 317.708 49.416C317.111 49.288 316.62 49.16 316.236 49.032C315.863 48.8933 315.543 48.68 315.276 48.392C315.01 48.0933 314.876 47.6933 314.876 47.192C314.876 46.6373 315.031 46.152 315.34 45.736C315.66 45.32 316.108 45 316.684 44.776C317.271 44.552 317.948 44.44 318.716 44.44C319.282 44.44 319.831 44.5093 320.364 44.648C320.898 44.7867 321.335 44.9733 321.676 45.208L321.068 46.424C320.738 46.2 320.354 46.0347 319.916 45.928C319.479 45.8107 319.031 45.752 318.572 45.752C317.879 45.752 317.346 45.8693 316.972 46.104C316.599 46.328 316.412 46.632 316.412 47.016C316.412 47.3573 316.567 47.6027 316.876 47.752C317.186 47.8907 317.666 48.0293 318.316 48.168C318.903 48.296 319.383 48.424 319.756 48.552C320.13 48.68 320.444 48.888 320.7 49.176C320.967 49.464 321.1 49.8533 321.1 50.344C321.1 51.208 320.743 51.8853 320.028 52.376C319.324 52.856 318.386 53.096 317.212 53.096ZM325.436 44.52H326.972L325.292 53H323.756L325.436 44.52ZM326.652 42.888C326.374 42.888 326.145 42.7973 325.964 42.616C325.782 42.4347 325.692 42.216 325.692 41.96C325.692 41.6613 325.793 41.4107 325.996 41.208C326.209 40.9947 326.476 40.888 326.796 40.888C327.073 40.888 327.302 40.9787 327.484 41.16C327.676 41.3307 327.772 41.5387 327.772 41.784C327.772 42.1147 327.665 42.3813 327.452 42.584C327.249 42.7867 326.982 42.888 326.652 42.888ZM341.489 44.44C342.449 44.44 343.195 44.6853 343.729 45.176C344.273 45.656 344.545 46.344 344.545 47.24C344.545 47.4853 344.507 47.8213 344.433 48.248L343.489 53H341.953L342.897 48.248C342.95 47.9493 342.977 47.704 342.977 47.512C342.977 46.9573 342.822 46.536 342.513 46.248C342.203 45.96 341.734 45.816 341.105 45.816C340.315 45.816 339.665 46.04 339.153 46.488C338.651 46.9253 338.31 47.5867 338.129 48.472L337.217 53H335.681L336.641 48.248C336.694 47.96 336.721 47.72 336.721 47.528C336.721 46.9733 336.561 46.552 336.241 46.264C335.931 45.9653 335.462 45.816 334.833 45.816C334.043 45.816 333.393 46.04 332.881 46.488C332.379 46.936 332.038 47.6133 331.857 48.52L330.961 53H329.425L331.105 44.52H332.577L332.369 45.576C333.115 44.8187 334.097 44.44 335.313 44.44C335.974 44.44 336.539 44.568 337.009 44.824C337.478 45.08 337.819 45.4533 338.033 45.944C338.897 44.9413 340.049 44.44 341.489 44.44ZM353.467 44.44C354.192 44.44 354.837 44.5893 355.403 44.888C355.968 45.176 356.411 45.5973 356.731 46.152C357.051 46.696 357.211 47.3413 357.211 48.088C357.211 49.048 357.003 49.9067 356.587 50.664C356.171 51.4213 355.595 52.0187 354.859 52.456C354.133 52.8827 353.317 53.096 352.411 53.096C351.685 53.096 351.061 52.968 350.539 52.712C350.016 52.4453 349.616 52.0613 349.339 51.56L348.443 56.104H346.907L349.211 44.52H350.683L350.475 45.576C351.264 44.8187 352.261 44.44 353.467 44.44ZM352.347 51.752C352.976 51.752 353.541 51.6027 354.043 51.304C354.544 50.9947 354.939 50.568 355.227 50.024C355.515 49.48 355.659 48.8613 355.659 48.168C355.659 47.4107 355.44 46.824 355.003 46.408C354.565 45.992 353.941 45.784 353.131 45.784C352.501 45.784 351.931 45.9387 351.419 46.248C350.917 46.5467 350.523 46.968 350.235 47.512C349.957 48.056 349.819 48.6747 349.819 49.368C349.819 50.1147 350.037 50.7013 350.475 51.128C350.923 51.544 351.547 51.752 352.347 51.752ZM362.005 41.128H363.541L361.173 53H359.637L362.005 41.128ZM366.794 49.24V49.336C366.794 50.1253 367.018 50.728 367.466 51.144C367.914 51.5493 368.586 51.752 369.482 51.752C370.004 51.752 370.495 51.6667 370.954 51.496C371.412 51.3147 371.796 51.0747 372.106 50.776L372.762 51.88C372.346 52.264 371.839 52.5627 371.242 52.776C370.644 52.9893 370.015 53.096 369.354 53.096C368.522 53.096 367.802 52.9467 367.194 52.648C366.586 52.3493 366.116 51.9227 365.786 51.368C365.455 50.8133 365.29 50.1627 365.29 49.416C365.29 48.4667 365.492 47.6133 365.898 46.856C366.314 46.0987 366.884 45.5067 367.61 45.08C368.346 44.6533 369.167 44.44 370.074 44.44C371.226 44.44 372.143 44.7707 372.826 45.432C373.519 46.0827 373.866 46.9733 373.866 48.104C373.866 48.4453 373.828 48.824 373.754 49.24H366.794ZM370.01 45.72C369.252 45.72 368.602 45.9333 368.058 46.36C367.514 46.7867 367.146 47.3733 366.954 48.12H372.426C372.468 47.3627 372.266 46.776 371.818 46.36C371.38 45.9333 370.778 45.72 370.01 45.72ZM387.8 44.44C388.771 44.44 389.523 44.6853 390.056 45.176C390.6 45.6667 390.872 46.36 390.872 47.256C390.872 47.5653 390.84 47.896 390.776 48.248L389.832 53H388.296L389.24 48.248C389.293 47.96 389.32 47.7253 389.32 47.544C389.32 46.9893 389.155 46.5627 388.824 46.264C388.493 45.9653 388.003 45.816 387.352 45.816C386.52 45.816 385.832 46.0453 385.288 46.504C384.755 46.952 384.397 47.624 384.216 48.52L383.32 53H381.784L383.464 44.52H384.936L384.728 45.608C385.496 44.8293 386.52 44.44 387.8 44.44ZM397.889 53.096C397.089 53.096 396.391 52.9467 395.793 52.648C395.196 52.3387 394.732 51.9067 394.401 51.352C394.071 50.7973 393.905 50.1573 393.905 49.432C393.905 48.4827 394.119 47.6293 394.545 46.872C394.972 46.1147 395.564 45.5227 396.321 45.096C397.079 44.6587 397.932 44.44 398.881 44.44C399.681 44.44 400.38 44.5893 400.977 44.888C401.575 45.1867 402.033 45.6133 402.353 46.168C402.684 46.712 402.849 47.352 402.849 48.088C402.849 49.0373 402.636 49.896 402.209 50.664C401.783 51.4213 401.191 52.0187 400.433 52.456C399.687 52.8827 398.839 53.096 397.889 53.096ZM397.985 51.752C398.615 51.752 399.18 51.6027 399.681 51.304C400.193 50.9947 400.588 50.568 400.865 50.024C401.153 49.48 401.297 48.8613 401.297 48.168C401.297 47.4107 401.079 46.824 400.641 46.408C400.204 45.992 399.58 45.784 398.769 45.784C398.14 45.784 397.575 45.9387 397.073 46.248C396.572 46.5467 396.177 46.968 395.889 47.512C395.601 48.056 395.457 48.6747 395.457 49.368C395.457 50.1147 395.676 50.7013 396.113 51.128C396.561 51.544 397.185 51.752 397.985 51.752ZM419.635 44.52L414.883 53H413.379L412.083 46.584L408.403 53H406.931L405.315 44.52H406.707L407.955 51.24L411.795 44.52H413.107L414.387 51.24L418.179 44.52H419.635ZM428.61 41.8H430.21L427.97 53H426.37L428.61 41.8ZM443.828 44.44C444.799 44.44 445.551 44.6853 446.084 45.176C446.628 45.6667 446.9 46.36 446.9 47.256C446.9 47.5653 446.868 47.896 446.804 48.248L445.86 53H444.324L445.268 48.248C445.321 47.96 445.348 47.7253 445.348 47.544C445.348 46.9893 445.183 46.5627 444.852 46.264C444.521 45.9653 444.031 45.816 443.38 45.816C442.548 45.816 441.86 46.0453 441.316 46.504C440.783 46.952 440.425 47.624 440.244 48.52L439.348 53H437.812L440.18 41.128H441.716L440.836 45.512C441.593 44.7973 442.591 44.44 443.828 44.44ZM459.614 44.52L457.934 53H456.462L456.67 51.96C456.286 52.3227 455.838 52.6053 455.326 52.808C454.824 53 454.275 53.096 453.678 53.096C452.952 53.096 452.307 52.952 451.742 52.664C451.176 52.3653 450.734 51.9387 450.414 51.384C450.094 50.8293 449.934 50.1787 449.934 49.432C449.934 48.472 450.142 47.6133 450.558 46.856C450.974 46.0987 451.544 45.5067 452.27 45.08C453.006 44.6533 453.827 44.44 454.734 44.44C455.459 44.44 456.078 44.568 456.59 44.824C457.112 45.08 457.512 45.4587 457.79 45.96L458.078 44.52H459.614ZM454.014 51.752C454.643 51.752 455.208 51.6027 455.71 51.304C456.222 50.9947 456.616 50.568 456.894 50.024C457.182 49.48 457.326 48.8613 457.326 48.168C457.326 47.4107 457.107 46.824 456.67 46.408C456.232 45.992 455.608 45.784 454.798 45.784C454.168 45.784 453.603 45.9387 453.102 46.248C452.6 46.5467 452.206 46.968 451.918 47.512C451.63 48.056 451.486 48.6747 451.486 49.368C451.486 50.1147 451.704 50.7013 452.142 51.128C452.59 51.544 453.214 51.752 454.014 51.752ZM471.24 44.52L465.848 53H464.28L462.248 44.52H463.784L465.368 51.32L469.688 44.52H471.24ZM473.447 49.24V49.336C473.447 50.1253 473.671 50.728 474.119 51.144C474.567 51.5493 475.239 51.752 476.135 51.752C476.658 51.752 477.148 51.6667 477.607 51.496C478.066 51.3147 478.45 51.0747 478.759 50.776L479.415 51.88C478.999 52.264 478.492 52.5627 477.895 52.776C477.298 52.9893 476.668 53.096 476.007 53.096C475.175 53.096 474.455 52.9467 473.847 52.648C473.239 52.3493 472.77 51.9227 472.439 51.368C472.108 50.8133 471.943 50.1627 471.943 49.416C471.943 48.4667 472.146 47.6133 472.551 46.856C472.967 46.0987 473.538 45.5067 474.263 45.08C474.999 44.6533 475.82 44.44 476.727 44.44C477.879 44.44 478.796 44.7707 479.479 45.432C480.172 46.0827 480.519 46.9733 480.519 48.104C480.519 48.4453 480.482 48.824 480.407 49.24H473.447ZM476.663 45.72C475.906 45.72 475.255 45.9333 474.711 46.36C474.167 46.7867 473.799 47.3733 473.607 48.12H479.079C479.122 47.3627 478.919 46.776 478.471 46.36C478.034 45.9333 477.431 45.72 476.663 45.72ZM493.653 42.296C493.194 42.296 492.832 42.424 492.565 42.68C492.298 42.9253 492.106 43.3147 491.989 43.848L491.845 44.52H494.309L494.053 45.784H491.637L490.181 53H488.645L490.101 45.784H488.645L488.885 44.52H490.357L490.517 43.72C490.688 42.856 491.034 42.1947 491.557 41.736C492.09 41.2667 492.789 41.032 493.653 41.032C494.005 41.032 494.336 41.08 494.645 41.176C494.965 41.2613 495.226 41.3893 495.429 41.56L494.789 42.696C494.49 42.4293 494.112 42.296 493.653 42.296ZM499.121 53.096C498.321 53.096 497.622 52.9467 497.025 52.648C496.427 52.3387 495.963 51.9067 495.633 51.352C495.302 50.7973 495.137 50.1573 495.137 49.432C495.137 48.4827 495.35 47.6293 495.777 46.872C496.203 46.1147 496.795 45.5227 497.553 45.096C498.31 44.6587 499.163 44.44 500.113 44.44C500.913 44.44 501.611 44.5893 502.209 44.888C502.806 45.1867 503.265 45.6133 503.585 46.168C503.915 46.712 504.081 47.352 504.081 48.088C504.081 49.0373 503.867 49.896 503.441 50.664C503.014 51.4213 502.422 52.0187 501.665 52.456C500.918 52.8827 500.07 53.096 499.121 53.096ZM499.217 51.752C499.846 51.752 500.411 51.6027 500.913 51.304C501.425 50.9947 501.819 50.568 502.097 50.024C502.385 49.48 502.529 48.8613 502.529 48.168C502.529 47.4107 502.31 46.824 501.873 46.408C501.435 45.992 500.811 45.784 500.001 45.784C499.371 45.784 498.806 45.9387 498.305 46.248C497.803 46.5467 497.409 46.968 497.121 47.512C496.833 48.056 496.689 48.6747 496.689 49.368C496.689 50.1147 496.907 50.7013 497.345 51.128C497.793 51.544 498.417 51.752 499.217 51.752ZM516.093 44.52L514.413 53H512.941L513.149 51.912C512.765 52.3067 512.312 52.6053 511.789 52.808C511.277 53 510.717 53.096 510.109 53.096C509.17 53.096 508.429 52.8453 507.885 52.344C507.341 51.8427 507.069 51.144 507.069 50.248C507.069 49.9493 507.101 49.624 507.165 49.272L508.109 44.52H509.645L508.701 49.288C508.648 49.576 508.621 49.816 508.621 50.008C508.621 50.5627 508.781 50.9893 509.101 51.288C509.432 51.576 509.917 51.72 510.557 51.72C511.368 51.72 512.04 51.4907 512.573 51.032C513.117 50.5733 513.48 49.9013 513.661 49.016L514.557 44.52H516.093ZM524.553 44.44C525.524 44.44 526.276 44.6853 526.809 45.176C527.353 45.6667 527.625 46.36 527.625 47.256C527.625 47.5653 527.593 47.896 527.529 48.248L526.585 53H525.049L525.993 48.248C526.046 47.96 526.073 47.7253 526.073 47.544C526.073 46.9893 525.908 46.5627 525.577 46.264C525.246 45.9653 524.756 45.816 524.105 45.816C523.273 45.816 522.585 46.0453 522.041 46.504C521.508 46.952 521.15 47.624 520.969 48.52L520.073 53H518.537L520.217 44.52H521.689L521.481 45.608C522.249 44.8293 523.273 44.44 524.553 44.44ZM541.027 41.128L538.659 53H537.187L537.395 51.96C537.011 52.3227 536.563 52.6053 536.051 52.808C535.549 53 535 53.096 534.403 53.096C533.677 53.096 533.032 52.952 532.467 52.664C531.901 52.3653 531.459 51.9387 531.139 51.384C530.819 50.8293 530.659 50.1787 530.659 49.432C530.659 48.472 530.867 47.6133 531.283 46.856C531.699 46.0987 532.269 45.5067 532.995 45.08C533.731 44.6533 534.552 44.44 535.459 44.44C536.184 44.44 536.808 44.5733 537.331 44.84C537.864 45.096 538.264 45.4747 538.531 45.976L539.491 41.128H541.027ZM534.739 51.752C535.368 51.752 535.933 51.6027 536.435 51.304C536.947 50.9947 537.341 50.568 537.619 50.024C537.907 49.48 538.051 48.8613 538.051 48.168C538.051 47.4107 537.832 46.824 537.395 46.408C536.957 45.992 536.333 45.784 535.523 45.784C534.893 45.784 534.328 45.9387 533.827 46.248C533.325 46.5467 532.931 46.968 532.643 47.512C532.355 48.056 532.211 48.6747 532.211 49.368C532.211 50.1147 532.429 50.7013 532.867 51.128C533.315 51.544 533.939 51.752 534.739 51.752ZM549.958 44.52H551.494L549.814 53H548.278L549.958 44.52ZM551.174 42.888C550.896 42.888 550.667 42.7973 550.486 42.616C550.304 42.4347 550.214 42.216 550.214 41.96C550.214 41.6613 550.315 41.4107 550.518 41.208C550.731 40.9947 550.998 40.888 551.318 40.888C551.595 40.888 551.824 40.9787 552.006 41.16C552.198 41.3307 552.294 41.5387 552.294 41.784C552.294 42.1147 552.187 42.3813 551.974 42.584C551.771 42.7867 551.504 42.888 551.174 42.888ZM556.218 50.296C556.186 50.456 556.17 50.6053 556.17 50.744C556.17 51.0853 556.261 51.3467 556.442 51.528C556.634 51.7093 556.917 51.8 557.29 51.8C557.738 51.8 558.144 51.6667 558.506 51.4L558.826 52.568C558.314 52.92 557.658 53.096 556.858 53.096C556.186 53.096 555.642 52.9093 555.226 52.536C554.821 52.152 554.618 51.6293 554.618 50.968C554.618 50.744 554.64 50.5307 554.682 50.328L555.594 45.784H554.154L554.394 44.52H555.85L556.218 42.664H557.754L557.386 44.52H559.818L559.562 45.784H557.13L556.218 50.296Z" fill="black"/>
</svg>
