<svg width="651" height="130" viewBox="0 0 651 130" fill="none" xmlns="http://www.w3.org/2000/svg">
<path d="M0 3C0 1.34314 1.34315 0 3 0H648C649.657 0 651 1.34315 651 3V95.6096C651 97.2664 649.657 98.6096 648 98.6096H145.566C144.585 98.6096 143.678 99.0703 143.081 99.8483C138.682 105.576 118.854 129.222 91.1929 129.321C88.7645 129.33 87.5304 126.357 88.4087 124.093C91.8012 115.349 87.9246 104.416 86.1867 100.29C85.7459 99.2434 84.7131 98.6096 83.5775 98.6096H3C1.34315 98.6096 0 97.2664 0 95.6096V3Z" fill="#C9EAE6"/>
<path d="M32.3133 33.192H28.4893L28.7613 31.8H38.0253L37.7373 33.192H33.9133L31.9453 43H30.3613L32.3133 33.192ZM44.5359 34.44C45.5066 34.44 46.2586 34.6853 46.7919 35.176C47.3359 35.6667 47.6079 36.36 47.6079 37.256C47.6079 37.5653 47.5759 37.896 47.5119 38.248L46.5679 43H45.0319L45.9759 38.248C46.0292 37.96 46.0559 37.7253 46.0559 37.544C46.0559 36.9893 45.8906 36.5627 45.5599 36.264C45.2292 35.9653 44.7386 35.816 44.0879 35.816C43.2559 35.816 42.5679 36.0453 42.0239 36.504C41.4906 36.952 41.1332 37.624 40.9519 38.52L40.0559 43H38.5199L40.8879 31.128H42.4239L41.5439 35.512C42.3012 34.7973 43.2986 34.44 44.5359 34.44ZM52.1454 39.24V39.336C52.1454 40.1253 52.3694 40.728 52.8174 41.144C53.2654 41.5493 53.9374 41.752 54.8334 41.752C55.3561 41.752 55.8467 41.6667 56.3054 41.496C56.7641 41.3147 57.1481 41.0747 57.4574 40.776L58.1134 41.88C57.6974 42.264 57.1907 42.5627 56.5934 42.776C55.9961 42.9893 55.3667 43.096 54.7054 43.096C53.8734 43.096 53.1534 42.9467 52.5454 42.648C51.9374 42.3493 51.4681 41.9227 51.1374 41.368C50.8067 40.8133 50.6414 40.1627 50.6414 39.416C50.6414 38.4667 50.8441 37.6133 51.2494 36.856C51.6654 36.0987 52.2361 35.5067 52.9614 35.08C53.6974 34.6533 54.5187 34.44 55.4254 34.44C56.5774 34.44 57.4947 34.7707 58.1774 35.432C58.8707 36.0827 59.2174 36.9733 59.2174 38.104C59.2174 38.4453 59.1801 38.824 59.1054 39.24H52.1454ZM55.3614 35.72C54.6041 35.72 53.9534 35.9333 53.4094 36.36C52.8654 36.7867 52.4974 37.3733 52.3054 38.12H57.7774C57.8201 37.3627 57.6174 36.776 57.1694 36.36C56.7321 35.9333 56.1294 35.72 55.3614 35.72ZM69.8075 43.096C69.1035 43.096 68.4315 43.0053 67.7915 42.824C67.1622 42.6427 66.6715 42.408 66.3195 42.12L67.0075 40.904C67.3382 41.1707 67.7648 41.384 68.2875 41.544C68.8209 41.6933 69.3755 41.768 69.9515 41.768C70.6769 41.768 71.2262 41.6613 71.5995 41.448C71.9835 41.224 72.1755 40.9147 72.1755 40.52C72.1755 40.2 72.0209 39.9707 71.7115 39.832C71.4129 39.6933 70.9435 39.5547 70.3035 39.416C69.7062 39.288 69.2155 39.16 68.8315 39.032C68.4582 38.8933 68.1382 38.68 67.8715 38.392C67.6048 38.0933 67.4715 37.6933 67.4715 37.192C67.4715 36.6373 67.6262 36.152 67.9355 35.736C68.2555 35.32 68.7035 35 69.2795 34.776C69.8662 34.552 70.5435 34.44 71.3115 34.44C71.8769 34.44 72.4262 34.5093 72.9595 34.648C73.4929 34.7867 73.9302 34.9733 74.2715 35.208L73.6635 36.424C73.3329 36.2 72.9489 36.0347 72.5115 35.928C72.0742 35.8107 71.6262 35.752 71.1675 35.752C70.4742 35.752 69.9409 35.8693 69.5675 36.104C69.1942 36.328 69.0075 36.632 69.0075 37.016C69.0075 37.3573 69.1622 37.6027 69.4715 37.752C69.7809 37.8907 70.2609 38.0293 70.9115 38.168C71.4982 38.296 71.9782 38.424 72.3515 38.552C72.7249 38.68 73.0395 38.888 73.2955 39.176C73.5622 39.464 73.6955 39.8533 73.6955 40.344C73.6955 41.208 73.3382 41.8853 72.6235 42.376C71.9195 42.856 70.9809 43.096 69.8075 43.096ZM78.0311 34.52H79.5671L77.8871 43H76.3511L78.0311 34.52ZM79.2471 32.888C78.9698 32.888 78.7405 32.7973 78.5591 32.616C78.3778 32.4347 78.2871 32.216 78.2871 31.96C78.2871 31.6613 78.3885 31.4107 78.5911 31.208C78.8045 30.9947 79.0711 30.888 79.3911 30.888C79.6685 30.888 79.8978 30.9787 80.0791 31.16C80.2711 31.3307 80.3671 31.5387 80.3671 31.784C80.3671 32.1147 80.2605 32.3813 80.0471 32.584C79.8445 32.7867 79.5778 32.888 79.2471 32.888ZM91.8119 34.52L90.3559 41.848C90.0572 43.3627 89.4919 44.4667 88.6599 45.16C87.8386 45.8533 86.7132 46.2 85.2839 46.2C84.4839 46.2 83.7532 46.0933 83.0919 45.88C82.4306 45.6773 81.8706 45.384 81.4119 45L82.2599 43.816C82.6012 44.1253 83.0439 44.3707 83.5879 44.552C84.1426 44.744 84.7452 44.84 85.3959 44.84C86.3772 44.84 87.1346 44.616 87.6679 44.168C88.2119 43.72 88.5799 43.0267 88.7719 42.088L88.8999 41.48C88.0892 42.2587 87.0652 42.648 85.8279 42.648C85.0812 42.648 84.4199 42.5093 83.8439 42.232C83.2786 41.9547 82.8359 41.5547 82.5159 41.032C82.2066 40.5093 82.0519 39.896 82.0519 39.192C82.0519 38.3067 82.2546 37.5013 82.6599 36.776C83.0759 36.0507 83.6519 35.48 84.3879 35.064C85.1239 34.648 85.9559 34.44 86.8839 34.44C87.6092 34.44 88.2492 34.5787 88.8039 34.856C89.3692 35.1227 89.7852 35.528 90.0519 36.072L90.3559 34.52H91.8119ZM86.1319 41.304C86.7719 41.304 87.3426 41.1653 87.8439 40.888C88.3559 40.6 88.7506 40.2053 89.0279 39.704C89.3159 39.192 89.4599 38.616 89.4599 37.976C89.4599 37.2933 89.2359 36.76 88.7879 36.376C88.3506 35.9813 87.7319 35.784 86.9319 35.784C86.2919 35.784 85.7159 35.928 85.2039 36.216C84.7026 36.4933 84.3079 36.888 84.0199 37.4C83.7426 37.9013 83.6039 38.4667 83.6039 39.096C83.6039 39.7893 83.8279 40.3333 84.2759 40.728C84.7239 41.112 85.3426 41.304 86.1319 41.304ZM100.283 34.44C101.253 34.44 102.005 34.6853 102.539 35.176C103.083 35.6667 103.355 36.36 103.355 37.256C103.355 37.5653 103.323 37.896 103.259 38.248L102.315 43H100.779L101.723 38.248C101.776 37.96 101.803 37.7253 101.803 37.544C101.803 36.9893 101.637 36.5627 101.307 36.264C100.976 35.9653 100.485 35.816 99.8348 35.816C99.0028 35.816 98.3148 36.0453 97.7708 36.504C97.2374 36.952 96.8801 37.624 96.6988 38.52L95.8028 43H94.2668L95.9468 34.52H97.4188L97.2108 35.608C97.9788 34.8293 99.0028 34.44 100.283 34.44ZM121.438 34.52L119.758 43H118.286L118.494 41.912C118.11 42.3067 117.657 42.6053 117.134 42.808C116.622 43 116.062 43.096 115.454 43.096C114.516 43.096 113.774 42.8453 113.23 42.344C112.686 41.8427 112.414 41.144 112.414 40.248C112.414 39.9493 112.446 39.624 112.51 39.272L113.454 34.52H114.99L114.046 39.288C113.993 39.576 113.966 39.816 113.966 40.008C113.966 40.5627 114.126 40.9893 114.446 41.288C114.777 41.576 115.262 41.72 115.902 41.72C116.713 41.72 117.385 41.4907 117.918 41.032C118.462 40.5733 118.825 39.9013 119.006 39.016L119.902 34.52H121.438ZM129.818 34.44C130.544 34.44 131.189 34.5893 131.754 34.888C132.32 35.176 132.762 35.5973 133.082 36.152C133.402 36.696 133.562 37.3413 133.562 38.088C133.562 39.048 133.354 39.9067 132.938 40.664C132.522 41.4213 131.946 42.0187 131.21 42.456C130.485 42.8827 129.669 43.096 128.762 43.096C128.037 43.096 127.413 42.968 126.89 42.712C126.368 42.4453 125.968 42.0613 125.69 41.56L124.794 46.104H123.258L125.562 34.52H127.034L126.826 35.576C127.616 34.8187 128.613 34.44 129.818 34.44ZM128.698 41.752C129.328 41.752 129.893 41.6027 130.394 41.304C130.896 40.9947 131.29 40.568 131.578 40.024C131.866 39.48 132.01 38.8613 132.01 38.168C132.01 37.4107 131.792 36.824 131.354 36.408C130.917 35.992 130.293 35.784 129.482 35.784C128.853 35.784 128.282 35.9387 127.77 36.248C127.269 36.5467 126.874 36.968 126.586 37.512C126.309 38.056 126.17 38.6747 126.17 39.368C126.17 40.1147 126.389 40.7013 126.826 41.128C127.274 41.544 127.898 41.752 128.698 41.752ZM143.166 34.52H144.702L143.022 43H141.486L143.166 34.52ZM144.382 32.888C144.104 32.888 143.875 32.7973 143.694 32.616C143.512 32.4347 143.422 32.216 143.422 31.96C143.422 31.6613 143.523 31.4107 143.726 31.208C143.939 30.9947 144.206 30.888 144.526 30.888C144.803 30.888 145.032 30.9787 145.214 31.16C145.406 31.3307 145.502 31.5387 145.502 31.784C145.502 32.1147 145.395 32.3813 145.182 32.584C144.979 32.7867 144.712 32.888 144.382 32.888ZM149.826 43.096C149.122 43.096 148.45 43.0053 147.81 42.824C147.181 42.6427 146.69 42.408 146.338 42.12L147.026 40.904C147.357 41.1707 147.784 41.384 148.306 41.544C148.84 41.6933 149.394 41.768 149.97 41.768C150.696 41.768 151.245 41.6613 151.618 41.448C152.002 41.224 152.194 40.9147 152.194 40.52C152.194 40.2 152.04 39.9707 151.73 39.832C151.432 39.6933 150.962 39.5547 150.322 39.416C149.725 39.288 149.234 39.16 148.85 39.032C148.477 38.8933 148.157 38.68 147.89 38.392C147.624 38.0933 147.49 37.6933 147.49 37.192C147.49 36.6373 147.645 36.152 147.954 35.736C148.274 35.32 148.722 35 149.298 34.776C149.885 34.552 150.562 34.44 151.33 34.44C151.896 34.44 152.445 34.5093 152.978 34.648C153.512 34.7867 153.949 34.9733 154.29 35.208L153.682 36.424C153.352 36.2 152.968 36.0347 152.53 35.928C152.093 35.8107 151.645 35.752 151.186 35.752C150.493 35.752 149.96 35.8693 149.586 36.104C149.213 36.328 149.026 36.632 149.026 37.016C149.026 37.3573 149.181 37.6027 149.49 37.752C149.8 37.8907 150.28 38.0293 150.93 38.168C151.517 38.296 151.997 38.424 152.37 38.552C152.744 38.68 153.058 38.888 153.314 39.176C153.581 39.464 153.714 39.8533 153.714 40.344C153.714 41.208 153.357 41.8853 152.642 42.376C151.938 42.856 151 43.096 149.826 43.096ZM164.539 43.096C163.835 43.096 163.163 43.0053 162.523 42.824C161.893 42.6427 161.403 42.408 161.051 42.12L161.739 40.904C162.069 41.1707 162.496 41.384 163.019 41.544C163.552 41.6933 164.107 41.768 164.683 41.768C165.408 41.768 165.957 41.6613 166.331 41.448C166.715 41.224 166.907 40.9147 166.907 40.52C166.907 40.2 166.752 39.9707 166.443 39.832C166.144 39.6933 165.675 39.5547 165.035 39.416C164.437 39.288 163.947 39.16 163.563 39.032C163.189 38.8933 162.869 38.68 162.603 38.392C162.336 38.0933 162.203 37.6933 162.203 37.192C162.203 36.6373 162.357 36.152 162.667 35.736C162.987 35.32 163.435 35 164.011 34.776C164.597 34.552 165.275 34.44 166.043 34.44C166.608 34.44 167.157 34.5093 167.691 34.648C168.224 34.7867 168.661 34.9733 169.003 35.208L168.395 36.424C168.064 36.2 167.68 36.0347 167.243 35.928C166.805 35.8107 166.357 35.752 165.899 35.752C165.205 35.752 164.672 35.8693 164.299 36.104C163.925 36.328 163.739 36.632 163.739 37.016C163.739 37.3573 163.893 37.6027 164.203 37.752C164.512 37.8907 164.992 38.0293 165.643 38.168C166.229 38.296 166.709 38.424 167.083 38.552C167.456 38.68 167.771 38.888 168.027 39.176C168.293 39.464 168.427 39.8533 168.427 40.344C168.427 41.208 168.069 41.8853 167.355 42.376C166.651 42.856 165.712 43.096 164.539 43.096ZM172.762 34.52H174.298L172.618 43H171.082L172.762 34.52ZM173.978 32.888C173.701 32.888 173.472 32.7973 173.29 32.616C173.109 32.4347 173.018 32.216 173.018 31.96C173.018 31.6613 173.12 31.4107 173.322 31.208C173.536 30.9947 173.802 30.888 174.122 30.888C174.4 30.888 174.629 30.9787 174.81 31.16C175.002 31.3307 175.098 31.5387 175.098 31.784C175.098 32.1147 174.992 32.3813 174.778 32.584C174.576 32.7867 174.309 32.888 173.978 32.888ZM188.815 34.44C189.775 34.44 190.522 34.6853 191.055 35.176C191.599 35.656 191.871 36.344 191.871 37.24C191.871 37.4853 191.834 37.8213 191.759 38.248L190.815 43H189.279L190.223 38.248C190.276 37.9493 190.303 37.704 190.303 37.512C190.303 36.9573 190.148 36.536 189.839 36.248C189.53 35.96 189.06 35.816 188.431 35.816C187.642 35.816 186.991 36.04 186.479 36.488C185.978 36.9253 185.636 37.5867 185.455 38.472L184.543 43H183.007L183.967 38.248C184.02 37.96 184.047 37.72 184.047 37.528C184.047 36.9733 183.887 36.552 183.567 36.264C183.258 35.9653 182.788 35.816 182.159 35.816C181.37 35.816 180.719 36.04 180.207 36.488C179.706 36.936 179.364 37.6133 179.183 38.52L178.287 43H176.751L178.431 34.52H179.903L179.695 35.576C180.442 34.8187 181.423 34.44 182.639 34.44C183.3 34.44 183.866 34.568 184.335 34.824C184.804 35.08 185.146 35.4533 185.359 35.944C186.223 34.9413 187.375 34.44 188.815 34.44ZM200.793 34.44C201.519 34.44 202.164 34.5893 202.729 34.888C203.295 35.176 203.737 35.5973 204.057 36.152C204.377 36.696 204.537 37.3413 204.537 38.088C204.537 39.048 204.329 39.9067 203.913 40.664C203.497 41.4213 202.921 42.0187 202.185 42.456C201.46 42.8827 200.644 43.096 199.737 43.096C199.012 43.096 198.388 42.968 197.865 42.712C197.343 42.4453 196.943 42.0613 196.665 41.56L195.769 46.104H194.233L196.537 34.52H198.009L197.801 35.576C198.591 34.8187 199.588 34.44 200.793 34.44ZM199.673 41.752C200.303 41.752 200.868 41.6027 201.369 41.304C201.871 40.9947 202.265 40.568 202.553 40.024C202.841 39.48 202.985 38.8613 202.985 38.168C202.985 37.4107 202.767 36.824 202.329 36.408C201.892 35.992 201.268 35.784 200.457 35.784C199.828 35.784 199.257 35.9387 198.745 36.248C198.244 36.5467 197.849 36.968 197.561 37.512C197.284 38.056 197.145 38.6747 197.145 39.368C197.145 40.1147 197.364 40.7013 197.801 41.128C198.249 41.544 198.873 41.752 199.673 41.752ZM209.332 31.128H210.868L208.5 43H206.964L209.332 31.128ZM214.12 39.24V39.336C214.12 40.1253 214.344 40.728 214.792 41.144C215.24 41.5493 215.912 41.752 216.808 41.752C217.331 41.752 217.822 41.6667 218.28 41.496C218.739 41.3147 219.123 41.0747 219.432 40.776L220.088 41.88C219.672 42.264 219.166 42.5627 218.568 42.776C217.971 42.9893 217.342 43.096 216.68 43.096C215.848 43.096 215.128 42.9467 214.52 42.648C213.912 42.3493 213.443 41.9227 213.112 41.368C212.782 40.8133 212.616 40.1627 212.616 39.416C212.616 38.4667 212.819 37.6133 213.224 36.856C213.64 36.0987 214.211 35.5067 214.936 35.08C215.672 34.6533 216.494 34.44 217.4 34.44C218.552 34.44 219.47 34.7707 220.152 35.432C220.846 36.0827 221.192 36.9733 221.192 38.104C221.192 38.4453 221.155 38.824 221.08 39.24H214.12ZM217.336 35.72C216.579 35.72 215.928 35.9333 215.384 36.36C214.84 36.7867 214.472 37.3733 214.28 38.12H219.752C219.795 37.3627 219.592 36.776 219.144 36.36C218.707 35.9333 218.104 35.72 217.336 35.72ZM238.775 34.52L237.095 43H235.623L235.831 41.96C235.447 42.3227 234.999 42.6053 234.487 42.808C233.985 43 233.436 43.096 232.839 43.096C232.113 43.096 231.468 42.952 230.903 42.664C230.337 42.3653 229.895 41.9387 229.575 41.384C229.255 40.8293 229.095 40.1787 229.095 39.432C229.095 38.472 229.303 37.6133 229.719 36.856C230.135 36.0987 230.705 35.5067 231.431 35.08C232.167 34.6533 232.988 34.44 233.895 34.44C234.62 34.44 235.239 34.568 235.751 34.824C236.273 35.08 236.673 35.4587 236.951 35.96L237.239 34.52H238.775ZM233.175 41.752C233.804 41.752 234.369 41.6027 234.871 41.304C235.383 40.9947 235.777 40.568 236.055 40.024C236.343 39.48 236.487 38.8613 236.487 38.168C236.487 37.4107 236.268 36.824 235.831 36.408C235.393 35.992 234.769 35.784 233.959 35.784C233.329 35.784 232.764 35.9387 232.263 36.248C231.761 36.5467 231.367 36.968 231.079 37.512C230.791 38.056 230.647 38.6747 230.647 39.368C230.647 40.1147 230.865 40.7013 231.303 41.128C231.751 41.544 232.375 41.752 233.175 41.752ZM247.233 34.44C248.203 34.44 248.955 34.6853 249.489 35.176C250.033 35.6667 250.305 36.36 250.305 37.256C250.305 37.5653 250.273 37.896 250.209 38.248L249.265 43H247.729L248.673 38.248C248.726 37.96 248.753 37.7253 248.753 37.544C248.753 36.9893 248.587 36.5627 248.257 36.264C247.926 35.9653 247.435 35.816 246.785 35.816C245.953 35.816 245.265 36.0453 244.721 36.504C244.187 36.952 243.83 37.624 243.649 38.52L242.753 43H241.217L242.897 34.52H244.369L244.161 35.608C244.929 34.8293 245.953 34.44 247.233 34.44ZM263.706 31.128L261.338 43H259.866L260.074 41.96C259.69 42.3227 259.242 42.6053 258.73 42.808C258.229 43 257.68 43.096 257.082 43.096C256.357 43.096 255.712 42.952 255.146 42.664C254.581 42.3653 254.138 41.9387 253.818 41.384C253.498 40.8293 253.338 40.1787 253.338 39.432C253.338 38.472 253.546 37.6133 253.962 36.856C254.378 36.0987 254.949 35.5067 255.674 35.08C256.41 34.6533 257.232 34.44 258.138 34.44C258.864 34.44 259.488 34.5733 260.01 34.84C260.544 35.096 260.944 35.4747 261.21 35.976L262.17 31.128H263.706ZM257.418 41.752C258.048 41.752 258.613 41.6027 259.114 41.304C259.626 40.9947 260.021 40.568 260.298 40.024C260.586 39.48 260.73 38.8613 260.73 38.168C260.73 37.4107 260.512 36.824 260.074 36.408C259.637 35.992 259.013 35.784 258.202 35.784C257.573 35.784 257.008 35.9387 256.506 36.248C256.005 36.5467 255.61 36.968 255.322 37.512C255.034 38.056 254.89 38.6747 254.89 39.368C254.89 40.1147 255.109 40.7013 255.546 41.128C255.994 41.544 256.618 41.752 257.418 41.752ZM273.629 43.096C272.925 43.096 272.253 43.0053 271.613 42.824C270.984 42.6427 270.493 42.408 270.141 42.12L270.829 40.904C271.16 41.1707 271.587 41.384 272.109 41.544C272.643 41.6933 273.197 41.768 273.773 41.768C274.499 41.768 275.048 41.6613 275.421 41.448C275.805 41.224 275.997 40.9147 275.997 40.52C275.997 40.2 275.843 39.9707 275.533 39.832C275.235 39.6933 274.765 39.5547 274.125 39.416C273.528 39.288 273.037 39.16 272.653 39.032C272.28 38.8933 271.96 38.68 271.693 38.392C271.427 38.0933 271.293 37.6933 271.293 37.192C271.293 36.6373 271.448 36.152 271.757 35.736C272.077 35.32 272.525 35 273.101 34.776C273.688 34.552 274.365 34.44 275.133 34.44C275.699 34.44 276.248 34.5093 276.781 34.648C277.315 34.7867 277.752 34.9733 278.093 35.208L277.485 36.424C277.155 36.2 276.771 36.0347 276.333 35.928C275.896 35.8107 275.448 35.752 274.989 35.752C274.296 35.752 273.763 35.8693 273.389 36.104C273.016 36.328 272.829 36.632 272.829 37.016C272.829 37.3573 272.984 37.6027 273.293 37.752C273.603 37.8907 274.083 38.0293 274.733 38.168C275.32 38.296 275.8 38.424 276.173 38.552C276.547 38.68 276.861 38.888 277.117 39.176C277.384 39.464 277.517 39.8533 277.517 40.344C277.517 41.208 277.16 41.8853 276.445 42.376C275.741 42.856 274.803 43.096 273.629 43.096ZM282.445 40.296C282.413 40.456 282.397 40.6053 282.397 40.744C282.397 41.0853 282.488 41.3467 282.669 41.528C282.861 41.7093 283.144 41.8 283.517 41.8C283.965 41.8 284.37 41.6667 284.733 41.4L285.053 42.568C284.541 42.92 283.885 43.096 283.085 43.096C282.413 43.096 281.869 42.9093 281.453 42.536C281.048 42.152 280.845 41.6293 280.845 40.968C280.845 40.744 280.866 40.5307 280.909 40.328L281.821 35.784H280.381L280.621 34.52H282.077L282.445 32.664H283.981L283.613 34.52H286.045L285.789 35.784H283.357L282.445 40.296ZM290.91 35.784C291.283 35.3147 291.742 34.9733 292.286 34.76C292.83 34.5467 293.491 34.44 294.27 34.44L293.982 35.928C293.886 35.9173 293.753 35.912 293.582 35.912C291.822 35.912 290.755 36.8613 290.382 38.76L289.534 43H287.998L289.678 34.52H291.15L290.91 35.784ZM305.237 34.52L303.557 43H302.085L302.293 41.96C301.909 42.3227 301.461 42.6053 300.949 42.808C300.448 43 299.898 43.096 299.301 43.096C298.576 43.096 297.93 42.952 297.365 42.664C296.8 42.3653 296.357 41.9387 296.037 41.384C295.717 40.8293 295.557 40.1787 295.557 39.432C295.557 38.472 295.765 37.6133 296.181 36.856C296.597 36.0987 297.168 35.5067 297.893 35.08C298.629 34.6533 299.45 34.44 300.357 34.44C301.082 34.44 301.701 34.568 302.213 34.824C302.736 35.08 303.136 35.4587 303.413 35.96L303.701 34.52H305.237ZM299.637 41.752C300.266 41.752 300.832 41.6027 301.333 41.304C301.845 40.9947 302.24 40.568 302.517 40.024C302.805 39.48 302.949 38.8613 302.949 38.168C302.949 37.4107 302.73 36.824 302.293 36.408C301.856 35.992 301.232 35.784 300.421 35.784C299.792 35.784 299.226 35.9387 298.725 36.248C298.224 36.5467 297.829 36.968 297.541 37.512C297.253 38.056 297.109 38.6747 297.109 39.368C297.109 40.1147 297.328 40.7013 297.765 41.128C298.213 41.544 298.837 41.752 299.637 41.752ZM309.359 34.52H310.895L309.215 43H307.679L309.359 34.52ZM310.575 32.888C310.298 32.888 310.069 32.7973 309.887 32.616C309.706 32.4347 309.615 32.216 309.615 31.96C309.615 31.6613 309.717 31.4107 309.919 31.208C310.133 30.9947 310.399 30.888 310.719 30.888C310.997 30.888 311.226 30.9787 311.407 31.16C311.599 31.3307 311.695 31.5387 311.695 31.784C311.695 32.1147 311.589 32.3813 311.375 32.584C311.173 32.7867 310.906 32.888 310.575 32.888ZM323.14 34.52L321.684 41.848C321.385 43.3627 320.82 44.4667 319.988 45.16C319.167 45.8533 318.041 46.2 316.612 46.2C315.812 46.2 315.081 46.0933 314.42 45.88C313.759 45.6773 313.199 45.384 312.74 45L313.588 43.816C313.929 44.1253 314.372 44.3707 314.916 44.552C315.471 44.744 316.073 44.84 316.724 44.84C317.705 44.84 318.463 44.616 318.996 44.168C319.54 43.72 319.908 43.0267 320.1 42.088L320.228 41.48C319.417 42.2587 318.393 42.648 317.156 42.648C316.409 42.648 315.748 42.5093 315.172 42.232C314.607 41.9547 314.164 41.5547 313.844 41.032C313.535 40.5093 313.38 39.896 313.38 39.192C313.38 38.3067 313.583 37.5013 313.988 36.776C314.404 36.0507 314.98 35.48 315.716 35.064C316.452 34.648 317.284 34.44 318.212 34.44C318.937 34.44 319.577 34.5787 320.132 34.856C320.697 35.1227 321.113 35.528 321.38 36.072L321.684 34.52H323.14ZM317.46 41.304C318.1 41.304 318.671 41.1653 319.172 40.888C319.684 40.6 320.079 40.2053 320.356 39.704C320.644 39.192 320.788 38.616 320.788 37.976C320.788 37.2933 320.564 36.76 320.116 36.376C319.679 35.9813 319.06 35.784 318.26 35.784C317.62 35.784 317.044 35.928 316.532 36.216C316.031 36.4933 315.636 36.888 315.348 37.4C315.071 37.9013 314.932 38.4667 314.932 39.096C314.932 39.7893 315.156 40.3333 315.604 40.728C316.052 41.112 316.671 41.304 317.46 41.304ZM331.611 34.44C332.582 34.44 333.334 34.6853 333.867 35.176C334.411 35.6667 334.683 36.36 334.683 37.256C334.683 37.5653 334.651 37.896 334.587 38.248L333.643 43H332.107L333.051 38.248C333.104 37.96 333.131 37.7253 333.131 37.544C333.131 36.9893 332.966 36.5627 332.635 36.264C332.304 35.9653 331.814 35.816 331.163 35.816C330.331 35.816 329.643 36.0453 329.099 36.504C328.566 36.952 328.208 37.624 328.027 38.52L327.131 43H325.595L327.963 31.128H329.499L328.619 35.512C329.376 34.7973 330.374 34.44 331.611 34.44ZM339.958 40.296C339.926 40.456 339.91 40.6053 339.91 40.744C339.91 41.0853 340 41.3467 340.182 41.528C340.374 41.7093 340.656 41.8 341.03 41.8C341.478 41.8 341.883 41.6667 342.246 41.4L342.566 42.568C342.054 42.92 341.398 43.096 340.598 43.096C339.926 43.096 339.382 42.9093 338.966 42.536C338.56 42.152 338.358 41.6293 338.358 40.968C338.358 40.744 338.379 40.5307 338.422 40.328L339.334 35.784H337.894L338.134 34.52H339.59L339.958 32.664H341.494L341.126 34.52H343.558L343.302 35.784H340.87L339.958 40.296ZM350.523 32.296C350.065 32.296 349.702 32.424 349.435 32.68C349.169 32.9253 348.977 33.3147 348.859 33.848L348.715 34.52H351.179L350.923 35.784H348.507L347.051 43H345.515L346.971 35.784H345.515L345.755 34.52H347.227L347.387 33.72C347.558 32.856 347.905 32.1947 348.427 31.736C348.961 31.2667 349.659 31.032 350.523 31.032C350.875 31.032 351.206 31.08 351.515 31.176C351.835 31.2613 352.097 31.3893 352.299 31.56L351.659 32.696C351.361 32.4293 350.982 32.296 350.523 32.296ZM355.991 43.096C355.191 43.096 354.492 42.9467 353.895 42.648C353.298 42.3387 352.834 41.9067 352.503 41.352C352.172 40.7973 352.007 40.1573 352.007 39.432C352.007 38.4827 352.22 37.6293 352.647 36.872C353.074 36.1147 353.666 35.5227 354.423 35.096C355.18 34.6587 356.034 34.44 356.983 34.44C357.783 34.44 358.482 34.5893 359.079 34.888C359.676 35.1867 360.135 35.6133 360.455 36.168C360.786 36.712 360.951 37.352 360.951 38.088C360.951 39.0373 360.738 39.896 360.311 40.664C359.884 41.4213 359.292 42.0187 358.535 42.456C357.788 42.8827 356.94 43.096 355.991 43.096ZM356.087 41.752C356.716 41.752 357.282 41.6027 357.783 41.304C358.295 40.9947 358.69 40.568 358.967 40.024C359.255 39.48 359.399 38.8613 359.399 38.168C359.399 37.4107 359.18 36.824 358.743 36.408C358.306 35.992 357.682 35.784 356.871 35.784C356.242 35.784 355.676 35.9387 355.175 36.248C354.674 36.5467 354.279 36.968 353.991 37.512C353.703 38.056 353.559 38.6747 353.559 39.368C353.559 40.1147 353.778 40.7013 354.215 41.128C354.663 41.544 355.287 41.752 356.087 41.752ZM366.291 35.784C366.665 35.3147 367.123 34.9733 367.667 34.76C368.211 34.5467 368.873 34.44 369.651 34.44L369.363 35.928C369.267 35.9173 369.134 35.912 368.963 35.912C367.203 35.912 366.137 36.8613 365.763 38.76L364.915 43H363.379L365.059 34.52H366.531L366.291 35.784ZM385.968 34.52L381.216 43H379.712L378.416 36.584L374.736 43H373.264L371.648 34.52H373.04L374.288 41.24L378.128 34.52H379.44L380.72 41.24L384.512 34.52H385.968ZM396.428 34.52L394.748 43H393.276L393.484 41.96C393.1 42.3227 392.652 42.6053 392.14 42.808C391.638 43 391.089 43.096 390.492 43.096C389.766 43.096 389.121 42.952 388.556 42.664C387.99 42.3653 387.548 41.9387 387.228 41.384C386.908 40.8293 386.748 40.1787 386.748 39.432C386.748 38.472 386.956 37.6133 387.372 36.856C387.788 36.0987 388.358 35.5067 389.084 35.08C389.82 34.6533 390.641 34.44 391.548 34.44C392.273 34.44 392.892 34.568 393.404 34.824C393.926 35.08 394.326 35.4587 394.604 35.96L394.892 34.52H396.428ZM390.828 41.752C391.457 41.752 392.022 41.6027 392.524 41.304C393.036 40.9947 393.43 40.568 393.708 40.024C393.996 39.48 394.14 38.8613 394.14 38.168C394.14 37.4107 393.921 36.824 393.484 36.408C393.046 35.992 392.422 35.784 391.612 35.784C390.982 35.784 390.417 35.9387 389.916 36.248C389.414 36.5467 389.02 36.968 388.732 37.512C388.444 38.056 388.3 38.6747 388.3 39.368C388.3 40.1147 388.518 40.7013 388.956 41.128C389.404 41.544 390.028 41.752 390.828 41.752ZM401.782 35.784C402.155 35.3147 402.614 34.9733 403.158 34.76C403.702 34.5467 404.363 34.44 405.142 34.44L404.854 35.928C404.758 35.9173 404.625 35.912 404.454 35.912C402.694 35.912 401.627 36.8613 401.254 38.76L400.406 43H398.87L400.55 34.52H402.022L401.782 35.784ZM416.797 31.128L414.429 43H412.957L413.165 41.96C412.781 42.3227 412.333 42.6053 411.821 42.808C411.32 43 410.77 43.096 410.173 43.096C409.448 43.096 408.802 42.952 408.237 42.664C407.672 42.3653 407.229 41.9387 406.909 41.384C406.589 40.8293 406.429 40.1787 406.429 39.432C406.429 38.472 406.637 37.6133 407.053 36.856C407.469 36.0987 408.04 35.5067 408.765 35.08C409.501 34.6533 410.322 34.44 411.229 34.44C411.954 34.44 412.578 34.5733 413.101 34.84C413.634 35.096 414.034 35.4747 414.301 35.976L415.261 31.128H416.797ZM410.509 41.752C411.138 41.752 411.704 41.6027 412.205 41.304C412.717 40.9947 413.112 40.568 413.389 40.024C413.677 39.48 413.821 38.8613 413.821 38.168C413.821 37.4107 413.602 36.824 413.165 36.408C412.728 35.992 412.104 35.784 411.293 35.784C410.664 35.784 410.098 35.9387 409.597 36.248C409.096 36.5467 408.701 36.968 408.413 37.512C408.125 38.056 407.981 38.6747 407.981 39.368C407.981 40.1147 408.2 40.7013 408.637 41.128C409.085 41.544 409.709 41.752 410.509 41.752ZM419.159 40.904C419.447 40.904 419.687 41.0053 419.879 41.208C420.071 41.4 420.167 41.6453 420.167 41.944C420.167 42.104 420.14 42.2587 420.087 42.408C420.034 42.5573 419.938 42.744 419.799 42.968L418.455 45.368H417.447L418.535 42.968C418.375 42.8827 418.247 42.76 418.151 42.6C418.066 42.44 418.023 42.264 418.023 42.072C418.023 41.7307 418.13 41.4533 418.343 41.24C418.567 41.016 418.839 40.904 419.159 40.904ZM434.889 34.44C435.86 34.44 436.612 34.6853 437.145 35.176C437.689 35.6667 437.961 36.36 437.961 37.256C437.961 37.5653 437.929 37.896 437.865 38.248L436.921 43H435.385L436.329 38.248C436.382 37.96 436.409 37.7253 436.409 37.544C436.409 36.9893 436.244 36.5627 435.913 36.264C435.582 35.9653 435.092 35.816 434.441 35.816C433.609 35.816 432.921 36.0453 432.377 36.504C431.844 36.952 431.486 37.624 431.305 38.52L430.409 43H428.873L431.241 31.128H432.777L431.897 35.512C432.654 34.7973 433.652 34.44 434.889 34.44ZM444.979 43.096C444.179 43.096 443.48 42.9467 442.883 42.648C442.285 42.3387 441.821 41.9067 441.491 41.352C441.16 40.7973 440.995 40.1573 440.995 39.432C440.995 38.4827 441.208 37.6293 441.635 36.872C442.061 36.1147 442.653 35.5227 443.411 35.096C444.168 34.6587 445.021 34.44 445.971 34.44C446.771 34.44 447.469 34.5893 448.067 34.888C448.664 35.1867 449.123 35.6133 449.443 36.168C449.773 36.712 449.939 37.352 449.939 38.088C449.939 39.0373 449.725 39.896 449.299 40.664C448.872 41.4213 448.28 42.0187 447.523 42.456C446.776 42.8827 445.928 43.096 444.979 43.096ZM445.075 41.752C445.704 41.752 446.269 41.6027 446.771 41.304C447.283 40.9947 447.677 40.568 447.955 40.024C448.243 39.48 448.387 38.8613 448.387 38.168C448.387 37.4107 448.168 36.824 447.731 36.408C447.293 35.992 446.669 35.784 445.859 35.784C445.229 35.784 444.664 35.9387 444.163 36.248C443.661 36.5467 443.267 36.968 442.979 37.512C442.691 38.056 442.547 38.6747 442.547 39.368C442.547 40.1147 442.765 40.7013 443.203 41.128C443.651 41.544 444.275 41.752 445.075 41.752ZM466.724 34.52L461.972 43H460.468L459.172 36.584L455.492 43H454.02L452.404 34.52H453.796L455.044 41.24L458.884 34.52H460.196L461.476 41.24L465.268 34.52H466.724ZM469.008 39.24V39.336C469.008 40.1253 469.232 40.728 469.68 41.144C470.128 41.5493 470.8 41.752 471.696 41.752C472.219 41.752 472.709 41.6667 473.168 41.496C473.627 41.3147 474.011 41.0747 474.32 40.776L474.976 41.88C474.56 42.264 474.053 42.5627 473.456 42.776C472.859 42.9893 472.229 43.096 471.568 43.096C470.736 43.096 470.016 42.9467 469.408 42.648C468.8 42.3493 468.331 41.9227 468 41.368C467.669 40.8133 467.504 40.1627 467.504 39.416C467.504 38.4667 467.707 37.6133 468.112 36.856C468.528 36.0987 469.099 35.5067 469.824 35.08C470.56 34.6533 471.381 34.44 472.288 34.44C473.44 34.44 474.357 34.7707 475.04 35.432C475.733 36.0827 476.08 36.9733 476.08 38.104C476.08 38.4453 476.043 38.824 475.968 39.24H469.008ZM472.224 35.72C471.467 35.72 470.816 35.9333 470.272 36.36C469.728 36.7867 469.36 37.3733 469.168 38.12H474.64C474.683 37.3627 474.48 36.776 474.032 36.36C473.595 35.9333 472.992 35.72 472.224 35.72ZM487.529 34.52L482.137 43H480.569L478.537 34.52H480.073L481.657 41.32L485.977 34.52H487.529ZM489.736 39.24V39.336C489.736 40.1253 489.96 40.728 490.408 41.144C490.856 41.5493 491.528 41.752 492.424 41.752C492.947 41.752 493.437 41.6667 493.896 41.496C494.355 41.3147 494.739 41.0747 495.048 40.776L495.704 41.88C495.288 42.264 494.781 42.5627 494.184 42.776C493.587 42.9893 492.957 43.096 492.296 43.096C491.464 43.096 490.744 42.9467 490.136 42.648C489.528 42.3493 489.059 41.9227 488.728 41.368C488.397 40.8133 488.232 40.1627 488.232 39.416C488.232 38.4667 488.435 37.6133 488.84 36.856C489.256 36.0987 489.827 35.5067 490.552 35.08C491.288 34.6533 492.109 34.44 493.016 34.44C494.168 34.44 495.085 34.7707 495.768 35.432C496.461 36.0827 496.808 36.9733 496.808 38.104C496.808 38.4453 496.771 38.824 496.696 39.24H489.736ZM492.952 35.72C492.195 35.72 491.544 35.9333 491 36.36C490.456 36.7867 490.088 37.3733 489.896 38.12H495.368C495.411 37.3627 495.208 36.776 494.76 36.36C494.323 35.9333 493.72 35.72 492.952 35.72ZM502.141 35.784C502.515 35.3147 502.973 34.9733 503.517 34.76C504.061 34.5467 504.723 34.44 505.501 34.44L505.213 35.928C505.117 35.9173 504.984 35.912 504.813 35.912C503.053 35.912 501.987 36.8613 501.613 38.76L500.765 43H499.229L500.909 34.52H502.381L502.141 35.784ZM514.169 34.52H515.705L514.025 43H512.489L514.169 34.52ZM515.385 32.888C515.107 32.888 514.878 32.7973 514.697 32.616C514.515 32.4347 514.425 32.216 514.425 31.96C514.425 31.6613 514.526 31.4107 514.729 31.208C514.942 30.9947 515.209 30.888 515.529 30.888C515.806 30.888 516.035 30.9787 516.217 31.16C516.409 31.3307 516.505 31.5387 516.505 31.784C516.505 32.1147 516.398 32.3813 516.185 32.584C515.982 32.7867 515.715 32.888 515.385 32.888ZM520.429 40.296C520.397 40.456 520.381 40.6053 520.381 40.744C520.381 41.0853 520.472 41.3467 520.653 41.528C520.845 41.7093 521.128 41.8 521.501 41.8C521.949 41.8 522.355 41.6667 522.717 41.4L523.037 42.568C522.525 42.92 521.869 43.096 521.069 43.096C520.397 43.096 519.853 42.9093 519.437 42.536C519.032 42.152 518.829 41.6293 518.829 40.968C518.829 40.744 518.851 40.5307 518.893 40.328L519.805 35.784H518.365L518.605 34.52H520.061L520.429 32.664H521.965L521.597 34.52H524.029L523.773 35.784H521.341L520.429 40.296ZM533.751 40.296C533.719 40.456 533.703 40.6053 533.703 40.744C533.703 41.0853 533.794 41.3467 533.975 41.528C534.167 41.7093 534.45 41.8 534.823 41.8C535.271 41.8 535.677 41.6667 536.039 41.4L536.359 42.568C535.847 42.92 535.191 43.096 534.391 43.096C533.719 43.096 533.175 42.9093 532.759 42.536C532.354 42.152 532.151 41.6293 532.151 40.968C532.151 40.744 532.173 40.5307 532.215 40.328L533.127 35.784H531.687L531.927 34.52H533.383L533.751 32.664H535.287L534.919 34.52H537.351L537.095 35.784H534.663L533.751 40.296ZM542.991 43.096C542.191 43.096 541.492 42.9467 540.895 42.648C540.298 42.3387 539.834 41.9067 539.503 41.352C539.172 40.7973 539.007 40.1573 539.007 39.432C539.007 38.4827 539.22 37.6293 539.647 36.872C540.074 36.1147 540.666 35.5227 541.423 35.096C542.18 34.6587 543.034 34.44 543.983 34.44C544.783 34.44 545.482 34.5893 546.079 34.888C546.676 35.1867 547.135 35.6133 547.455 36.168C547.786 36.712 547.951 37.352 547.951 38.088C547.951 39.0373 547.738 39.896 547.311 40.664C546.884 41.4213 546.292 42.0187 545.535 42.456C544.788 42.8827 543.94 43.096 542.991 43.096ZM543.087 41.752C543.716 41.752 544.282 41.6027 544.783 41.304C545.295 40.9947 545.69 40.568 545.967 40.024C546.255 39.48 546.399 38.8613 546.399 38.168C546.399 37.4107 546.18 36.824 545.743 36.408C545.306 35.992 544.682 35.784 543.871 35.784C543.242 35.784 542.676 35.9387 542.175 36.248C541.674 36.5467 541.279 36.968 540.991 37.512C540.703 38.056 540.559 38.6747 540.559 39.368C540.559 40.1147 540.778 40.7013 541.215 41.128C541.663 41.544 542.287 41.752 543.087 41.752ZM554.347 43.096C553.547 43.096 552.849 42.9467 552.251 42.648C551.654 42.3387 551.19 41.9067 550.859 41.352C550.529 40.7973 550.363 40.1573 550.363 39.432C550.363 38.4827 550.577 37.6293 551.003 36.872C551.43 36.1147 552.022 35.5227 552.779 35.096C553.537 34.6587 554.39 34.44 555.339 34.44C556.139 34.44 556.838 34.5893 557.435 34.888C558.033 35.1867 558.491 35.6133 558.811 36.168C559.142 36.712 559.307 37.352 559.307 38.088C559.307 39.0373 559.094 39.896 558.667 40.664C558.241 41.4213 557.649 42.0187 556.891 42.456C556.145 42.8827 555.297 43.096 554.347 43.096ZM554.443 41.752C555.073 41.752 555.638 41.6027 556.139 41.304C556.651 40.9947 557.046 40.568 557.323 40.024C557.611 39.48 557.755 38.8613 557.755 38.168C557.755 37.4107 557.537 36.824 557.099 36.408C556.662 35.992 556.038 35.784 555.227 35.784C554.598 35.784 554.033 35.9387 553.531 36.248C553.03 36.5467 552.635 36.968 552.347 37.512C552.059 38.056 551.915 38.6747 551.915 39.368C551.915 40.1147 552.134 40.7013 552.571 41.128C553.019 41.544 553.643 41.752 554.443 41.752ZM567.032 38.088L570.056 43H568.28L565.832 39L563.752 40.616L563.272 43H561.736L564.104 31.128H565.64L564.136 38.68L569.4 34.52H571.56L567.032 38.088ZM590.199 34.44C591.159 34.44 591.906 34.6853 592.439 35.176C592.983 35.656 593.255 36.344 593.255 37.24C593.255 37.4853 593.218 37.8213 593.143 38.248L592.199 43H590.663L591.607 38.248C591.661 37.9493 591.687 37.704 591.687 37.512C591.687 36.9573 591.533 36.536 591.223 36.248C590.914 35.96 590.445 35.816 589.815 35.816C589.026 35.816 588.375 36.04 587.863 36.488C587.362 36.9253 587.021 37.5867 586.839 38.472L585.927 43H584.391L585.351 38.248C585.405 37.96 585.431 37.72 585.431 37.528C585.431 36.9733 585.271 36.552 584.951 36.264C584.642 35.9653 584.173 35.816 583.543 35.816C582.754 35.816 582.103 36.04 581.591 36.488C581.09 36.936 580.749 37.6133 580.567 38.52L579.671 43H578.135L579.815 34.52H581.287L581.079 35.576C581.826 34.8187 582.807 34.44 584.023 34.44C584.685 34.44 585.25 34.568 585.719 34.824C586.189 35.08 586.53 35.4533 586.743 35.944C587.607 34.9413 588.759 34.44 590.199 34.44ZM597.777 39.24V39.336C597.777 40.1253 598.001 40.728 598.449 41.144C598.897 41.5493 599.569 41.752 600.465 41.752C600.987 41.752 601.478 41.6667 601.937 41.496C602.395 41.3147 602.779 41.0747 603.089 40.776L603.745 41.88C603.329 42.264 602.822 42.5627 602.225 42.776C601.627 42.9893 600.998 43.096 600.337 43.096C599.505 43.096 598.785 42.9467 598.177 42.648C597.569 42.3493 597.099 41.9227 596.769 41.368C596.438 40.8133 596.273 40.1627 596.273 39.416C596.273 38.4667 596.475 37.6133 596.881 36.856C597.297 36.0987 597.867 35.5067 598.593 35.08C599.329 34.6533 600.15 34.44 601.057 34.44C602.209 34.44 603.126 34.7707 603.809 35.432C604.502 36.0827 604.849 36.9733 604.849 38.104C604.849 38.4453 604.811 38.824 604.737 39.24H597.777ZM600.993 35.72C600.235 35.72 599.585 35.9333 599.041 36.36C598.497 36.7867 598.129 37.3733 597.937 38.12H603.409C603.451 37.3627 603.249 36.776 602.801 36.36C602.363 35.9333 601.761 35.72 600.993 35.72ZM622.431 34.52L620.751 43H619.279L619.487 41.96C619.103 42.3227 618.655 42.6053 618.143 42.808C617.641 43 617.092 43.096 616.495 43.096C615.769 43.096 615.124 42.952 614.559 42.664C613.993 42.3653 613.551 41.9387 613.231 41.384C612.911 40.8293 612.751 40.1787 612.751 39.432C612.751 38.472 612.959 37.6133 613.375 36.856C613.791 36.0987 614.361 35.5067 615.087 35.08C615.823 34.6533 616.644 34.44 617.551 34.44C618.276 34.44 618.895 34.568 619.407 34.824C619.929 35.08 620.329 35.4587 620.607 35.96L620.895 34.52H622.431ZM616.831 41.752C617.46 41.752 618.025 41.6027 618.527 41.304C619.039 40.9947 619.433 40.568 619.711 40.024C619.999 39.48 620.143 38.8613 620.143 38.168C620.143 37.4107 619.924 36.824 619.487 36.408C619.049 35.992 618.425 35.784 617.615 35.784C616.985 35.784 616.42 35.9387 615.919 36.248C615.417 36.5467 615.023 36.968 614.735 37.512C614.447 38.056 614.303 38.6747 614.303 39.368C614.303 40.1147 614.521 40.7013 614.959 41.128C615.407 41.544 616.031 41.752 616.831 41.752ZM137.637 56.52L132.885 65H131.381L130.085 58.584L126.405 65H124.933L123.317 56.52H124.709L125.957 63.24L129.797 56.52H131.109L132.389 63.24L136.181 56.52H137.637ZM144.683 56.44C145.653 56.44 146.405 56.6853 146.939 57.176C147.483 57.6667 147.755 58.36 147.755 59.256C147.755 59.5653 147.723 59.896 147.659 60.248L146.715 65H145.179L146.123 60.248C146.176 59.96 146.203 59.7253 146.203 59.544C146.203 58.9893 146.037 58.5627 145.707 58.264C145.376 57.9653 144.885 57.816 144.235 57.816C143.403 57.816 142.715 58.0453 142.171 58.504C141.637 58.952 141.28 59.624 141.099 60.52L140.203 65H138.667L141.035 53.128H142.571L141.691 57.512C142.448 56.7973 143.445 56.44 144.683 56.44ZM152.437 56.52H153.973L152.293 65H150.757L152.437 56.52ZM153.653 54.888C153.376 54.888 153.147 54.7973 152.965 54.616C152.784 54.4347 152.693 54.216 152.693 53.96C152.693 53.6613 152.795 53.4107 152.997 53.208C153.211 52.9947 153.477 52.888 153.797 52.888C154.075 52.888 154.304 52.9787 154.485 53.16C154.677 53.3307 154.773 53.5387 154.773 53.784C154.773 54.1147 154.667 54.3813 154.453 54.584C154.251 54.7867 153.984 54.888 153.653 54.888ZM158.794 53.128H160.33L157.962 65H156.426L158.794 53.128ZM163.583 61.24V61.336C163.583 62.1253 163.807 62.728 164.255 63.144C164.703 63.5493 165.375 63.752 166.271 63.752C166.794 63.752 167.284 63.6667 167.743 63.496C168.202 63.3147 168.586 63.0747 168.895 62.776L169.551 63.88C169.135 64.264 168.628 64.5627 168.031 64.776C167.434 64.9893 166.804 65.096 166.143 65.096C165.311 65.096 164.591 64.9467 163.983 64.648C163.375 64.3493 162.906 63.9227 162.575 63.368C162.244 62.8133 162.079 62.1627 162.079 61.416C162.079 60.4667 162.282 59.6133 162.687 58.856C163.103 58.0987 163.674 57.5067 164.399 57.08C165.135 56.6533 165.956 56.44 166.863 56.44C168.015 56.44 168.932 56.7707 169.615 57.432C170.308 58.0827 170.655 58.9733 170.655 60.104C170.655 60.4453 170.618 60.824 170.543 61.24H163.583ZM166.799 57.72C166.042 57.72 165.391 57.9333 164.847 58.36C164.303 58.7867 163.935 59.3733 163.743 60.12H169.215C169.258 59.3627 169.055 58.776 168.607 58.36C168.17 57.9333 167.567 57.72 166.799 57.72ZM180.845 62.296C180.813 62.456 180.797 62.6053 180.797 62.744C180.797 63.0853 180.888 63.3467 181.069 63.528C181.261 63.7093 181.544 63.8 181.917 63.8C182.365 63.8 182.77 63.6667 183.133 63.4L183.453 64.568C182.941 64.92 182.285 65.096 181.485 65.096C180.813 65.096 180.269 64.9093 179.853 64.536C179.448 64.152 179.245 63.6293 179.245 62.968C179.245 62.744 179.266 62.5307 179.309 62.328L180.221 57.784H178.781L179.021 56.52H180.477L180.845 54.664H182.381L182.013 56.52H184.445L184.189 57.784H181.757L180.845 62.296ZM190.085 65.096C189.285 65.096 188.586 64.9467 187.989 64.648C187.391 64.3387 186.927 63.9067 186.597 63.352C186.266 62.7973 186.101 62.1573 186.101 61.432C186.101 60.4827 186.314 59.6293 186.741 58.872C187.167 58.1147 187.759 57.5227 188.517 57.096C189.274 56.6587 190.127 56.44 191.077 56.44C191.877 56.44 192.575 56.5893 193.173 56.888C193.77 57.1867 194.229 57.6133 194.549 58.168C194.879 58.712 195.045 59.352 195.045 60.088C195.045 61.0373 194.831 61.896 194.405 62.664C193.978 63.4213 193.386 64.0187 192.629 64.456C191.882 64.8827 191.034 65.096 190.085 65.096ZM190.181 63.752C190.81 63.752 191.375 63.6027 191.877 63.304C192.389 62.9947 192.783 62.568 193.061 62.024C193.349 61.48 193.493 60.8613 193.493 60.168C193.493 59.4107 193.274 58.824 192.837 58.408C192.399 57.992 191.775 57.784 190.965 57.784C190.335 57.784 189.77 57.9387 189.269 58.248C188.767 58.5467 188.373 58.968 188.085 59.512C187.797 60.056 187.653 60.6747 187.653 61.368C187.653 62.1147 187.871 62.7013 188.309 63.128C188.757 63.544 189.381 63.752 190.181 63.752ZM212.554 56.52L210.874 65H209.402L209.61 63.912C209.226 64.3067 208.773 64.6053 208.25 64.808C207.738 65 207.178 65.096 206.57 65.096C205.631 65.096 204.89 64.8453 204.346 64.344C203.802 63.8427 203.53 63.144 203.53 62.248C203.53 61.9493 203.562 61.624 203.626 61.272L204.57 56.52H206.106L205.162 61.288C205.109 61.576 205.082 61.816 205.082 62.008C205.082 62.5627 205.242 62.9893 205.562 63.288C205.893 63.576 206.378 63.72 207.018 63.72C207.829 63.72 208.501 63.4907 209.034 63.032C209.578 62.5733 209.941 61.9013 210.122 61.016L211.018 56.52H212.554ZM221.014 56.44C221.985 56.44 222.737 56.6853 223.27 57.176C223.814 57.6667 224.086 58.36 224.086 59.256C224.086 59.5653 224.054 59.896 223.99 60.248L223.046 65H221.51L222.454 60.248C222.507 59.96 222.534 59.7253 222.534 59.544C222.534 58.9893 222.369 58.5627 222.038 58.264C221.707 57.9653 221.217 57.816 220.566 57.816C219.734 57.816 219.046 58.0453 218.502 58.504C217.969 58.952 217.611 59.624 217.43 60.52L216.534 65H214.998L216.678 56.52H218.15L217.942 57.608C218.71 56.8293 219.734 56.44 221.014 56.44ZM237.488 53.128L235.12 65H233.648L233.856 63.96C233.472 64.3227 233.024 64.6053 232.512 64.808C232.01 65 231.461 65.096 230.864 65.096C230.138 65.096 229.493 64.952 228.928 64.664C228.362 64.3653 227.92 63.9387 227.6 63.384C227.28 62.8293 227.12 62.1787 227.12 61.432C227.12 60.472 227.328 59.6133 227.744 58.856C228.16 58.0987 228.73 57.5067 229.456 57.08C230.192 56.6533 231.013 56.44 231.92 56.44C232.645 56.44 233.269 56.5733 233.792 56.84C234.325 57.096 234.725 57.4747 234.992 57.976L235.952 53.128H237.488ZM231.2 63.752C231.829 63.752 232.394 63.6027 232.896 63.304C233.408 62.9947 233.802 62.568 234.08 62.024C234.368 61.48 234.512 60.8613 234.512 60.168C234.512 59.4107 234.293 58.824 233.856 58.408C233.418 57.992 232.794 57.784 231.984 57.784C231.354 57.784 230.789 57.9387 230.288 58.248C229.786 58.5467 229.392 58.968 229.104 59.512C228.816 60.056 228.672 60.6747 228.672 61.368C228.672 62.1147 228.89 62.7013 229.328 63.128C229.776 63.544 230.4 63.752 231.2 63.752ZM240.73 61.24V61.336C240.73 62.1253 240.954 62.728 241.402 63.144C241.85 63.5493 242.522 63.752 243.418 63.752C243.94 63.752 244.431 63.6667 244.89 63.496C245.348 63.3147 245.732 63.0747 246.042 62.776L246.698 63.88C246.282 64.264 245.775 64.5627 245.178 64.776C244.58 64.9893 243.951 65.096 243.29 65.096C242.458 65.096 241.738 64.9467 241.13 64.648C240.522 64.3493 240.052 63.9227 239.722 63.368C239.391 62.8133 239.226 62.1627 239.226 61.416C239.226 60.4667 239.428 59.6133 239.834 58.856C240.25 58.0987 240.82 57.5067 241.546 57.08C242.282 56.6533 243.103 56.44 244.01 56.44C245.162 56.44 246.079 56.7707 246.762 57.432C247.455 58.0827 247.802 58.9733 247.802 60.104C247.802 60.4453 247.764 60.824 247.69 61.24H240.73ZM243.946 57.72C243.188 57.72 242.538 57.9333 241.994 58.36C241.45 58.7867 241.082 59.3733 240.89 60.12H246.362C246.404 59.3627 246.202 58.776 245.754 58.36C245.316 57.9333 244.714 57.72 243.946 57.72ZM253.135 57.784C253.508 57.3147 253.967 56.9733 254.511 56.76C255.055 56.5467 255.716 56.44 256.495 56.44L256.207 57.928C256.111 57.9173 255.978 57.912 255.807 57.912C254.047 57.912 252.98 58.8613 252.607 60.76L251.759 65H250.223L251.903 56.52H253.375L253.135 57.784ZM260.611 65.096C259.907 65.096 259.235 65.0053 258.595 64.824C257.965 64.6427 257.475 64.408 257.123 64.12L257.811 62.904C258.141 63.1707 258.568 63.384 259.091 63.544C259.624 63.6933 260.179 63.768 260.755 63.768C261.48 63.768 262.029 63.6613 262.403 63.448C262.787 63.224 262.979 62.9147 262.979 62.52C262.979 62.2 262.824 61.9707 262.515 61.832C262.216 61.6933 261.747 61.5547 261.107 61.416C260.509 61.288 260.019 61.16 259.635 61.032C259.261 60.8933 258.941 60.68 258.675 60.392C258.408 60.0933 258.275 59.6933 258.275 59.192C258.275 58.6373 258.429 58.152 258.739 57.736C259.059 57.32 259.507 57 260.083 56.776C260.669 56.552 261.347 56.44 262.115 56.44C262.68 56.44 263.229 56.5093 263.763 56.648C264.296 56.7867 264.733 56.9733 265.075 57.208L264.467 58.424C264.136 58.2 263.752 58.0347 263.315 57.928C262.877 57.8107 262.429 57.752 261.971 57.752C261.277 57.752 260.744 57.8693 260.371 58.104C259.997 58.328 259.811 58.632 259.811 59.016C259.811 59.3573 259.965 59.6027 260.275 59.752C260.584 59.8907 261.064 60.0293 261.715 60.168C262.301 60.296 262.781 60.424 263.155 60.552C263.528 60.68 263.843 60.888 264.099 61.176C264.365 61.464 264.499 61.8533 264.499 62.344C264.499 63.208 264.141 63.8853 263.427 64.376C262.723 64.856 261.784 65.096 260.611 65.096ZM269.426 62.296C269.394 62.456 269.378 62.6053 269.378 62.744C269.378 63.0853 269.469 63.3467 269.65 63.528C269.842 63.7093 270.125 63.8 270.498 63.8C270.946 63.8 271.352 63.6667 271.714 63.4L272.034 64.568C271.522 64.92 270.866 65.096 270.066 65.096C269.394 65.096 268.85 64.9093 268.434 64.536C268.029 64.152 267.826 63.6293 267.826 62.968C267.826 62.744 267.848 62.5307 267.89 62.328L268.802 57.784H267.362L267.602 56.52H269.058L269.426 54.664H270.962L270.594 56.52H273.026L272.77 57.784H270.338L269.426 62.296ZM284.362 56.52L282.682 65H281.21L281.418 63.96C281.034 64.3227 280.586 64.6053 280.074 64.808C279.573 65 279.023 65.096 278.426 65.096C277.701 65.096 277.055 64.952 276.49 64.664C275.925 64.3653 275.482 63.9387 275.162 63.384C274.842 62.8293 274.682 62.1787 274.682 61.432C274.682 60.472 274.89 59.6133 275.306 58.856C275.722 58.0987 276.293 57.5067 277.018 57.08C277.754 56.6533 278.575 56.44 279.482 56.44C280.207 56.44 280.826 56.568 281.338 56.824C281.861 57.08 282.261 57.4587 282.538 57.96L282.826 56.52H284.362ZM278.762 63.752C279.391 63.752 279.957 63.6027 280.458 63.304C280.97 62.9947 281.365 62.568 281.642 62.024C281.93 61.48 282.074 60.8613 282.074 60.168C282.074 59.4107 281.855 58.824 281.418 58.408C280.981 57.992 280.357 57.784 279.546 57.784C278.917 57.784 278.351 57.9387 277.85 58.248C277.349 58.5467 276.954 58.968 276.666 59.512C276.378 60.056 276.234 60.6747 276.234 61.368C276.234 62.1147 276.453 62.7013 276.89 63.128C277.338 63.544 277.962 63.752 278.762 63.752ZM292.82 56.44C293.791 56.44 294.543 56.6853 295.076 57.176C295.62 57.6667 295.892 58.36 295.892 59.256C295.892 59.5653 295.86 59.896 295.796 60.248L294.852 65H293.316L294.26 60.248C294.314 59.96 294.34 59.7253 294.34 59.544C294.34 58.9893 294.175 58.5627 293.844 58.264C293.514 57.9653 293.023 57.816 292.372 57.816C291.54 57.816 290.852 58.0453 290.308 58.504C289.775 58.952 289.418 59.624 289.236 60.52L288.34 65H286.804L288.484 56.52H289.956L289.748 57.608C290.516 56.8293 291.54 56.44 292.82 56.44ZM309.294 53.128L306.926 65H305.454L305.662 63.96C305.278 64.3227 304.83 64.6053 304.318 64.808C303.816 65 303.267 65.096 302.67 65.096C301.944 65.096 301.299 64.952 300.734 64.664C300.168 64.3653 299.726 63.9387 299.406 63.384C299.086 62.8293 298.926 62.1787 298.926 61.432C298.926 60.472 299.134 59.6133 299.55 58.856C299.966 58.0987 300.536 57.5067 301.262 57.08C301.998 56.6533 302.819 56.44 303.726 56.44C304.451 56.44 305.075 56.5733 305.598 56.84C306.131 57.096 306.531 57.4747 306.798 57.976L307.758 53.128H309.294ZM303.006 63.752C303.635 63.752 304.2 63.6027 304.702 63.304C305.214 62.9947 305.608 62.568 305.886 62.024C306.174 61.48 306.318 60.8613 306.318 60.168C306.318 59.4107 306.099 58.824 305.662 58.408C305.224 57.992 304.6 57.784 303.79 57.784C303.16 57.784 302.595 57.9387 302.094 58.248C301.592 58.5467 301.198 58.968 300.91 59.512C300.622 60.056 300.478 60.6747 300.478 61.368C300.478 62.1147 300.696 62.7013 301.134 63.128C301.582 63.544 302.206 63.752 303.006 63.752ZM331.137 56.52L326.385 65H324.881L323.585 58.584L319.905 65H318.433L316.817 56.52H318.209L319.457 63.24L323.297 56.52H324.609L325.889 63.24L329.681 56.52H331.137ZM338.183 56.44C339.153 56.44 339.905 56.6853 340.439 57.176C340.983 57.6667 341.255 58.36 341.255 59.256C341.255 59.5653 341.223 59.896 341.159 60.248L340.215 65H338.679L339.623 60.248C339.676 59.96 339.703 59.7253 339.703 59.544C339.703 58.9893 339.537 58.5627 339.207 58.264C338.876 57.9653 338.385 57.816 337.735 57.816C336.903 57.816 336.215 58.0453 335.671 58.504C335.137 58.952 334.78 59.624 334.599 60.52L333.703 65H332.167L334.535 53.128H336.071L335.191 57.512C335.948 56.7973 336.945 56.44 338.183 56.44ZM353.968 56.52L352.288 65H350.816L351.024 63.96C350.64 64.3227 350.192 64.6053 349.68 64.808C349.179 65 348.63 65.096 348.032 65.096C347.307 65.096 346.662 64.952 346.096 64.664C345.531 64.3653 345.088 63.9387 344.768 63.384C344.448 62.8293 344.288 62.1787 344.288 61.432C344.288 60.472 344.496 59.6133 344.912 58.856C345.328 58.0987 345.899 57.5067 346.624 57.08C347.36 56.6533 348.182 56.44 349.088 56.44C349.814 56.44 350.432 56.568 350.944 56.824C351.467 57.08 351.867 57.4587 352.144 57.96L352.432 56.52H353.968ZM348.368 63.752C348.998 63.752 349.563 63.6027 350.064 63.304C350.576 62.9947 350.971 62.568 351.248 62.024C351.536 61.48 351.68 60.8613 351.68 60.168C351.68 59.4107 351.462 58.824 351.024 58.408C350.587 57.992 349.963 57.784 349.152 57.784C348.523 57.784 347.958 57.9387 347.456 58.248C346.955 58.5467 346.56 58.968 346.272 59.512C345.984 60.056 345.84 60.6747 345.84 61.368C345.84 62.1147 346.059 62.7013 346.496 63.128C346.944 63.544 347.568 63.752 348.368 63.752ZM358.682 62.296C358.65 62.456 358.634 62.6053 358.634 62.744C358.634 63.0853 358.725 63.3467 358.906 63.528C359.098 63.7093 359.381 63.8 359.754 63.8C360.202 63.8 360.608 63.6667 360.97 63.4L361.29 64.568C360.778 64.92 360.122 65.096 359.322 65.096C358.65 65.096 358.106 64.9093 357.69 64.536C357.285 64.152 357.082 63.6293 357.082 62.968C357.082 62.744 357.104 62.5307 357.146 62.328L358.058 57.784H356.618L356.858 56.52H358.314L358.682 54.664H360.218L359.85 56.52H362.282L362.026 57.784H359.594L358.682 62.296ZM380.484 57.08C380.484 58.1787 380.191 59.096 379.604 59.832C379.018 60.568 378.191 61.0747 377.124 61.352L379.172 65H377.476L375.524 61.576H375.22H372.228L371.556 65H369.94L372.18 53.8H376.356C377.668 53.8 378.682 54.088 379.396 54.664C380.122 55.2293 380.484 56.0347 380.484 57.08ZM375.268 60.216C376.42 60.216 377.311 59.96 377.94 59.448C378.57 58.936 378.884 58.1947 378.884 57.224C378.884 56.552 378.655 56.0453 378.196 55.704C377.738 55.3627 377.076 55.192 376.212 55.192H373.508L372.5 60.216H375.268ZM384.237 56.52H385.773L384.093 65H382.557L384.237 56.52ZM385.453 54.888C385.176 54.888 384.947 54.7973 384.765 54.616C384.584 54.4347 384.493 54.216 384.493 53.96C384.493 53.6613 384.595 53.4107 384.797 53.208C385.011 52.9947 385.277 52.888 385.597 52.888C385.875 52.888 386.104 52.9787 386.285 53.16C386.477 53.3307 386.573 53.5387 386.573 53.784C386.573 54.1147 386.467 54.3813 386.253 54.584C386.051 54.7867 385.784 54.888 385.453 54.888ZM394.162 56.44C394.887 56.44 395.533 56.5893 396.098 56.888C396.663 57.176 397.106 57.5973 397.426 58.152C397.746 58.696 397.906 59.3413 397.906 60.088C397.906 61.048 397.698 61.9067 397.282 62.664C396.866 63.4213 396.29 64.0187 395.554 64.456C394.829 64.8827 394.013 65.096 393.106 65.096C392.381 65.096 391.757 64.968 391.234 64.712C390.711 64.4453 390.311 64.0613 390.034 63.56L389.138 68.104H387.602L389.906 56.52H391.378L391.17 57.576C391.959 56.8187 392.957 56.44 394.162 56.44ZM393.042 63.752C393.671 63.752 394.237 63.6027 394.738 63.304C395.239 62.9947 395.634 62.568 395.922 62.024C396.21 61.48 396.354 60.8613 396.354 60.168C396.354 59.4107 396.135 58.824 395.698 58.408C395.261 57.992 394.637 57.784 393.826 57.784C393.197 57.784 392.626 57.9387 392.114 58.248C391.613 58.5467 391.218 58.968 390.93 59.512C390.653 60.056 390.514 60.6747 390.514 61.368C390.514 62.1147 390.733 62.7013 391.17 63.128C391.618 63.544 392.242 63.752 393.042 63.752ZM406.268 56.44C406.994 56.44 407.639 56.5893 408.204 56.888C408.77 57.176 409.212 57.5973 409.532 58.152C409.852 58.696 410.012 59.3413 410.012 60.088C410.012 61.048 409.804 61.9067 409.388 62.664C408.972 63.4213 408.396 64.0187 407.66 64.456C406.935 64.8827 406.119 65.096 405.212 65.096C404.487 65.096 403.863 64.968 403.34 64.712C402.818 64.4453 402.418 64.0613 402.14 63.56L401.244 68.104H399.708L402.012 56.52H403.484L403.276 57.576C404.066 56.8187 405.063 56.44 406.268 56.44ZM405.148 63.752C405.778 63.752 406.343 63.6027 406.844 63.304C407.346 62.9947 407.74 62.568 408.028 62.024C408.316 61.48 408.46 60.8613 408.46 60.168C408.46 59.4107 408.242 58.824 407.804 58.408C407.367 57.992 406.743 57.784 405.932 57.784C405.303 57.784 404.732 57.9387 404.22 58.248C403.719 58.5467 403.324 58.968 403.036 59.512C402.759 60.056 402.62 60.6747 402.62 61.368C402.62 62.1147 402.839 62.7013 403.276 63.128C403.724 63.544 404.348 63.752 405.148 63.752ZM414.807 53.128H416.343L413.975 65H412.439L414.807 53.128ZM419.595 61.24V61.336C419.595 62.1253 419.819 62.728 420.267 63.144C420.715 63.5493 421.387 63.752 422.283 63.752C422.806 63.752 423.297 63.6667 423.755 63.496C424.214 63.3147 424.598 63.0747 424.907 62.776L425.563 63.88C425.147 64.264 424.641 64.5627 424.043 64.776C423.446 64.9893 422.817 65.096 422.155 65.096C421.323 65.096 420.603 64.9467 419.995 64.648C419.387 64.3493 418.918 63.9227 418.587 63.368C418.257 62.8133 418.091 62.1627 418.091 61.416C418.091 60.4667 418.294 59.6133 418.699 58.856C419.115 58.0987 419.686 57.5067 420.411 57.08C421.147 56.6533 421.969 56.44 422.875 56.44C424.027 56.44 424.945 56.7707 425.627 57.432C426.321 58.0827 426.667 58.9733 426.667 60.104C426.667 60.4453 426.63 60.824 426.555 61.24H419.595ZM422.811 57.72C422.054 57.72 421.403 57.9333 420.859 58.36C420.315 58.7867 419.947 59.3733 419.755 60.12H425.227C425.27 59.3627 425.067 58.776 424.619 58.36C424.182 57.9333 423.579 57.72 422.811 57.72ZM444.249 56.52L442.569 65H441.097L441.305 63.96C440.921 64.3227 440.473 64.6053 439.961 64.808C439.46 65 438.911 65.096 438.313 65.096C437.588 65.096 436.943 64.952 436.377 64.664C435.812 64.3653 435.369 63.9387 435.049 63.384C434.729 62.8293 434.569 62.1787 434.569 61.432C434.569 60.472 434.777 59.6133 435.193 58.856C435.609 58.0987 436.18 57.5067 436.905 57.08C437.641 56.6533 438.463 56.44 439.369 56.44C440.095 56.44 440.713 56.568 441.225 56.824C441.748 57.08 442.148 57.4587 442.425 57.96L442.713 56.52H444.249ZM438.649 63.752C439.279 63.752 439.844 63.6027 440.345 63.304C440.857 62.9947 441.252 62.568 441.529 62.024C441.817 61.48 441.961 60.8613 441.961 60.168C441.961 59.4107 441.743 58.824 441.305 58.408C440.868 57.992 440.244 57.784 439.433 57.784C438.804 57.784 438.239 57.9387 437.737 58.248C437.236 58.5467 436.841 58.968 436.553 59.512C436.265 60.056 436.121 60.6747 436.121 61.368C436.121 62.1147 436.34 62.7013 436.777 63.128C437.225 63.544 437.849 63.752 438.649 63.752ZM450.708 65.096C449.897 65.096 449.188 64.9467 448.58 64.648C447.972 64.3387 447.502 63.912 447.172 63.368C446.841 62.8133 446.676 62.168 446.676 61.432C446.676 60.4827 446.889 59.6293 447.316 58.872C447.742 58.1147 448.334 57.5227 449.092 57.096C449.849 56.6587 450.708 56.44 451.668 56.44C453.342 56.44 454.505 57.0533 455.156 58.28L453.86 59C453.412 58.1893 452.644 57.784 451.556 57.784C450.926 57.784 450.356 57.9387 449.844 58.248C449.342 58.5467 448.948 58.968 448.66 59.512C448.372 60.056 448.228 60.6747 448.228 61.368C448.228 62.1147 448.446 62.7013 448.884 63.128C449.332 63.544 449.961 63.752 450.772 63.752C451.284 63.752 451.758 63.6507 452.196 63.448C452.644 63.2453 453.012 62.9467 453.3 62.552L454.42 63.352C454.025 63.896 453.497 64.3227 452.836 64.632C452.174 64.9413 451.465 65.096 450.708 65.096ZM459.414 62.296C459.382 62.456 459.366 62.6053 459.366 62.744C459.366 63.0853 459.456 63.3467 459.638 63.528C459.83 63.7093 460.112 63.8 460.486 63.8C460.934 63.8 461.339 63.6667 461.702 63.4L462.022 64.568C461.51 64.92 460.854 65.096 460.054 65.096C459.382 65.096 458.838 64.9093 458.422 64.536C458.016 64.152 457.814 63.6293 457.814 62.968C457.814 62.744 457.835 62.5307 457.878 62.328L458.79 57.784H457.35L457.59 56.52H459.046L459.414 54.664H460.95L460.582 56.52H463.014L462.758 57.784H460.326L459.414 62.296ZM474.551 56.52L472.871 65H471.399L471.607 63.912C471.223 64.3067 470.769 64.6053 470.247 64.808C469.735 65 469.175 65.096 468.567 65.096C467.628 65.096 466.887 64.8453 466.343 64.344C465.799 63.8427 465.527 63.144 465.527 62.248C465.527 61.9493 465.559 61.624 465.623 61.272L466.567 56.52H468.103L467.159 61.288C467.105 61.576 467.079 61.816 467.079 62.008C467.079 62.5627 467.239 62.9893 467.559 63.288C467.889 63.576 468.375 63.72 469.015 63.72C469.825 63.72 470.497 63.4907 471.031 63.032C471.575 62.5733 471.937 61.9013 472.119 61.016L473.015 56.52H474.551ZM486.659 56.52L484.979 65H483.507L483.715 63.96C483.331 64.3227 482.883 64.6053 482.371 64.808C481.87 65 481.32 65.096 480.723 65.096C479.998 65.096 479.352 64.952 478.787 64.664C478.222 64.3653 477.779 63.9387 477.459 63.384C477.139 62.8293 476.979 62.1787 476.979 61.432C476.979 60.472 477.187 59.6133 477.603 58.856C478.019 58.0987 478.59 57.5067 479.315 57.08C480.051 56.6533 480.872 56.44 481.779 56.44C482.504 56.44 483.123 56.568 483.635 56.824C484.158 57.08 484.558 57.4587 484.835 57.96L485.123 56.52H486.659ZM481.059 63.752C481.688 63.752 482.254 63.6027 482.755 63.304C483.267 62.9947 483.662 62.568 483.939 62.024C484.227 61.48 484.371 60.8613 484.371 60.168C484.371 59.4107 484.152 58.824 483.715 58.408C483.278 57.992 482.654 57.784 481.843 57.784C481.214 57.784 480.648 57.9387 480.147 58.248C479.646 58.5467 479.251 58.968 478.963 59.512C478.675 60.056 478.531 60.6747 478.531 61.368C478.531 62.1147 478.75 62.7013 479.187 63.128C479.635 63.544 480.259 63.752 481.059 63.752ZM491.469 53.128H493.005L490.637 65H489.101L491.469 53.128ZM497.138 53.128H498.674L496.306 65H494.77L497.138 53.128ZM509.623 56.52L503.607 65.928C503.063 66.7813 502.545 67.3733 502.055 67.704C501.564 68.0347 500.983 68.2 500.311 68.2C499.895 68.2 499.489 68.1307 499.095 67.992C498.7 67.864 498.396 67.6827 498.183 67.448L498.983 66.312C499.367 66.696 499.847 66.888 500.423 66.888C500.785 66.888 501.105 66.792 501.383 66.6C501.66 66.408 501.948 66.0827 502.247 65.624L502.679 64.952L500.631 56.52H502.167L503.799 63.304L508.071 56.52H509.623ZM517.753 56.52H519.289L517.609 65H516.073L517.753 56.52ZM518.969 54.888C518.692 54.888 518.462 54.7973 518.281 54.616C518.1 54.4347 518.009 54.216 518.009 53.96C518.009 53.6613 518.11 53.4107 518.313 53.208C518.526 52.9947 518.793 52.888 519.113 52.888C519.39 52.888 519.62 52.9787 519.801 53.16C519.993 53.3307 520.089 53.5387 520.089 53.784C520.089 54.1147 519.982 54.3813 519.769 54.584C519.566 54.7867 519.3 54.888 518.969 54.888ZM524.414 65.096C523.71 65.096 523.038 65.0053 522.398 64.824C521.768 64.6427 521.278 64.408 520.926 64.12L521.614 62.904C521.944 63.1707 522.371 63.384 522.894 63.544C523.427 63.6933 523.982 63.768 524.558 63.768C525.283 63.768 525.832 63.6613 526.206 63.448C526.59 63.224 526.782 62.9147 526.782 62.52C526.782 62.2 526.627 61.9707 526.318 61.832C526.019 61.6933 525.55 61.5547 524.91 61.416C524.312 61.288 523.822 61.16 523.438 61.032C523.064 60.8933 522.744 60.68 522.478 60.392C522.211 60.0933 522.078 59.6933 522.078 59.192C522.078 58.6373 522.232 58.152 522.542 57.736C522.862 57.32 523.31 57 523.886 56.776C524.472 56.552 525.15 56.44 525.918 56.44C526.483 56.44 527.032 56.5093 527.566 56.648C528.099 56.7867 528.536 56.9733 528.878 57.208L528.27 58.424C527.939 58.2 527.555 58.0347 527.118 57.928C526.68 57.8107 526.232 57.752 525.774 57.752C525.08 57.752 524.547 57.8693 524.174 58.104C523.8 58.328 523.614 58.632 523.614 59.016C523.614 59.3573 523.768 59.6027 524.078 59.752C524.387 59.8907 524.867 60.0293 525.518 60.168C526.104 60.296 526.584 60.424 526.958 60.552C527.331 60.68 527.646 60.888 527.902 61.176C528.168 61.464 528.302 61.8533 528.302 62.344C528.302 63.208 527.944 63.8853 527.23 64.376C526.526 64.856 525.587 65.096 524.414 65.096Z" fill="black"/>
</svg>
