<svg width="651" height="134" viewBox="0 0 651 134" fill="none" xmlns="http://www.w3.org/2000/svg">
<path d="M0 3C0 1.34314 1.34315 0 3 0H648C649.657 0 651 1.34315 651 3V95.6096C651 97.2664 649.657 98.6096 648 98.6096H568.301C567.192 98.6096 566.177 99.2194 565.709 100.224C563.744 104.452 558.963 116.178 561.398 125.685C562.135 128.561 559.611 132.992 556.717 132.328C527.23 125.558 513.329 105.903 509.836 100.187C509.247 99.224 508.22 98.6096 507.092 98.6096H3C1.34315 98.6096 0 97.2664 0 95.6096V3Z" fill="#C9EAE6"/>
<path d="M37.2851 35.192H33.4611L33.7331 33.8H42.9971L42.7091 35.192H38.8851L36.9171 45H35.3331L37.2851 35.192ZM49.5078 36.44C50.4784 36.44 51.2304 36.6853 51.7638 37.176C52.3078 37.6667 52.5798 38.36 52.5798 39.256C52.5798 39.5653 52.5478 39.896 52.4838 40.248L51.5398 45H50.0038L50.9478 40.248C51.0011 39.96 51.0278 39.7253 51.0278 39.544C51.0278 38.9893 50.8624 38.5627 50.5318 38.264C50.2011 37.9653 49.7104 37.816 49.0598 37.816C48.2278 37.816 47.5398 38.0453 46.9958 38.504C46.4624 38.952 46.1051 39.624 45.9238 40.52L45.0278 45H43.4918L45.8598 33.128H47.3958L46.5158 37.512C47.2731 36.7973 48.2704 36.44 49.5078 36.44ZM57.1173 41.24V41.336C57.1173 42.1253 57.3413 42.728 57.7893 43.144C58.2373 43.5493 58.9093 43.752 59.8053 43.752C60.3279 43.752 60.8186 43.6667 61.2773 43.496C61.7359 43.3147 62.1199 43.0747 62.4293 42.776L63.0853 43.88C62.6693 44.264 62.1626 44.5627 61.5653 44.776C60.9679 44.9893 60.3386 45.096 59.6773 45.096C58.8453 45.096 58.1253 44.9467 57.5173 44.648C56.9093 44.3493 56.4399 43.9227 56.1093 43.368C55.7786 42.8133 55.6133 42.1627 55.6133 41.416C55.6133 40.4667 55.8159 39.6133 56.2213 38.856C56.6373 38.0987 57.2079 37.5067 57.9333 37.08C58.6693 36.6533 59.4906 36.44 60.3973 36.44C61.5493 36.44 62.4666 36.7707 63.1493 37.432C63.8426 38.0827 64.1893 38.9733 64.1893 40.104C64.1893 40.4453 64.1519 40.824 64.0773 41.24H57.1173ZM60.3333 37.72C59.5759 37.72 58.9253 37.9333 58.3813 38.36C57.8373 38.7867 57.4693 39.3733 57.2773 40.12H62.7493C62.7919 39.3627 62.5893 38.776 62.1413 38.36C61.7039 37.9333 61.1013 37.72 60.3333 37.72ZM78.0434 36.44C78.7687 36.44 79.414 36.5893 79.9794 36.888C80.5447 37.176 80.9874 37.5973 81.3074 38.152C81.6274 38.696 81.7874 39.3413 81.7874 40.088C81.7874 41.048 81.5794 41.9067 81.1634 42.664C80.7474 43.4213 80.1714 44.0187 79.4354 44.456C78.71 44.8827 77.894 45.096 76.9874 45.096C76.262 45.096 75.638 44.968 75.1154 44.712C74.5927 44.4453 74.1927 44.0613 73.9154 43.56L73.0194 48.104H71.4834L73.7874 36.52H75.2594L75.0514 37.576C75.8407 36.8187 76.838 36.44 78.0434 36.44ZM76.9234 43.752C77.5527 43.752 78.118 43.6027 78.6194 43.304C79.1207 42.9947 79.5154 42.568 79.8034 42.024C80.0914 41.48 80.2354 40.8613 80.2354 40.168C80.2354 39.4107 80.0167 38.824 79.5794 38.408C79.142 37.992 78.518 37.784 77.7074 37.784C77.078 37.784 76.5074 37.9387 75.9954 38.248C75.494 38.5467 75.0994 38.968 74.8114 39.512C74.534 40.056 74.3954 40.6747 74.3954 41.368C74.3954 42.1147 74.614 42.7013 75.0514 43.128C75.4994 43.544 76.1234 43.752 76.9234 43.752ZM87.1256 37.784C87.499 37.3147 87.9576 36.9733 88.5016 36.76C89.0456 36.5467 89.707 36.44 90.4856 36.44L90.1976 37.928C90.1016 37.9173 89.9683 37.912 89.7976 37.912C88.0376 37.912 86.971 38.8613 86.5976 40.76L85.7496 45H84.2136L85.8936 36.52H87.3656L87.1256 37.784ZM93.2766 41.24V41.336C93.2766 42.1253 93.5006 42.728 93.9486 43.144C94.3966 43.5493 95.0686 43.752 95.9646 43.752C96.4873 43.752 96.978 43.6667 97.4366 43.496C97.8953 43.3147 98.2793 43.0747 98.5886 42.776L99.2446 43.88C98.8286 44.264 98.322 44.5627 97.7246 44.776C97.1273 44.9893 96.498 45.096 95.8366 45.096C95.0046 45.096 94.2846 44.9467 93.6766 44.648C93.0686 44.3493 92.5993 43.9227 92.2686 43.368C91.938 42.8133 91.7726 42.1627 91.7726 41.416C91.7726 40.4667 91.9753 39.6133 92.3806 38.856C92.7966 38.0987 93.3673 37.5067 94.0926 37.08C94.8286 36.6533 95.65 36.44 96.5566 36.44C97.7086 36.44 98.626 36.7707 99.3086 37.432C100.002 38.0827 100.349 38.9733 100.349 40.104C100.349 40.4453 100.311 40.824 100.237 41.24H93.2766ZM96.4926 37.72C95.7353 37.72 95.0846 37.9333 94.5406 38.36C93.9966 38.7867 93.6286 39.3733 93.4366 40.12H98.9086C98.9513 39.3627 98.7486 38.776 98.3006 38.36C97.8633 37.9333 97.2606 37.72 96.4926 37.72ZM111.798 36.52L106.406 45H104.838L102.806 36.52H104.342L105.926 43.32L110.246 36.52H111.798ZM114.431 36.52H115.967L114.287 45H112.751L114.431 36.52ZM115.647 34.888C115.37 34.888 115.14 34.7973 114.959 34.616C114.778 34.4347 114.687 34.216 114.687 33.96C114.687 33.6613 114.788 33.4107 114.991 33.208C115.204 32.9947 115.471 32.888 115.791 32.888C116.068 32.888 116.298 32.9787 116.479 33.16C116.671 33.3307 116.767 33.5387 116.767 33.784C116.767 34.1147 116.66 34.3813 116.447 34.584C116.244 34.7867 115.978 34.888 115.647 34.888ZM122.388 45.096C121.588 45.096 120.889 44.9467 120.292 44.648C119.695 44.3387 119.231 43.9067 118.9 43.352C118.569 42.7973 118.404 42.1573 118.404 41.432C118.404 40.4827 118.617 39.6293 119.044 38.872C119.471 38.1147 120.063 37.5227 120.82 37.096C121.577 36.6587 122.431 36.44 123.38 36.44C124.18 36.44 124.879 36.5893 125.476 36.888C126.073 37.1867 126.532 37.6133 126.852 38.168C127.183 38.712 127.348 39.352 127.348 40.088C127.348 41.0373 127.135 41.896 126.708 42.664C126.281 43.4213 125.689 44.0187 124.932 44.456C124.185 44.8827 123.337 45.096 122.388 45.096ZM122.484 43.752C123.113 43.752 123.679 43.6027 124.18 43.304C124.692 42.9947 125.087 42.568 125.364 42.024C125.652 41.48 125.796 40.8613 125.796 40.168C125.796 39.4107 125.577 38.824 125.14 38.408C124.703 37.992 124.079 37.784 123.268 37.784C122.639 37.784 122.073 37.9387 121.572 38.248C121.071 38.5467 120.676 38.968 120.388 39.512C120.1 40.056 119.956 40.6747 119.956 41.368C119.956 42.1147 120.175 42.7013 120.612 43.128C121.06 43.544 121.684 43.752 122.484 43.752ZM139.36 36.52L137.68 45H136.208L136.416 43.912C136.032 44.3067 135.579 44.6053 135.056 44.808C134.544 45 133.984 45.096 133.376 45.096C132.437 45.096 131.696 44.8453 131.152 44.344C130.608 43.8427 130.336 43.144 130.336 42.248C130.336 41.9493 130.368 41.624 130.432 41.272L131.376 36.52H132.912L131.968 41.288C131.915 41.576 131.888 41.816 131.888 42.008C131.888 42.5627 132.048 42.9893 132.368 43.288C132.699 43.576 133.184 43.72 133.824 43.72C134.635 43.72 135.307 43.4907 135.84 43.032C136.384 42.5733 136.747 41.9013 136.928 41.016L137.824 36.52H139.36ZM144.476 45.096C143.772 45.096 143.1 45.0053 142.46 44.824C141.831 44.6427 141.34 44.408 140.988 44.12L141.676 42.904C142.007 43.1707 142.434 43.384 142.956 43.544C143.49 43.6933 144.044 43.768 144.62 43.768C145.346 43.768 145.895 43.6613 146.268 43.448C146.652 43.224 146.844 42.9147 146.844 42.52C146.844 42.2 146.69 41.9707 146.38 41.832C146.082 41.6933 145.612 41.5547 144.972 41.416C144.375 41.288 143.884 41.16 143.5 41.032C143.127 40.8933 142.807 40.68 142.54 40.392C142.274 40.0933 142.14 39.6933 142.14 39.192C142.14 38.6373 142.295 38.152 142.604 37.736C142.924 37.32 143.372 37 143.948 36.776C144.535 36.552 145.212 36.44 145.98 36.44C146.546 36.44 147.095 36.5093 147.628 36.648C148.162 36.7867 148.599 36.9733 148.94 37.208L148.332 38.424C148.002 38.2 147.618 38.0347 147.18 37.928C146.743 37.8107 146.295 37.752 145.836 37.752C145.143 37.752 144.61 37.8693 144.236 38.104C143.863 38.328 143.676 38.632 143.676 39.016C143.676 39.3573 143.831 39.6027 144.14 39.752C144.45 39.8907 144.93 40.0293 145.58 40.168C146.167 40.296 146.647 40.424 147.02 40.552C147.394 40.68 147.708 40.888 147.964 41.176C148.231 41.464 148.364 41.8533 148.364 42.344C148.364 43.208 148.007 43.8853 147.292 44.376C146.588 44.856 145.65 45.096 144.476 45.096ZM162.453 36.44C163.178 36.44 163.823 36.5893 164.389 36.888C164.954 37.176 165.397 37.5973 165.717 38.152C166.037 38.696 166.197 39.3413 166.197 40.088C166.197 41.048 165.989 41.9067 165.573 42.664C165.157 43.4213 164.581 44.0187 163.845 44.456C163.119 44.8827 162.303 45.096 161.397 45.096C160.671 45.096 160.047 44.968 159.525 44.712C159.002 44.4453 158.602 44.0613 158.325 43.56L157.429 48.104H155.893L158.197 36.52H159.669L159.461 37.576C160.25 36.8187 161.247 36.44 162.453 36.44ZM161.333 43.752C161.962 43.752 162.527 43.6027 163.029 43.304C163.53 42.9947 163.925 42.568 164.213 42.024C164.501 41.48 164.645 40.8613 164.645 40.168C164.645 39.4107 164.426 38.824 163.989 38.408C163.551 37.992 162.927 37.784 162.117 37.784C161.487 37.784 160.917 37.9387 160.405 38.248C159.903 38.5467 159.509 38.968 159.221 39.512C158.943 40.056 158.805 40.6747 158.805 41.368C158.805 42.1147 159.023 42.7013 159.461 43.128C159.909 43.544 160.533 43.752 161.333 43.752ZM178.287 36.52L176.607 45H175.135L175.343 43.96C174.959 44.3227 174.511 44.6053 173.999 44.808C173.498 45 172.948 45.096 172.351 45.096C171.626 45.096 170.98 44.952 170.415 44.664C169.85 44.3653 169.407 43.9387 169.087 43.384C168.767 42.8293 168.607 42.1787 168.607 41.432C168.607 40.472 168.815 39.6133 169.231 38.856C169.647 38.0987 170.218 37.5067 170.943 37.08C171.679 36.6533 172.5 36.44 173.407 36.44C174.132 36.44 174.751 36.568 175.263 36.824C175.786 37.08 176.186 37.4587 176.463 37.96L176.751 36.52H178.287ZM172.687 43.752C173.316 43.752 173.882 43.6027 174.383 43.304C174.895 42.9947 175.29 42.568 175.567 42.024C175.855 41.48 175.999 40.8613 175.999 40.168C175.999 39.4107 175.78 38.824 175.343 38.408C174.906 37.992 174.282 37.784 173.471 37.784C172.842 37.784 172.276 37.9387 171.775 38.248C171.274 38.5467 170.879 38.968 170.591 39.512C170.303 40.056 170.159 40.6747 170.159 41.368C170.159 42.1147 170.378 42.7013 170.815 43.128C171.263 43.544 171.887 43.752 172.687 43.752ZM190.521 36.52L189.065 43.848C188.767 45.3627 188.201 46.4667 187.369 47.16C186.548 47.8533 185.423 48.2 183.993 48.2C183.193 48.2 182.463 48.0933 181.801 47.88C181.14 47.6773 180.58 47.384 180.121 47L180.969 45.816C181.311 46.1253 181.753 46.3707 182.297 46.552C182.852 46.744 183.455 46.84 184.105 46.84C185.087 46.84 185.844 46.616 186.377 46.168C186.921 45.72 187.289 45.0267 187.481 44.088L187.609 43.48C186.799 44.2587 185.775 44.648 184.537 44.648C183.791 44.648 183.129 44.5093 182.553 44.232C181.988 43.9547 181.545 43.5547 181.225 43.032C180.916 42.5093 180.761 41.896 180.761 41.192C180.761 40.3067 180.964 39.5013 181.369 38.776C181.785 38.0507 182.361 37.48 183.097 37.064C183.833 36.648 184.665 36.44 185.593 36.44C186.319 36.44 186.959 36.5787 187.513 36.856C188.079 37.1227 188.495 37.528 188.761 38.072L189.065 36.52H190.521ZM184.841 43.304C185.481 43.304 186.052 43.1653 186.553 42.888C187.065 42.6 187.46 42.2053 187.737 41.704C188.025 41.192 188.169 40.616 188.169 39.976C188.169 39.2933 187.945 38.76 187.497 38.376C187.06 37.9813 186.441 37.784 185.641 37.784C185.001 37.784 184.425 37.928 183.913 38.216C183.412 38.4933 183.017 38.888 182.729 39.4C182.452 39.9013 182.313 40.4667 182.313 41.096C182.313 41.7893 182.537 42.3333 182.985 42.728C183.433 43.112 184.052 43.304 184.841 43.304ZM194.464 41.24V41.336C194.464 42.1253 194.688 42.728 195.136 43.144C195.584 43.5493 196.256 43.752 197.152 43.752C197.675 43.752 198.165 43.6667 198.624 43.496C199.083 43.3147 199.467 43.0747 199.776 42.776L200.432 43.88C200.016 44.264 199.509 44.5627 198.912 44.776C198.315 44.9893 197.685 45.096 197.024 45.096C196.192 45.096 195.472 44.9467 194.864 44.648C194.256 44.3493 193.787 43.9227 193.456 43.368C193.125 42.8133 192.96 42.1627 192.96 41.416C192.96 40.4667 193.163 39.6133 193.568 38.856C193.984 38.0987 194.555 37.5067 195.28 37.08C196.016 36.6533 196.837 36.44 197.744 36.44C198.896 36.44 199.813 36.7707 200.496 37.432C201.189 38.0827 201.536 38.9733 201.536 40.104C201.536 40.4453 201.499 40.824 201.424 41.24H194.464ZM197.68 37.72C196.923 37.72 196.272 37.9333 195.728 38.36C195.184 38.7867 194.816 39.3733 194.624 40.12H200.096C200.139 39.3627 199.936 38.776 199.488 38.36C199.051 37.9333 198.448 37.72 197.68 37.72ZM212.126 45.096C211.422 45.096 210.75 45.0053 210.11 44.824C209.481 44.6427 208.99 44.408 208.638 44.12L209.326 42.904C209.657 43.1707 210.084 43.384 210.606 43.544C211.14 43.6933 211.694 43.768 212.27 43.768C212.996 43.768 213.545 43.6613 213.918 43.448C214.302 43.224 214.494 42.9147 214.494 42.52C214.494 42.2 214.34 41.9707 214.03 41.832C213.732 41.6933 213.262 41.5547 212.622 41.416C212.025 41.288 211.534 41.16 211.15 41.032C210.777 40.8933 210.457 40.68 210.19 40.392C209.924 40.0933 209.79 39.6933 209.79 39.192C209.79 38.6373 209.945 38.152 210.254 37.736C210.574 37.32 211.022 37 211.598 36.776C212.185 36.552 212.862 36.44 213.63 36.44C214.196 36.44 214.745 36.5093 215.278 36.648C215.812 36.7867 216.249 36.9733 216.59 37.208L215.982 38.424C215.652 38.2 215.268 38.0347 214.83 37.928C214.393 37.8107 213.945 37.752 213.486 37.752C212.793 37.752 212.26 37.8693 211.886 38.104C211.513 38.328 211.326 38.632 211.326 39.016C211.326 39.3573 211.481 39.6027 211.79 39.752C212.1 39.8907 212.58 40.0293 213.23 40.168C213.817 40.296 214.297 40.424 214.67 40.552C215.044 40.68 215.358 40.888 215.614 41.176C215.881 41.464 216.014 41.8533 216.014 42.344C216.014 43.208 215.657 43.8853 214.942 44.376C214.238 44.856 213.3 45.096 212.126 45.096ZM228.334 36.52L226.654 45H225.182L225.39 43.96C225.006 44.3227 224.558 44.6053 224.046 44.808C223.545 45 222.995 45.096 222.398 45.096C221.673 45.096 221.027 44.952 220.462 44.664C219.897 44.3653 219.454 43.9387 219.134 43.384C218.814 42.8293 218.654 42.1787 218.654 41.432C218.654 40.472 218.862 39.6133 219.278 38.856C219.694 38.0987 220.265 37.5067 220.99 37.08C221.726 36.6533 222.547 36.44 223.454 36.44C224.179 36.44 224.798 36.568 225.31 36.824C225.833 37.08 226.233 37.4587 226.51 37.96L226.798 36.52H228.334ZM222.734 43.752C223.363 43.752 223.929 43.6027 224.43 43.304C224.942 42.9947 225.337 42.568 225.614 42.024C225.902 41.48 226.046 40.8613 226.046 40.168C226.046 39.4107 225.827 38.824 225.39 38.408C224.953 37.992 224.329 37.784 223.518 37.784C222.889 37.784 222.323 37.9387 221.822 38.248C221.321 38.5467 220.926 38.968 220.638 39.512C220.35 40.056 220.206 40.6747 220.206 41.368C220.206 42.1147 220.425 42.7013 220.862 43.128C221.31 43.544 221.934 43.752 222.734 43.752ZM232.456 36.52H233.992L232.312 45H230.776L232.456 36.52ZM233.672 34.888C233.395 34.888 233.165 34.7973 232.984 34.616C232.803 34.4347 232.712 34.216 232.712 33.96C232.712 33.6613 232.813 33.4107 233.016 33.208C233.229 32.9947 233.496 32.888 233.816 32.888C234.093 32.888 234.323 32.9787 234.504 33.16C234.696 33.3307 234.792 33.5387 234.792 33.784C234.792 34.1147 234.685 34.3813 234.472 34.584C234.269 34.7867 234.003 34.888 233.672 34.888ZM246.797 33.128L244.429 45H242.957L243.165 43.96C242.781 44.3227 242.333 44.6053 241.821 44.808C241.32 45 240.77 45.096 240.173 45.096C239.448 45.096 238.802 44.952 238.237 44.664C237.672 44.3653 237.229 43.9387 236.909 43.384C236.589 42.8293 236.429 42.1787 236.429 41.432C236.429 40.472 236.637 39.6133 237.053 38.856C237.469 38.0987 238.04 37.5067 238.765 37.08C239.501 36.6533 240.322 36.44 241.229 36.44C241.954 36.44 242.578 36.5733 243.101 36.84C243.634 37.096 244.034 37.4747 244.301 37.976L245.261 33.128H246.797ZM240.509 43.752C241.138 43.752 241.704 43.6027 242.205 43.304C242.717 42.9947 243.112 42.568 243.389 42.024C243.677 41.48 243.821 40.8613 243.821 40.168C243.821 39.4107 243.602 38.824 243.165 38.408C242.728 37.992 242.104 37.784 241.293 37.784C240.664 37.784 240.098 37.9387 239.597 38.248C239.096 38.5467 238.701 38.968 238.413 39.512C238.125 40.056 237.981 40.6747 237.981 41.368C237.981 42.1147 238.2 42.7013 238.637 43.128C239.085 43.544 239.709 43.752 240.509 43.752ZM259.264 34.296C258.805 34.296 258.443 34.424 258.176 34.68C257.909 34.9253 257.717 35.3147 257.6 35.848L257.456 36.52H259.92L259.664 37.784H257.248L255.792 45H254.256L255.712 37.784H254.256L254.496 36.52H255.968L256.128 35.72C256.299 34.856 256.645 34.1947 257.168 33.736C257.701 33.2667 258.4 33.032 259.264 33.032C259.616 33.032 259.947 33.08 260.256 33.176C260.576 33.2613 260.837 33.3893 261.04 33.56L260.4 34.696C260.101 34.4293 259.723 34.296 259.264 34.296ZM265.082 37.784C265.455 37.3147 265.914 36.9733 266.458 36.76C267.002 36.5467 267.663 36.44 268.442 36.44L268.154 37.928C268.058 37.9173 267.925 37.912 267.754 37.912C265.994 37.912 264.927 38.8613 264.554 40.76L263.706 45H262.17L263.85 36.52H265.322L265.082 37.784ZM273.713 45.096C272.913 45.096 272.214 44.9467 271.617 44.648C271.02 44.3387 270.556 43.9067 270.225 43.352C269.894 42.7973 269.729 42.1573 269.729 41.432C269.729 40.4827 269.942 39.6293 270.369 38.872C270.796 38.1147 271.388 37.5227 272.145 37.096C272.902 36.6587 273.756 36.44 274.705 36.44C275.505 36.44 276.204 36.5893 276.801 36.888C277.398 37.1867 277.857 37.6133 278.177 38.168C278.508 38.712 278.673 39.352 278.673 40.088C278.673 41.0373 278.46 41.896 278.033 42.664C277.606 43.4213 277.014 44.0187 276.257 44.456C275.51 44.8827 274.662 45.096 273.713 45.096ZM273.809 43.752C274.438 43.752 275.004 43.6027 275.505 43.304C276.017 42.9947 276.412 42.568 276.689 42.024C276.977 41.48 277.121 40.8613 277.121 40.168C277.121 39.4107 276.902 38.824 276.465 38.408C276.028 37.992 275.404 37.784 274.593 37.784C273.964 37.784 273.398 37.9387 272.897 38.248C272.396 38.5467 272.001 38.968 271.713 39.512C271.425 40.056 271.281 40.6747 271.281 41.368C271.281 42.1147 271.5 42.7013 271.937 43.128C272.385 43.544 273.009 43.752 273.809 43.752ZM293.165 36.44C294.125 36.44 294.872 36.6853 295.405 37.176C295.949 37.656 296.221 38.344 296.221 39.24C296.221 39.4853 296.184 39.8213 296.109 40.248L295.165 45H293.629L294.573 40.248C294.626 39.9493 294.653 39.704 294.653 39.512C294.653 38.9573 294.498 38.536 294.189 38.248C293.88 37.96 293.41 37.816 292.781 37.816C291.992 37.816 291.341 38.04 290.829 38.488C290.328 38.9253 289.986 39.5867 289.805 40.472L288.893 45H287.357L288.317 40.248C288.37 39.96 288.397 39.72 288.397 39.528C288.397 38.9733 288.237 38.552 287.917 38.264C287.608 37.9653 287.138 37.816 286.509 37.816C285.72 37.816 285.069 38.04 284.557 38.488C284.056 38.936 283.714 39.6133 283.533 40.52L282.637 45H281.101L282.781 36.52H284.253L284.045 37.576C284.792 36.8187 285.773 36.44 286.989 36.44C287.65 36.44 288.216 36.568 288.685 36.824C289.154 37.08 289.496 37.4533 289.709 37.944C290.573 36.9413 291.725 36.44 293.165 36.44ZM312.064 35.096C311.051 35.096 310.246 35.3253 309.648 35.784C309.051 36.2427 308.656 36.9787 308.464 37.992L308.288 38.872H312.528L312.32 39.928H308.08L307.344 43.608H313.36L313.072 45H303.712L304 43.608H305.744L306.48 39.928H304.704L304.928 38.872H306.688L306.896 37.832C307.174 36.4453 307.782 35.4053 308.72 34.712C309.67 34.0187 310.816 33.672 312.16 33.672C313.568 33.672 314.635 33.9547 315.36 34.52L314.656 35.8C314.006 35.3307 313.142 35.096 312.064 35.096ZM317.932 43.608H323.532L323.26 45H315.212L315.436 43.912L320.892 39.544C321.628 38.9467 322.134 38.44 322.412 38.024C322.7 37.5973 322.844 37.1493 322.844 36.68C322.844 36.1787 322.657 35.784 322.284 35.496C321.921 35.208 321.377 35.064 320.652 35.064C320.108 35.064 319.58 35.176 319.068 35.4C318.566 35.6133 318.129 35.9173 317.756 36.312L316.684 35.384C317.153 34.8507 317.756 34.4347 318.492 34.136C319.228 33.8267 320.022 33.672 320.876 33.672C321.996 33.672 322.87 33.928 323.5 34.44C324.129 34.952 324.444 35.6293 324.444 36.472C324.444 37.1547 324.262 37.8 323.9 38.408C323.537 39.0053 322.892 39.672 321.964 40.408L317.932 43.608ZM330.031 35.192L329.103 38.264H330.191C331.578 38.264 332.618 38.5307 333.311 39.064C334.005 39.5867 334.351 40.3173 334.351 41.256C334.351 42.024 334.154 42.7013 333.759 43.288C333.365 43.8747 332.805 44.328 332.079 44.648C331.365 44.968 330.533 45.128 329.583 45.128C328.741 45.128 327.973 45.0053 327.279 44.76C326.597 44.504 326.058 44.1573 325.663 43.72L326.511 42.488C326.831 42.8507 327.269 43.144 327.823 43.368C328.378 43.592 329.002 43.704 329.695 43.704C330.666 43.704 331.418 43.5067 331.951 43.112C332.485 42.7067 332.751 42.1467 332.751 41.432C332.751 40.248 331.802 39.656 329.903 39.656H327.183L328.927 33.8H335.247L334.975 35.192H330.031ZM337.475 42.904C337.763 42.904 338.003 43.0053 338.195 43.208C338.387 43.4 338.483 43.6453 338.483 43.944C338.483 44.104 338.456 44.2587 338.403 44.408C338.349 44.5573 338.253 44.744 338.115 44.968L336.771 47.368H335.763L336.851 44.968C336.691 44.8827 336.563 44.76 336.467 44.6C336.381 44.44 336.339 44.264 336.339 44.072C336.339 43.7307 336.445 43.4533 336.659 43.24C336.883 43.016 337.155 42.904 337.475 42.904ZM361.781 36.52L357.029 45H355.525L354.229 38.584L350.549 45H349.077L347.461 36.52H348.853L350.101 43.24L353.941 36.52H355.253L356.533 43.24L360.325 36.52H361.781ZM368.826 36.44C369.797 36.44 370.549 36.6853 371.082 37.176C371.626 37.6667 371.898 38.36 371.898 39.256C371.898 39.5653 371.866 39.896 371.802 40.248L370.858 45H369.322L370.266 40.248C370.32 39.96 370.346 39.7253 370.346 39.544C370.346 38.9893 370.181 38.5627 369.85 38.264C369.52 37.9653 369.029 37.816 368.378 37.816C367.546 37.816 366.858 38.0453 366.314 38.504C365.781 38.952 365.424 39.624 365.242 40.52L364.346 45H362.81L365.178 33.128H366.714L365.834 37.512C366.592 36.7973 367.589 36.44 368.826 36.44ZM383.929 36.52L377.913 45.928C377.369 46.7813 376.852 47.3733 376.361 47.704C375.87 48.0347 375.289 48.2 374.617 48.2C374.201 48.2 373.796 48.1307 373.401 47.992C373.006 47.864 372.702 47.6827 372.489 47.448L373.289 46.312C373.673 46.696 374.153 46.888 374.729 46.888C375.092 46.888 375.412 46.792 375.689 46.6C375.966 46.408 376.254 46.0827 376.553 45.624L376.985 44.952L374.937 36.52H376.473L378.105 43.304L382.377 36.52H383.929ZM400.043 36.52L398.363 45H396.891L397.099 43.96C396.715 44.3227 396.267 44.6053 395.755 44.808C395.254 45 394.705 45.096 394.107 45.096C393.382 45.096 392.737 44.952 392.171 44.664C391.606 44.3653 391.163 43.9387 390.843 43.384C390.523 42.8293 390.363 42.1787 390.363 41.432C390.363 40.472 390.571 39.6133 390.987 38.856C391.403 38.0987 391.974 37.5067 392.699 37.08C393.435 36.6533 394.257 36.44 395.163 36.44C395.889 36.44 396.507 36.568 397.019 36.824C397.542 37.08 397.942 37.4587 398.219 37.96L398.507 36.52H400.043ZM394.443 43.752C395.073 43.752 395.638 43.6027 396.139 43.304C396.651 42.9947 397.046 42.568 397.323 42.024C397.611 41.48 397.755 40.8613 397.755 40.168C397.755 39.4107 397.537 38.824 397.099 38.408C396.662 37.992 396.038 37.784 395.227 37.784C394.598 37.784 394.033 37.9387 393.531 38.248C393.03 38.5467 392.635 38.968 392.347 39.512C392.059 40.056 391.915 40.6747 391.915 41.368C391.915 42.1147 392.134 42.7013 392.571 43.128C393.019 43.544 393.643 43.752 394.443 43.752ZM414.55 36.44C415.51 36.44 416.256 36.6853 416.79 37.176C417.334 37.656 417.606 38.344 417.606 39.24C417.606 39.4853 417.568 39.8213 417.494 40.248L416.55 45H415.014L415.958 40.248C416.011 39.9493 416.038 39.704 416.038 39.512C416.038 38.9573 415.883 38.536 415.574 38.248C415.264 37.96 414.795 37.816 414.166 37.816C413.376 37.816 412.726 38.04 412.214 38.488C411.712 38.9253 411.371 39.5867 411.19 40.472L410.278 45H408.742L409.702 40.248C409.755 39.96 409.782 39.72 409.782 39.528C409.782 38.9733 409.622 38.552 409.302 38.264C408.992 37.9653 408.523 37.816 407.894 37.816C407.104 37.816 406.454 38.04 405.942 38.488C405.44 38.936 405.099 39.6133 404.918 40.52L404.022 45H402.486L404.166 36.52H405.638L405.43 37.576C406.176 36.8187 407.158 36.44 408.374 36.44C409.035 36.44 409.6 36.568 410.07 36.824C410.539 37.08 410.88 37.4533 411.094 37.944C411.958 36.9413 413.11 36.44 414.55 36.44ZM428.537 33.8H430.137L427.897 45H426.297L428.537 33.8ZM440.411 45.096C439.707 45.096 439.035 45.0053 438.395 44.824C437.765 44.6427 437.275 44.408 436.923 44.12L437.611 42.904C437.941 43.1707 438.368 43.384 438.891 43.544C439.424 43.6933 439.979 43.768 440.555 43.768C441.28 43.768 441.829 43.6613 442.203 43.448C442.587 43.224 442.779 42.9147 442.779 42.52C442.779 42.2 442.624 41.9707 442.315 41.832C442.016 41.6933 441.547 41.5547 440.907 41.416C440.309 41.288 439.819 41.16 439.435 41.032C439.061 40.8933 438.741 40.68 438.475 40.392C438.208 40.0933 438.075 39.6933 438.075 39.192C438.075 38.6373 438.229 38.152 438.539 37.736C438.859 37.32 439.307 37 439.883 36.776C440.469 36.552 441.147 36.44 441.915 36.44C442.48 36.44 443.029 36.5093 443.563 36.648C444.096 36.7867 444.533 36.9733 444.875 37.208L444.267 38.424C443.936 38.2 443.552 38.0347 443.115 37.928C442.677 37.8107 442.229 37.752 441.771 37.752C441.077 37.752 440.544 37.8693 440.171 38.104C439.797 38.328 439.611 38.632 439.611 39.016C439.611 39.3573 439.765 39.6027 440.075 39.752C440.384 39.8907 440.864 40.0293 441.515 40.168C442.101 40.296 442.581 40.424 442.955 40.552C443.328 40.68 443.643 40.888 443.899 41.176C444.165 41.464 444.299 41.8533 444.299 42.344C444.299 43.208 443.941 43.8853 443.227 44.376C442.523 44.856 441.584 45.096 440.411 45.096ZM456.538 36.52L454.858 45H453.386L453.594 43.912C453.21 44.3067 452.757 44.6053 452.234 44.808C451.722 45 451.162 45.096 450.554 45.096C449.616 45.096 448.874 44.8453 448.33 44.344C447.786 43.8427 447.514 43.144 447.514 42.248C447.514 41.9493 447.546 41.624 447.61 41.272L448.554 36.52H450.09L449.146 41.288C449.093 41.576 449.066 41.816 449.066 42.008C449.066 42.5627 449.226 42.9893 449.546 43.288C449.877 43.576 450.362 43.72 451.002 43.72C451.813 43.72 452.485 43.4907 453.018 43.032C453.562 42.5733 453.925 41.9013 454.106 41.016L455.002 36.52H456.538ZM469.334 33.128L466.966 45H465.494L465.702 43.96C465.318 44.3227 464.87 44.6053 464.358 44.808C463.857 45 463.308 45.096 462.71 45.096C461.985 45.096 461.34 44.952 460.774 44.664C460.209 44.3653 459.766 43.9387 459.446 43.384C459.126 42.8293 458.966 42.1787 458.966 41.432C458.966 40.472 459.174 39.6133 459.59 38.856C460.006 38.0987 460.577 37.5067 461.302 37.08C462.038 36.6533 462.86 36.44 463.766 36.44C464.492 36.44 465.116 36.5733 465.638 36.84C466.172 37.096 466.572 37.4747 466.838 37.976L467.798 33.128H469.334ZM463.046 43.752C463.676 43.752 464.241 43.6027 464.742 43.304C465.254 42.9947 465.649 42.568 465.926 42.024C466.214 41.48 466.358 40.8613 466.358 40.168C466.358 39.4107 466.14 38.824 465.702 38.408C465.265 37.992 464.641 37.784 463.83 37.784C463.201 37.784 462.636 37.9387 462.134 38.248C461.633 38.5467 461.238 38.968 460.95 39.512C460.662 40.056 460.518 40.6747 460.518 41.368C460.518 42.1147 460.737 42.7013 461.174 43.128C461.622 43.544 462.246 43.752 463.046 43.752ZM481.441 33.128L479.073 45H477.601L477.809 43.96C477.425 44.3227 476.977 44.6053 476.465 44.808C475.963 45 475.414 45.096 474.817 45.096C474.091 45.096 473.446 44.952 472.881 44.664C472.315 44.3653 471.873 43.9387 471.553 43.384C471.233 42.8293 471.073 42.1787 471.073 41.432C471.073 40.472 471.281 39.6133 471.697 38.856C472.113 38.0987 472.683 37.5067 473.409 37.08C474.145 36.6533 474.966 36.44 475.873 36.44C476.598 36.44 477.222 36.5733 477.745 36.84C478.278 37.096 478.678 37.4747 478.945 37.976L479.905 33.128H481.441ZM475.153 43.752C475.782 43.752 476.347 43.6027 476.849 43.304C477.361 42.9947 477.755 42.568 478.033 42.024C478.321 41.48 478.465 40.8613 478.465 40.168C478.465 39.4107 478.246 38.824 477.809 38.408C477.371 37.992 476.747 37.784 475.937 37.784C475.307 37.784 474.742 37.9387 474.241 38.248C473.739 38.5467 473.345 38.968 473.057 39.512C472.769 40.056 472.625 40.6747 472.625 41.368C472.625 42.1147 472.843 42.7013 473.281 43.128C473.729 43.544 474.353 43.752 475.153 43.752ZM484.683 41.24V41.336C484.683 42.1253 484.907 42.728 485.355 43.144C485.803 43.5493 486.475 43.752 487.371 43.752C487.894 43.752 488.384 43.6667 488.843 43.496C489.302 43.3147 489.686 43.0747 489.995 42.776L490.651 43.88C490.235 44.264 489.728 44.5627 489.131 44.776C488.534 44.9893 487.904 45.096 487.243 45.096C486.411 45.096 485.691 44.9467 485.083 44.648C484.475 44.3493 484.006 43.9227 483.675 43.368C483.344 42.8133 483.179 42.1627 483.179 41.416C483.179 40.4667 483.382 39.6133 483.787 38.856C484.203 38.0987 484.774 37.5067 485.499 37.08C486.235 36.6533 487.056 36.44 487.963 36.44C489.115 36.44 490.032 36.7707 490.715 37.432C491.408 38.0827 491.755 38.9733 491.755 40.104C491.755 40.4453 491.718 40.824 491.643 41.24H484.683ZM487.899 37.72C487.142 37.72 486.491 37.9333 485.947 38.36C485.403 38.7867 485.035 39.3733 484.843 40.12H490.315C490.358 39.3627 490.155 38.776 489.707 38.36C489.27 37.9333 488.667 37.72 487.899 37.72ZM500.192 36.44C501.163 36.44 501.915 36.6853 502.448 37.176C502.992 37.6667 503.264 38.36 503.264 39.256C503.264 39.5653 503.232 39.896 503.168 40.248L502.224 45H500.688L501.632 40.248C501.685 39.96 501.712 39.7253 501.712 39.544C501.712 38.9893 501.547 38.5627 501.216 38.264C500.885 37.9653 500.395 37.816 499.744 37.816C498.912 37.816 498.224 38.0453 497.68 38.504C497.147 38.952 496.789 39.624 496.608 40.52L495.712 45H494.176L495.856 36.52H497.328L497.12 37.608C497.888 36.8293 498.912 36.44 500.192 36.44ZM508.635 33.128H510.171L507.803 45H506.267L508.635 33.128ZM521.119 36.52L515.103 45.928C514.559 46.7813 514.042 47.3733 513.551 47.704C513.061 48.0347 512.479 48.2 511.807 48.2C511.391 48.2 510.986 48.1307 510.591 47.992C510.197 47.864 509.893 47.6827 509.679 47.448L510.479 46.312C510.863 46.696 511.343 46.888 511.919 46.888C512.282 46.888 512.602 46.792 512.879 46.6C513.157 46.408 513.445 46.0827 513.743 45.624L514.175 44.952L512.127 36.52H513.663L515.295 43.304L519.567 36.52H521.119ZM537.362 36.52L535.906 43.848C535.607 45.3627 535.042 46.4667 534.21 47.16C533.389 47.8533 532.263 48.2 530.834 48.2C530.034 48.2 529.303 48.0933 528.642 47.88C527.981 47.6773 527.421 47.384 526.962 47L527.81 45.816C528.151 46.1253 528.594 46.3707 529.138 46.552C529.693 46.744 530.295 46.84 530.946 46.84C531.927 46.84 532.685 46.616 533.218 46.168C533.762 45.72 534.13 45.0267 534.322 44.088L534.45 43.48C533.639 44.2587 532.615 44.648 531.378 44.648C530.631 44.648 529.97 44.5093 529.394 44.232C528.829 43.9547 528.386 43.5547 528.066 43.032C527.757 42.5093 527.602 41.896 527.602 41.192C527.602 40.3067 527.805 39.5013 528.21 38.776C528.626 38.0507 529.202 37.48 529.938 37.064C530.674 36.648 531.506 36.44 532.434 36.44C533.159 36.44 533.799 36.5787 534.354 36.856C534.919 37.1227 535.335 37.528 535.602 38.072L535.906 36.52H537.362ZM531.682 43.304C532.322 43.304 532.893 43.1653 533.394 42.888C533.906 42.6 534.301 42.2053 534.578 41.704C534.866 41.192 535.01 40.616 535.01 39.976C535.01 39.2933 534.786 38.76 534.338 38.376C533.901 37.9813 533.282 37.784 532.482 37.784C531.842 37.784 531.266 37.928 530.754 38.216C530.253 38.4933 529.858 38.888 529.57 39.4C529.293 39.9013 529.154 40.4667 529.154 41.096C529.154 41.7893 529.378 42.3333 529.826 42.728C530.274 43.112 530.893 43.304 531.682 43.304ZM541.305 41.24V41.336C541.305 42.1253 541.529 42.728 541.977 43.144C542.425 43.5493 543.097 43.752 543.993 43.752C544.515 43.752 545.006 43.6667 545.465 43.496C545.923 43.3147 546.307 43.0747 546.617 42.776L547.273 43.88C546.857 44.264 546.35 44.5627 545.753 44.776C545.155 44.9893 544.526 45.096 543.865 45.096C543.033 45.096 542.313 44.9467 541.705 44.648C541.097 44.3493 540.627 43.9227 540.297 43.368C539.966 42.8133 539.801 42.1627 539.801 41.416C539.801 40.4667 540.003 39.6133 540.409 38.856C540.825 38.0987 541.395 37.5067 542.121 37.08C542.857 36.6533 543.678 36.44 544.585 36.44C545.737 36.44 546.654 36.7707 547.337 37.432C548.03 38.0827 548.377 38.9733 548.377 40.104C548.377 40.4453 548.339 40.824 548.265 41.24H541.305ZM544.521 37.72C543.763 37.72 543.113 37.9333 542.569 38.36C542.025 38.7867 541.657 39.3733 541.465 40.12H546.937C546.979 39.3627 546.777 38.776 546.329 38.36C545.891 37.9333 545.289 37.72 544.521 37.72ZM553.07 42.296C553.038 42.456 553.022 42.6053 553.022 42.744C553.022 43.0853 553.113 43.3467 553.294 43.528C553.486 43.7093 553.769 43.8 554.142 43.8C554.59 43.8 554.995 43.6667 555.358 43.4L555.678 44.568C555.166 44.92 554.51 45.096 553.71 45.096C553.038 45.096 552.494 44.9093 552.078 44.536C551.673 44.152 551.47 43.6293 551.47 42.968C551.47 42.744 551.491 42.5307 551.534 42.328L552.446 37.784H551.006L551.246 36.52H552.702L553.07 34.664H554.606L554.238 36.52H556.67L556.414 37.784H553.982L553.07 42.296ZM560.692 42.296C560.66 42.456 560.644 42.6053 560.644 42.744C560.644 43.0853 560.735 43.3467 560.916 43.528C561.108 43.7093 561.391 43.8 561.764 43.8C562.212 43.8 562.617 43.6667 562.98 43.4L563.3 44.568C562.788 44.92 562.132 45.096 561.332 45.096C560.66 45.096 560.116 44.9093 559.7 44.536C559.295 44.152 559.092 43.6293 559.092 42.968C559.092 42.744 559.113 42.5307 559.156 42.328L560.068 37.784H558.628L558.868 36.52H560.324L560.692 34.664H562.228L561.86 36.52H564.292L564.036 37.784H561.604L560.692 42.296ZM567.925 36.52H569.461L567.781 45H566.245L567.925 36.52ZM569.141 34.888C568.864 34.888 568.634 34.7973 568.453 34.616C568.272 34.4347 568.181 34.216 568.181 33.96C568.181 33.6613 568.282 33.4107 568.485 33.208C568.698 32.9947 568.965 32.888 569.285 32.888C569.562 32.888 569.792 32.9787 569.973 33.16C570.165 33.3307 570.261 33.5387 570.261 33.784C570.261 34.1147 570.154 34.3813 569.941 34.584C569.738 34.7867 569.472 34.888 569.141 34.888ZM577.93 36.44C578.9 36.44 579.652 36.6853 580.186 37.176C580.73 37.6667 581.002 38.36 581.002 39.256C581.002 39.5653 580.97 39.896 580.906 40.248L579.962 45H578.426L579.37 40.248C579.423 39.96 579.45 39.7253 579.45 39.544C579.45 38.9893 579.284 38.5627 578.954 38.264C578.623 37.9653 578.132 37.816 577.482 37.816C576.65 37.816 575.962 38.0453 575.418 38.504C574.884 38.952 574.527 39.624 574.346 40.52L573.45 45H571.914L573.594 36.52H575.066L574.858 37.608C575.626 36.8293 576.65 36.44 577.93 36.44ZM593.843 36.52L592.387 43.848C592.088 45.3627 591.523 46.4667 590.691 47.16C589.87 47.8533 588.744 48.2 587.315 48.2C586.515 48.2 585.784 48.0933 585.123 47.88C584.462 47.6773 583.902 47.384 583.443 47L584.291 45.816C584.632 46.1253 585.075 46.3707 585.619 46.552C586.174 46.744 586.776 46.84 587.427 46.84C588.408 46.84 589.166 46.616 589.699 46.168C590.243 45.72 590.611 45.0267 590.803 44.088L590.931 43.48C590.12 44.2587 589.096 44.648 587.859 44.648C587.112 44.648 586.451 44.5093 585.875 44.232C585.31 43.9547 584.867 43.5547 584.547 43.032C584.238 42.5093 584.083 41.896 584.083 41.192C584.083 40.3067 584.286 39.5013 584.691 38.776C585.107 38.0507 585.683 37.48 586.419 37.064C587.155 36.648 587.987 36.44 588.915 36.44C589.64 36.44 590.28 36.5787 590.835 36.856C591.4 37.1227 591.816 37.528 592.083 38.072L592.387 36.52H593.843ZM588.163 43.304C588.803 43.304 589.374 43.1653 589.875 42.888C590.387 42.6 590.782 42.2053 591.059 41.704C591.347 41.192 591.491 40.616 591.491 39.976C591.491 39.2933 591.267 38.76 590.819 38.376C590.382 37.9813 589.763 37.784 588.963 37.784C588.323 37.784 587.747 37.928 587.235 38.216C586.734 38.4933 586.339 38.888 586.051 39.4C585.774 39.9013 585.635 40.4667 585.635 41.096C585.635 41.7893 585.859 42.3333 586.307 42.728C586.755 43.112 587.374 43.304 588.163 43.304ZM611.459 36.52L609.779 45H608.307L608.515 43.96C608.131 44.3227 607.683 44.6053 607.171 44.808C606.67 45 606.12 45.096 605.523 45.096C604.798 45.096 604.152 44.952 603.587 44.664C603.022 44.3653 602.579 43.9387 602.259 43.384C601.939 42.8293 601.779 42.1787 601.779 41.432C601.779 40.472 601.987 39.6133 602.403 38.856C602.819 38.0987 603.39 37.5067 604.115 37.08C604.851 36.6533 605.672 36.44 606.579 36.44C607.304 36.44 607.923 36.568 608.435 36.824C608.958 37.08 609.358 37.4587 609.635 37.96L609.923 36.52H611.459ZM605.859 43.752C606.488 43.752 607.054 43.6027 607.555 43.304C608.067 42.9947 608.462 42.568 608.739 42.024C609.027 41.48 609.171 40.8613 609.171 40.168C609.171 39.4107 608.952 38.824 608.515 38.408C608.078 37.992 607.454 37.784 606.643 37.784C606.014 37.784 605.448 37.9387 604.947 38.248C604.446 38.5467 604.051 38.968 603.763 39.512C603.475 40.056 603.331 40.6747 603.331 41.368C603.331 42.1147 603.55 42.7013 603.987 43.128C604.435 43.544 605.059 43.752 605.859 43.752ZM236.042 58.52L233.738 70.104H232.202L233.002 66.056C232.628 66.3867 232.196 66.6427 231.706 66.824C231.215 67.0053 230.682 67.096 230.106 67.096C229.38 67.096 228.735 66.952 228.17 66.664C227.604 66.3653 227.162 65.9387 226.842 65.384C226.522 64.8293 226.362 64.1787 226.362 63.432C226.362 62.472 226.57 61.6133 226.986 60.856C227.402 60.0987 227.972 59.5067 228.698 59.08C229.434 58.6533 230.255 58.44 231.162 58.44C231.908 58.44 232.543 58.5787 233.066 58.856C233.599 59.1227 233.999 59.5227 234.266 60.056L234.586 58.52H236.042ZM230.442 65.752C231.071 65.752 231.636 65.6027 232.138 65.304C232.65 64.9947 233.044 64.568 233.322 64.024C233.61 63.48 233.754 62.8613 233.754 62.168C233.754 61.4107 233.535 60.824 233.098 60.408C232.66 59.992 232.036 59.784 231.226 59.784C230.596 59.784 230.031 59.9387 229.53 60.248C229.028 60.5467 228.634 60.968 228.346 61.512C228.058 62.056 227.914 62.6747 227.914 63.368C227.914 64.1147 228.132 64.7013 228.57 65.128C229.018 65.544 229.642 65.752 230.442 65.752ZM248.068 58.52L246.388 67H244.916L245.124 65.912C244.74 66.3067 244.287 66.6053 243.764 66.808C243.252 67 242.692 67.096 242.084 67.096C241.145 67.096 240.404 66.8453 239.86 66.344C239.316 65.8427 239.044 65.144 239.044 64.248C239.044 63.9493 239.076 63.624 239.14 63.272L240.084 58.52H241.62L240.676 63.288C240.623 63.576 240.596 63.816 240.596 64.008C240.596 64.5627 240.756 64.9893 241.076 65.288C241.407 65.576 241.892 65.72 242.532 65.72C243.343 65.72 244.015 65.4907 244.548 65.032C245.092 64.5733 245.455 63.9013 245.636 63.016L246.532 58.52H248.068ZM254.48 67.096C253.68 67.096 252.981 66.9467 252.384 66.648C251.787 66.3387 251.323 65.9067 250.992 65.352C250.661 64.7973 250.496 64.1573 250.496 63.432C250.496 62.4827 250.709 61.6293 251.136 60.872C251.563 60.1147 252.155 59.5227 252.912 59.096C253.669 58.6587 254.523 58.44 255.472 58.44C256.272 58.44 256.971 58.5893 257.568 58.888C258.165 59.1867 258.624 59.6133 258.944 60.168C259.275 60.712 259.44 61.352 259.44 62.088C259.44 63.0373 259.227 63.896 258.8 64.664C258.373 65.4213 257.781 66.0187 257.024 66.456C256.277 66.8827 255.429 67.096 254.48 67.096ZM254.576 65.752C255.205 65.752 255.771 65.6027 256.272 65.304C256.784 64.9947 257.179 64.568 257.456 64.024C257.744 63.48 257.888 62.8613 257.888 62.168C257.888 61.4107 257.669 60.824 257.232 60.408C256.795 59.992 256.171 59.784 255.36 59.784C254.731 59.784 254.165 59.9387 253.664 60.248C253.163 60.5467 252.768 60.968 252.48 61.512C252.192 62.056 252.048 62.6747 252.048 63.368C252.048 64.1147 252.267 64.7013 252.704 65.128C253.152 65.544 253.776 65.752 254.576 65.752ZM264.14 64.296C264.108 64.456 264.092 64.6053 264.092 64.744C264.092 65.0853 264.183 65.3467 264.364 65.528C264.556 65.7093 264.839 65.8 265.212 65.8C265.66 65.8 266.066 65.6667 266.428 65.4L266.748 66.568C266.236 66.92 265.58 67.096 264.78 67.096C264.108 67.096 263.564 66.9093 263.148 66.536C262.743 66.152 262.54 65.6293 262.54 64.968C262.54 64.744 262.562 64.5307 262.604 64.328L263.516 59.784H262.076L262.316 58.52H263.772L264.14 56.664H265.676L265.308 58.52H267.74L267.484 59.784H265.052L264.14 64.296ZM270.9 63.24V63.336C270.9 64.1253 271.124 64.728 271.572 65.144C272.02 65.5493 272.692 65.752 273.588 65.752C274.111 65.752 274.601 65.6667 275.06 65.496C275.519 65.3147 275.903 65.0747 276.212 64.776L276.868 65.88C276.452 66.264 275.945 66.5627 275.348 66.776C274.751 66.9893 274.121 67.096 273.46 67.096C272.628 67.096 271.908 66.9467 271.3 66.648C270.692 66.3493 270.223 65.9227 269.892 65.368C269.561 64.8133 269.396 64.1627 269.396 63.416C269.396 62.4667 269.599 61.6133 270.004 60.856C270.42 60.0987 270.991 59.5067 271.716 59.08C272.452 58.6533 273.273 58.44 274.18 58.44C275.332 58.44 276.249 58.7707 276.932 59.432C277.625 60.0827 277.972 60.9733 277.972 62.104C277.972 62.4453 277.935 62.824 277.86 63.24H270.9ZM274.116 59.72C273.359 59.72 272.708 59.9333 272.164 60.36C271.62 60.7867 271.252 61.3733 271.06 62.12H276.532C276.575 61.3627 276.372 60.776 275.924 60.36C275.487 59.9333 274.884 59.72 274.116 59.72ZM291.106 56.296C290.648 56.296 290.285 56.424 290.018 56.68C289.752 56.9253 289.56 57.3147 289.442 57.848L289.298 58.52H291.762L291.506 59.784H289.09L287.634 67H286.098L287.554 59.784H286.098L286.338 58.52H287.81L287.97 57.72C288.141 56.856 288.488 56.1947 289.01 55.736C289.544 55.2667 290.242 55.032 291.106 55.032C291.458 55.032 291.789 55.08 292.098 55.176C292.418 55.2613 292.68 55.3893 292.882 55.56L292.242 56.696C291.944 56.4293 291.565 56.296 291.106 56.296ZM296.574 67.096C295.774 67.096 295.075 66.9467 294.478 66.648C293.88 66.3387 293.416 65.9067 293.086 65.352C292.755 64.7973 292.59 64.1573 292.59 63.432C292.59 62.4827 292.803 61.6293 293.23 60.872C293.656 60.1147 294.248 59.5227 295.006 59.096C295.763 58.6587 296.616 58.44 297.566 58.44C298.366 58.44 299.064 58.5893 299.662 58.888C300.259 59.1867 300.718 59.6133 301.038 60.168C301.368 60.712 301.534 61.352 301.534 62.088C301.534 63.0373 301.32 63.896 300.894 64.664C300.467 65.4213 299.875 66.0187 299.118 66.456C298.371 66.8827 297.523 67.096 296.574 67.096ZM296.67 65.752C297.299 65.752 297.864 65.6027 298.366 65.304C298.878 64.9947 299.272 64.568 299.55 64.024C299.838 63.48 299.982 62.8613 299.982 62.168C299.982 61.4107 299.763 60.824 299.326 60.408C298.888 59.992 298.264 59.784 297.454 59.784C296.824 59.784 296.259 59.9387 295.758 60.248C295.256 60.5467 294.862 60.968 294.574 61.512C294.286 62.056 294.142 62.6747 294.142 63.368C294.142 64.1147 294.36 64.7013 294.798 65.128C295.246 65.544 295.87 65.752 296.67 65.752ZM306.874 59.784C307.247 59.3147 307.706 58.9733 308.25 58.76C308.794 58.5467 309.455 58.44 310.234 58.44L309.946 59.928C309.85 59.9173 309.717 59.912 309.546 59.912C307.786 59.912 306.719 60.8613 306.346 62.76L305.498 67H303.962L305.642 58.52H307.114L306.874 59.784ZM321.189 67.096C320.389 67.096 319.691 66.9467 319.093 66.648C318.496 66.3387 318.032 65.9067 317.701 65.352C317.371 64.7973 317.205 64.1573 317.205 63.432C317.205 62.4827 317.419 61.6293 317.845 60.872C318.272 60.1147 318.864 59.5227 319.621 59.096C320.379 58.6587 321.232 58.44 322.181 58.44C322.981 58.44 323.68 58.5893 324.277 58.888C324.875 59.1867 325.333 59.6133 325.653 60.168C325.984 60.712 326.149 61.352 326.149 62.088C326.149 63.0373 325.936 63.896 325.509 64.664C325.083 65.4213 324.491 66.0187 323.733 66.456C322.987 66.8827 322.139 67.096 321.189 67.096ZM321.285 65.752C321.915 65.752 322.48 65.6027 322.981 65.304C323.493 64.9947 323.888 64.568 324.165 64.024C324.453 63.48 324.597 62.8613 324.597 62.168C324.597 61.4107 324.379 60.824 323.941 60.408C323.504 59.992 322.88 59.784 322.069 59.784C321.44 59.784 320.875 59.9387 320.373 60.248C319.872 60.5467 319.477 60.968 319.189 61.512C318.901 62.056 318.757 62.6747 318.757 63.368C318.757 64.1147 318.976 64.7013 319.413 65.128C319.861 65.544 320.485 65.752 321.285 65.752ZM337.527 58.52L332.135 67H330.567L328.535 58.52H330.071L331.655 65.32L335.975 58.52H337.527ZM339.734 63.24V63.336C339.734 64.1253 339.958 64.728 340.406 65.144C340.854 65.5493 341.526 65.752 342.422 65.752C342.945 65.752 343.436 65.6667 343.894 65.496C344.353 65.3147 344.737 65.0747 345.046 64.776L345.702 65.88C345.286 66.264 344.78 66.5627 344.182 66.776C343.585 66.9893 342.956 67.096 342.294 67.096C341.462 67.096 340.742 66.9467 340.134 66.648C339.526 66.3493 339.057 65.9227 338.726 65.368C338.396 64.8133 338.23 64.1627 338.23 63.416C338.23 62.4667 338.433 61.6133 338.838 60.856C339.254 60.0987 339.825 59.5067 340.55 59.08C341.286 58.6533 342.108 58.44 343.014 58.44C344.166 58.44 345.084 58.7707 345.766 59.432C346.46 60.0827 346.806 60.9733 346.806 62.104C346.806 62.4453 346.769 62.824 346.694 63.24H339.734ZM342.95 59.72C342.193 59.72 341.542 59.9333 340.998 60.36C340.454 60.7867 340.086 61.3733 339.894 62.12H345.366C345.409 61.3627 345.206 60.776 344.758 60.36C344.321 59.9333 343.718 59.72 342.95 59.72ZM352.14 59.784C352.513 59.3147 352.972 58.9733 353.516 58.76C354.06 58.5467 354.721 58.44 355.5 58.44L355.212 59.928C355.116 59.9173 354.982 59.912 354.812 59.912C353.052 59.912 351.985 60.8613 351.612 62.76L350.764 67H349.228L350.908 58.52H352.38L352.14 59.784ZM369.847 57.096C368.834 57.096 368.028 57.3253 367.431 57.784C366.834 58.2427 366.439 58.9787 366.247 59.992L366.071 60.872H370.311L370.103 61.928H365.863L365.127 65.608H371.143L370.855 67H361.495L361.783 65.608H363.527L364.263 61.928H362.487L362.711 60.872H364.471L364.679 59.832C364.956 58.4453 365.564 57.4053 366.503 56.712C367.452 56.0187 368.599 55.672 369.943 55.672C371.351 55.672 372.418 55.9547 373.143 56.52L372.439 57.8C371.788 57.3307 370.924 57.096 369.847 57.096ZM379.304 55.8L377.064 67H375.48L377.432 57.192H374.92L375.192 55.8H379.304ZM382.026 64.904C382.314 64.904 382.554 65.0053 382.746 65.208C382.938 65.4 383.034 65.6453 383.034 65.944C383.034 66.104 383.008 66.2587 382.954 66.408C382.901 66.5573 382.805 66.744 382.666 66.968L381.322 69.368H380.314L381.402 66.968C381.242 66.8827 381.114 66.76 381.018 66.6C380.933 66.44 380.89 66.264 380.89 66.072C380.89 65.7307 380.997 65.4533 381.21 65.24C381.434 65.016 381.706 64.904 382.026 64.904ZM390.104 67.128C388.92 67.128 387.992 66.7653 387.32 66.04C386.648 65.3147 386.312 64.3067 386.312 63.016C386.312 61.7147 386.546 60.504 387.016 59.384C387.485 58.2533 388.146 57.352 389 56.68C389.864 56.008 390.856 55.672 391.976 55.672C393.16 55.672 394.082 56.0347 394.744 56.76C395.416 57.4853 395.752 58.4933 395.752 59.784C395.752 61.0853 395.517 62.3013 395.048 63.432C394.578 64.552 393.912 65.448 393.048 66.12C392.194 66.792 391.213 67.128 390.104 67.128ZM390.232 65.704C391.021 65.704 391.714 65.4053 392.312 64.808C392.909 64.2107 393.362 63.4587 393.672 62.552C393.992 61.6347 394.152 60.7227 394.152 59.816C394.152 58.9413 393.949 58.2693 393.544 57.8C393.138 57.3307 392.573 57.096 391.848 57.096C391.048 57.096 390.349 57.3947 389.752 57.992C389.154 58.5893 388.696 59.3467 388.376 60.264C388.066 61.1707 387.912 62.0773 387.912 62.984C387.912 63.8587 388.114 64.5307 388.52 65C388.925 65.4693 389.496 65.704 390.232 65.704ZM401.96 67.128C400.776 67.128 399.848 66.7653 399.176 66.04C398.504 65.3147 398.168 64.3067 398.168 63.016C398.168 61.7147 398.403 60.504 398.872 59.384C399.341 58.2533 400.003 57.352 400.856 56.68C401.72 56.008 402.712 55.672 403.832 55.672C405.016 55.672 405.939 56.0347 406.6 56.76C407.272 57.4853 407.608 58.4933 407.608 59.784C407.608 61.0853 407.373 62.3013 406.904 63.432C406.435 64.552 405.768 65.448 404.904 66.12C404.051 66.792 403.069 67.128 401.96 67.128ZM402.088 65.704C402.877 65.704 403.571 65.4053 404.168 64.808C404.765 64.2107 405.219 63.4587 405.528 62.552C405.848 61.6347 406.008 60.7227 406.008 59.816C406.008 58.9413 405.805 58.2693 405.4 57.8C404.995 57.3307 404.429 57.096 403.704 57.096C402.904 57.096 402.205 57.3947 401.608 57.992C401.011 58.5893 400.552 59.3467 400.232 60.264C399.923 61.1707 399.768 62.0773 399.768 62.984C399.768 63.8587 399.971 64.5307 400.376 65C400.781 65.4693 401.352 65.704 402.088 65.704ZM413.816 67.128C412.632 67.128 411.704 66.7653 411.032 66.04C410.36 65.3147 410.024 64.3067 410.024 63.016C410.024 61.7147 410.259 60.504 410.728 59.384C411.198 58.2533 411.859 57.352 412.712 56.68C413.576 56.008 414.568 55.672 415.688 55.672C416.872 55.672 417.795 56.0347 418.456 56.76C419.128 57.4853 419.464 58.4933 419.464 59.784C419.464 61.0853 419.23 62.3013 418.76 63.432C418.291 64.552 417.624 65.448 416.76 66.12C415.907 66.792 414.926 67.128 413.816 67.128ZM413.944 65.704C414.734 65.704 415.427 65.4053 416.024 64.808C416.622 64.2107 417.075 63.4587 417.384 62.552C417.704 61.6347 417.864 60.7227 417.864 59.816C417.864 58.9413 417.662 58.2693 417.256 57.8C416.851 57.3307 416.286 57.096 415.56 57.096C414.76 57.096 414.062 57.3947 413.464 57.992C412.867 58.5893 412.408 59.3467 412.088 60.264C411.779 61.1707 411.624 62.0773 411.624 62.984C411.624 63.8587 411.827 64.5307 412.232 65C412.638 65.4693 413.208 65.704 413.944 65.704Z" fill="black"/>
</svg>
