<svg width="24" height="24" viewBox="0 0 24 24" fill="none" xmlns="http://www.w3.org/2000/svg">
<path fill-rule="evenodd" clip-rule="evenodd" d="M19 24H5C2.239 24 0 21.761 0 19V5.00002C0 2.23902 2.239 0 5 0H19C21.762 0 24 2.23902 24 5.00002V19C24 21.761 21.763 23.999 19 24ZM20.2783 18.4615V18.1878L19.0553 16.9426C18.9474 16.8571 18.8934 16.7167 18.916 16.5773V7.4227C18.8934 7.28332 18.9474 7.14291 19.0553 7.05745L20.3077 5.81216V5.53846H15.9707L12.8793 13.5383L9.36231 5.53846H4.8135V5.81216L6.27877 7.64243C6.42196 7.77774 6.49552 7.97515 6.47591 8.17456V15.3696C6.51906 15.6291 6.43961 15.8946 6.26405 16.0839L4.61538 18.1574V18.431H9.28973V18.1574L7.64106 16.0839C7.46354 15.8946 7.38017 15.6311 7.41352 15.3696V9.14722L11.5161 18.431H11.9927L15.5166 9.14722V16.5468C15.5166 16.7441 15.5166 16.7828 15.3921 16.912L14.1249 18.1878V18.4615H20.2783Z" fill="#393939"/>
</svg>
