<svg width="24" height="18" viewBox="0 0 24 18" fill="none" xmlns="http://www.w3.org/2000/svg">
<path d="M24 15.0605C24 15.5853 23.8467 16.0719 23.601 16.5L15.75 8.0421L23.5159 1.5C23.818 1.9616 24 2.50384 24 3.08978V15.0605ZM11.9995 9.75L22.5 0.387783C22.0691 0.14741 21.5839 0 21.0605 0H2.9386C2.41453 0 1.92916 0.14741 1.5 0.387783L11.9995 9.75ZM14.8853 9.0001L12.4897 11.1026C12.3496 11.2249 12.1751 11.286 12 11.286C11.8248 11.286 11.6503 11.2249 11.5102 11.1026L9.11415 9L1.5 17.541C1.95639 17.8281 2.49126 18 3.06971 18H20.9303C21.5086 18 22.0438 17.8281 22.5 17.541L14.8853 9.0001ZM0.484221 1.5C0.182147 1.9616 0 2.50383 0 3.08982V15.0605C0 15.5853 0.152626 16.0719 0.399195 16.5L8.25 8.04068L0.484221 1.5Z" fill="#393939"/>
</svg>
