<svg width="167" height="21" viewBox="0 0 167 21" fill="none" xmlns="http://www.w3.org/2000/svg">
<path d="M0.596 0.399999H7.204V20H0.596V0.399999ZM27.8851 20L27.8291 11.068L23.5731 18.236H20.6611L16.4051 11.376V20H10.3851V0.399999H15.8171L22.2011 10.844L28.4171 0.399999H33.8491L33.9051 20H27.8851ZM37.0999 0.399999H43.7079V20H37.0999V0.399999ZM62.709 10.284H64.081V17.62C63.2223 18.4413 62.177 19.0667 60.945 19.496C59.7316 19.9253 58.4436 20.14 57.081 20.14C55.1396 20.14 53.385 19.7107 51.817 18.852C50.2676 17.9933 49.045 16.808 48.149 15.296C47.2716 13.784 46.833 12.0853 46.833 10.2C46.833 8.31467 47.2716 6.616 48.149 5.104C49.045 3.592 50.2676 2.40667 51.817 1.548C53.385 0.689332 55.149 0.259999 57.109 0.259999C58.5463 0.259999 59.8623 0.493332 61.057 0.96C62.2703 1.408 63.3063 2.07067 64.165 2.948L63.269 3.9C62.4476 3.07867 61.5236 2.49067 60.497 2.136C59.489 1.76267 58.369 1.576 57.137 1.576C55.457 1.576 53.9356 1.94933 52.573 2.696C51.229 3.44267 50.1743 4.47867 49.409 5.804C48.6436 7.11067 48.261 8.576 48.261 10.2C48.261 11.8053 48.6436 13.2707 49.409 14.596C50.193 15.9027 51.257 16.9387 52.601 17.704C53.945 18.4507 55.457 18.824 57.137 18.824C59.377 18.824 61.2343 18.2267 62.709 17.032V10.284ZM83.8892 18.712V20H70.3652V0.399999H83.4692V1.688H71.7932V9.416H82.2372V10.676H71.7932V18.712H83.8892ZM89.0957 0.399999H96.8517C98.8864 0.399999 100.688 0.819999 102.256 1.66C103.842 2.5 105.074 3.66667 105.952 5.16C106.829 6.63467 107.268 8.31467 107.268 10.2C107.268 12.0853 106.829 13.7747 105.952 15.268C105.074 16.7427 103.842 17.9 102.256 18.74C100.688 19.58 98.8864 20 96.8517 20H89.0957V0.399999ZM96.7397 18.712C98.5504 18.712 100.146 18.3573 101.528 17.648C102.909 16.92 103.973 15.912 104.72 14.624C105.466 13.336 105.84 11.8613 105.84 10.2C105.84 8.53867 105.466 7.064 104.72 5.776C103.973 4.488 102.909 3.48933 101.528 2.78C100.146 2.052 98.5504 1.688 96.7397 1.688H90.5237V18.712H96.7397ZM112.229 0.399999H119.985C122.019 0.399999 123.821 0.819999 125.389 1.66C126.975 2.5 128.207 3.66667 129.085 5.16C129.962 6.63467 130.401 8.31467 130.401 10.2C130.401 12.0853 129.962 13.7747 129.085 15.268C128.207 16.7427 126.975 17.9 125.389 18.74C123.821 19.58 122.019 20 119.985 20H112.229V0.399999ZM119.873 18.712C121.683 18.712 123.279 18.3573 124.661 17.648C126.042 16.92 127.106 15.912 127.853 14.624C128.599 13.336 128.973 11.8613 128.973 10.2C128.973 8.53867 128.599 7.064 127.853 5.776C127.106 4.488 126.042 3.48933 124.661 2.78C123.279 2.052 121.683 1.688 119.873 1.688H113.657V18.712H119.873ZM148.885 18.712V20H135.361V0.399999H148.465V1.688H136.789V9.416H147.233V10.676H136.789V18.712H148.885ZM159.244 20.14C157.806 20.14 156.434 19.8973 155.128 19.412C153.84 18.908 152.832 18.264 152.104 17.48L152.748 16.416C153.438 17.144 154.362 17.7413 155.52 18.208C156.696 18.656 157.928 18.88 159.216 18.88C161.082 18.88 162.492 18.5253 163.444 17.816C164.396 17.1067 164.872 16.1827 164.872 15.044C164.872 14.1667 164.62 13.4667 164.116 12.944C163.612 12.4213 162.986 12.02 162.24 11.74C161.493 11.46 160.485 11.1707 159.216 10.872C157.778 10.5173 156.621 10.172 155.744 9.836C154.885 9.5 154.148 8.98667 153.532 8.296C152.934 7.58667 152.636 6.644 152.636 5.468C152.636 4.516 152.888 3.648 153.392 2.864C153.896 2.06133 154.661 1.42667 155.688 0.96C156.733 0.493332 158.03 0.259999 159.58 0.259999C160.662 0.259999 161.726 0.418666 162.772 0.735999C163.817 1.05333 164.722 1.48267 165.488 2.024L164.956 3.172C164.172 2.63067 163.304 2.22 162.352 1.94C161.418 1.66 160.494 1.52 159.58 1.52C157.769 1.52 156.397 1.884 155.464 2.612C154.53 3.34 154.064 4.28267 154.064 5.44C154.064 6.31733 154.316 7.01733 154.82 7.54C155.324 8.06267 155.949 8.464 156.696 8.744C157.442 9.024 158.46 9.32267 159.748 9.64C161.185 9.99467 162.333 10.34 163.192 10.676C164.05 11.012 164.778 11.5253 165.376 12.216C165.992 12.888 166.3 13.8027 166.3 14.96C166.3 15.912 166.038 16.78 165.516 17.564C165.012 18.348 164.228 18.9733 163.164 19.44C162.1 19.9067 160.793 20.14 159.244 20.14Z" fill="#FB5E64"/>
</svg>
