<svg width="83" height="14" viewBox="0 0 83 14" fill="none" xmlns="http://www.w3.org/2000/svg">
<path d="M2.808 0.399999H6.372L3.852 13H0.288L2.808 0.399999ZM23.5236 0.399999L21.0396 13H17.7456L19.0416 6.358L14.8476 11.758H13.2816L10.9956 6.358L9.66361 13H6.38761L8.90761 0.399999H11.8056L14.7576 7.69L20.4816 0.399999H23.5236ZM30.3654 13.252C29.0934 13.252 27.9834 13.018 27.0354 12.55C26.0994 12.082 25.3734 11.428 24.8574 10.588C24.3534 9.748 24.1014 8.788 24.1014 7.708C24.1014 6.268 24.4314 4.972 25.0914 3.82C25.7634 2.668 26.6934 1.768 27.8814 1.12C29.0814 0.471999 30.4434 0.147999 31.9674 0.147999C33.2394 0.147999 34.3434 0.381999 35.2794 0.85C36.2274 1.318 36.9534 1.972 37.4574 2.812C37.9734 3.652 38.2314 4.612 38.2314 5.692C38.2314 7.132 37.8954 8.428 37.2234 9.58C36.5634 10.732 35.6334 11.632 34.4334 12.28C33.2454 12.928 31.8894 13.252 30.3654 13.252ZM30.6714 10.3C31.4634 10.3 32.1594 10.102 32.7594 9.706C33.3594 9.31 33.8214 8.782 34.1454 8.122C34.4694 7.45 34.6314 6.712 34.6314 5.908C34.6314 5.056 34.3674 4.378 33.8394 3.874C33.3234 3.358 32.5974 3.1 31.6614 3.1C30.8694 3.1 30.1734 3.298 29.5734 3.694C28.9734 4.09 28.5114 4.624 28.1874 5.296C27.8634 5.956 27.7014 6.688 27.7014 7.492C27.7014 8.344 27.9594 9.028 28.4754 9.544C29.0034 10.048 29.7354 10.3 30.6714 10.3ZM48.5401 6.43H51.6901L50.6281 11.74C49.9801 12.232 49.2241 12.61 48.3601 12.874C47.5081 13.126 46.6081 13.252 45.6601 13.252C44.3881 13.252 43.2721 13.024 42.3121 12.568C41.3641 12.1 40.6261 11.446 40.0981 10.606C39.5821 9.766 39.3241 8.8 39.3241 7.708C39.3241 6.256 39.6601 4.96 40.3321 3.82C41.0041 2.668 41.9461 1.768 43.1581 1.12C44.3701 0.471999 45.7621 0.147999 47.3341 0.147999C49.8301 0.147999 51.6601 0.921999 52.8241 2.47L50.2681 4.486C49.8601 3.982 49.4101 3.628 48.9181 3.424C48.4261 3.208 47.8441 3.1 47.1721 3.1C46.3201 3.1 45.5701 3.292 44.9221 3.676C44.2861 4.048 43.7941 4.564 43.4461 5.224C43.0981 5.884 42.9241 6.634 42.9241 7.474C42.9241 8.338 43.2061 9.028 43.7701 9.544C44.3341 10.048 45.1261 10.3 46.1461 10.3C46.7581 10.3 47.3161 10.198 47.8201 9.994L48.5401 6.43ZM58.1077 3.154L57.6937 5.278H63.2917L62.7697 7.942H57.1537L56.7037 10.246H63.3097L62.7337 13H52.6357L55.1557 0.399999H65.0197L64.4617 3.154H58.1077ZM79.2194 0.399999L76.6994 13H73.7654L69.6074 6.088L68.2214 13H64.7294L67.2494 0.399999H70.1834L74.3594 7.294L75.7274 0.399999H79.2194ZM80.7614 13.162C80.1974 13.162 79.7294 12.988 79.3574 12.64C78.9974 12.28 78.8174 11.83 78.8174 11.29C78.8174 10.642 79.0274 10.12 79.4474 9.724C79.8794 9.316 80.4014 9.112 81.0134 9.112C81.5894 9.112 82.0514 9.286 82.3994 9.634C82.7594 9.97 82.9394 10.42 82.9394 10.984C82.9394 11.62 82.7234 12.142 82.2914 12.55C81.8714 12.958 81.3614 13.162 80.7614 13.162Z" fill="#E4494E"/>
</svg>
