<svg width="71" height="15" viewBox="0 0 71 15" fill="none" xmlns="http://www.w3.org/2000/svg">
<path d="M0.368 1.148H2.618V14H0.368V1.148ZM5.34177 1.148H8.50977L12.0558 11.21H12.0918L15.5478 1.148H18.6798V14H16.5378V4.082H16.5018L12.9378 14H11.0838L7.51977 4.082H7.48377V14H5.34177V1.148ZM22.8139 8.618C22.8139 9.818 23.1199 10.76 23.7319 11.444C24.3439 12.128 25.2139 12.47 26.3419 12.47C27.0859 12.47 27.7339 12.296 28.2859 11.948C28.8499 11.6 29.3179 11.144 29.6899 10.58C30.0739 10.016 30.3559 9.38 30.5359 8.672C30.7279 7.964 30.8239 7.25 30.8239 6.53C30.8239 5.33 30.5299 4.388 29.9419 3.704C29.3659 3.02 28.5139 2.678 27.3859 2.678C26.6179 2.678 25.9459 2.852 25.3699 3.2C24.8059 3.548 24.3319 4.004 23.9479 4.568C23.5759 5.132 23.2939 5.768 23.1019 6.476C22.9099 7.184 22.8139 7.898 22.8139 8.618ZM20.5639 8.69C20.5639 7.346 20.7619 6.182 21.1579 5.198C21.5659 4.202 22.0939 3.386 22.7419 2.75C23.4019 2.102 24.1399 1.622 24.9559 1.31C25.7839 0.998 26.6179 0.842 27.4579 0.842C28.2979 0.842 29.0659 0.98 29.7619 1.256C30.4579 1.532 31.0459 1.922 31.5259 2.426C32.0179 2.918 32.3959 3.506 32.6599 4.19C32.9359 4.874 33.0739 5.63 33.0739 6.458C33.0739 7.814 32.8819 8.984 32.4979 9.968C32.1139 10.952 31.6039 11.768 30.9679 12.416C30.3319 13.052 29.6059 13.526 28.7899 13.838C27.9739 14.15 27.1339 14.306 26.2699 14.306C25.3459 14.306 24.5299 14.162 23.8219 13.874C23.1139 13.586 22.5199 13.19 22.0399 12.686C21.5599 12.182 21.1939 11.588 20.9419 10.904C20.6899 10.22 20.5639 9.482 20.5639 8.69ZM46.2461 14H44.8061L44.4641 12.488C43.8641 13.172 43.2641 13.646 42.6641 13.91C42.0641 14.174 41.3741 14.306 40.5941 14.306C39.6341 14.306 38.7701 14.132 38.0021 13.784C37.2461 13.424 36.6041 12.938 36.0761 12.326C35.5481 11.714 35.1401 11 34.8521 10.184C34.5761 9.368 34.4381 8.498 34.4381 7.574C34.4381 6.662 34.5761 5.798 34.8521 4.982C35.1401 4.166 35.5481 3.452 36.0761 2.84C36.6041 2.228 37.2461 1.742 38.0021 1.382C38.7701 1.022 39.6341 0.842 40.5941 0.842C41.2901 0.842 41.9501 0.938 42.5741 1.13C43.2101 1.31 43.7741 1.586 44.2661 1.958C44.7581 2.318 45.1661 2.774 45.4901 3.326C45.8141 3.878 46.0181 4.514 46.1021 5.234H43.9061C43.8461 4.814 43.7141 4.448 43.5101 4.136C43.3181 3.812 43.0721 3.542 42.7721 3.326C42.4721 3.11 42.1361 2.948 41.7641 2.84C41.3921 2.732 41.0021 2.678 40.5941 2.678C39.9101 2.678 39.3161 2.816 38.8121 3.092C38.3201 3.368 37.9181 3.74 37.6061 4.208C37.2941 4.664 37.0601 5.186 36.9041 5.774C36.7601 6.362 36.6881 6.962 36.6881 7.574C36.6881 8.186 36.7601 8.786 36.9041 9.374C37.0601 9.962 37.2941 10.49 37.6061 10.958C37.9181 11.414 38.3201 11.78 38.8121 12.056C39.3161 12.332 39.9101 12.47 40.5941 12.47C41.1701 12.482 41.6801 12.41 42.1241 12.254C42.5681 12.086 42.9401 11.852 43.2401 11.552C43.5521 11.24 43.7861 10.862 43.9421 10.418C44.0981 9.974 44.1821 9.482 44.1941 8.942H40.7741V7.232H46.2461V14ZM48.6903 1.148H57.9423V3.092H50.9403V6.458H57.4203V8.294H50.9403V12.056H58.0683V14H48.6903V1.148ZM59.9382 1.148H62.3142L68.1822 10.616H68.2182V1.148H70.3602V14H67.9842L62.1342 4.55H62.0802V14H59.9382V1.148Z" fill="#373737"/>
</svg>
