<svg width="651" height="134" viewBox="0 0 651 134" fill="none" xmlns="http://www.w3.org/2000/svg">
<path d="M0 3C0 1.34314 1.34315 0 3 0H648C649.657 0 651 1.34315 651 3V95.6096C651 97.2664 649.657 98.6096 648 98.6096H568.301C567.192 98.6096 566.177 99.2194 565.709 100.224C563.744 104.452 558.963 116.178 561.398 125.685C562.135 128.561 559.611 132.992 556.717 132.328C527.23 125.558 513.329 105.903 509.836 100.187C509.247 99.224 508.22 98.6096 507.092 98.6096H3C1.34315 98.6096 0 97.2664 0 95.6096V3Z" fill="#C9EAE6"/>
<path d="M38.6788 33.8H40.2788L38.0388 45H36.4388L38.6788 33.8ZM46.2968 48.2C45.5181 48.2 44.8941 48.0293 44.4248 47.688L45.0968 46.504C45.4275 46.7707 45.8328 46.904 46.3128 46.904C46.7395 46.904 47.0755 46.7813 47.3208 46.536C47.5661 46.3013 47.7421 45.9227 47.8488 45.4L49.6248 36.52H51.1608L49.3848 45.4C49.0115 47.2667 47.9821 48.2 46.2968 48.2ZM50.8408 34.888C50.5635 34.888 50.3341 34.7973 50.1528 34.616C49.9715 34.4347 49.8808 34.216 49.8808 33.96C49.8808 33.6613 49.9821 33.4107 50.1848 33.208C50.3981 32.9947 50.6648 32.888 50.9848 32.888C51.2621 32.888 51.4915 32.9787 51.6728 33.16C51.8648 33.3307 51.9608 33.5387 51.9608 33.784C51.9608 34.1147 51.8541 34.3813 51.6408 34.584C51.4381 34.7867 51.1715 34.888 50.8408 34.888ZM63.2117 36.52L61.5317 45H60.0597L60.2677 43.912C59.8837 44.3067 59.4304 44.6053 58.9077 44.808C58.3957 45 57.8357 45.096 57.2277 45.096C56.289 45.096 55.5477 44.8453 55.0037 44.344C54.4597 43.8427 54.1877 43.144 54.1877 42.248C54.1877 41.9493 54.2197 41.624 54.2837 41.272L55.2277 36.52H56.7637L55.8197 41.288C55.7664 41.576 55.7397 41.816 55.7397 42.008C55.7397 42.5627 55.8997 42.9893 56.2197 43.288C56.5504 43.576 57.0357 43.72 57.6757 43.72C58.4864 43.72 59.1584 43.4907 59.6917 43.032C60.2357 42.5733 60.5984 41.9013 60.7797 41.016L61.6757 36.52H63.2117ZM68.3278 45.096C67.6238 45.096 66.9518 45.0053 66.3118 44.824C65.6825 44.6427 65.1918 44.408 64.8398 44.12L65.5278 42.904C65.8585 43.1707 66.2851 43.384 66.8078 43.544C67.3411 43.6933 67.8958 43.768 68.4718 43.768C69.1971 43.768 69.7465 43.6613 70.1198 43.448C70.5038 43.224 70.6958 42.9147 70.6958 42.52C70.6958 42.2 70.5411 41.9707 70.2318 41.832C69.9331 41.6933 69.4638 41.5547 68.8238 41.416C68.2265 41.288 67.7358 41.16 67.3518 41.032C66.9785 40.8933 66.6585 40.68 66.3918 40.392C66.1251 40.0933 65.9918 39.6933 65.9918 39.192C65.9918 38.6373 66.1465 38.152 66.4558 37.736C66.7758 37.32 67.2238 37 67.7998 36.776C68.3865 36.552 69.0638 36.44 69.8318 36.44C70.3971 36.44 70.9465 36.5093 71.4798 36.648C72.0131 36.7867 72.4505 36.9733 72.7918 37.208L72.1838 38.424C71.8531 38.2 71.4691 38.0347 71.0318 37.928C70.5945 37.8107 70.1465 37.752 69.6878 37.752C68.9945 37.752 68.4611 37.8693 68.0878 38.104C67.7145 38.328 67.5278 38.632 67.5278 39.016C67.5278 39.3573 67.6825 39.6027 67.9918 39.752C68.3011 39.8907 68.7811 40.0293 69.4318 40.168C70.0185 40.296 70.4985 40.424 70.8718 40.552C71.2451 40.68 71.5598 40.888 71.8158 41.176C72.0825 41.464 72.2158 41.8533 72.2158 42.344C72.2158 43.208 71.8585 43.8853 71.1438 44.376C70.4398 44.856 69.5011 45.096 68.3278 45.096ZM77.1434 42.296C77.1114 42.456 77.0954 42.6053 77.0954 42.744C77.0954 43.0853 77.1861 43.3467 77.3674 43.528C77.5594 43.7093 77.8421 43.8 78.2154 43.8C78.6634 43.8 79.0688 43.6667 79.4314 43.4L79.7514 44.568C79.2394 44.92 78.5834 45.096 77.7834 45.096C77.1114 45.096 76.5674 44.9093 76.1514 44.536C75.7461 44.152 75.5434 43.6293 75.5434 42.968C75.5434 42.744 75.5648 42.5307 75.6074 42.328L76.5194 37.784H75.0794L75.3194 36.52H76.7754L77.1434 34.664H78.6794L78.3114 36.52H80.7434L80.4874 37.784H78.0554L77.1434 42.296ZM102.785 36.52L98.0333 45H96.5293L95.2333 38.584L91.5533 45H90.0813L88.4653 36.52H89.8573L91.1053 43.24L94.9453 36.52H96.2573L97.5373 43.24L101.329 36.52H102.785ZM113.245 36.52L111.565 45H110.093L110.301 43.96C109.917 44.3227 109.469 44.6053 108.957 44.808C108.455 45 107.906 45.096 107.309 45.096C106.583 45.096 105.938 44.952 105.373 44.664C104.807 44.3653 104.365 43.9387 104.045 43.384C103.725 42.8293 103.565 42.1787 103.565 41.432C103.565 40.472 103.773 39.6133 104.189 38.856C104.605 38.0987 105.175 37.5067 105.901 37.08C106.637 36.6533 107.458 36.44 108.365 36.44C109.09 36.44 109.709 36.568 110.221 36.824C110.743 37.08 111.143 37.4587 111.421 37.96L111.709 36.52H113.245ZM107.645 43.752C108.274 43.752 108.839 43.6027 109.341 43.304C109.853 42.9947 110.247 42.568 110.525 42.024C110.813 41.48 110.957 40.8613 110.957 40.168C110.957 39.4107 110.738 38.824 110.301 38.408C109.863 37.992 109.239 37.784 108.429 37.784C107.799 37.784 107.234 37.9387 106.733 38.248C106.231 38.5467 105.837 38.968 105.549 39.512C105.261 40.056 105.117 40.6747 105.117 41.368C105.117 42.1147 105.335 42.7013 105.773 43.128C106.221 43.544 106.845 43.752 107.645 43.752ZM121.703 36.44C122.674 36.44 123.426 36.6853 123.959 37.176C124.503 37.6667 124.775 38.36 124.775 39.256C124.775 39.5653 124.743 39.896 124.679 40.248L123.735 45H122.199L123.143 40.248C123.196 39.96 123.223 39.7253 123.223 39.544C123.223 38.9893 123.058 38.5627 122.727 38.264C122.396 37.9653 121.906 37.816 121.255 37.816C120.423 37.816 119.735 38.0453 119.191 38.504C118.658 38.952 118.3 39.624 118.119 40.52L117.223 45H115.687L117.367 36.52H118.839L118.631 37.608C119.399 36.8293 120.423 36.44 121.703 36.44ZM130.05 42.296C130.018 42.456 130.002 42.6053 130.002 42.744C130.002 43.0853 130.092 43.3467 130.274 43.528C130.466 43.7093 130.748 43.8 131.122 43.8C131.57 43.8 131.975 43.6667 132.338 43.4L132.658 44.568C132.146 44.92 131.49 45.096 130.69 45.096C130.018 45.096 129.474 44.9093 129.058 44.536C128.652 44.152 128.45 43.6293 128.45 42.968C128.45 42.744 128.471 42.5307 128.514 42.328L129.426 37.784H127.986L128.226 36.52H129.682L130.05 34.664H131.586L131.218 36.52H133.65L133.394 37.784H130.962L130.05 42.296ZM143.372 42.296C143.34 42.456 143.324 42.6053 143.324 42.744C143.324 43.0853 143.414 43.3467 143.596 43.528C143.788 43.7093 144.07 43.8 144.444 43.8C144.892 43.8 145.297 43.6667 145.66 43.4L145.98 44.568C145.468 44.92 144.812 45.096 144.012 45.096C143.34 45.096 142.796 44.9093 142.38 44.536C141.974 44.152 141.772 43.6293 141.772 42.968C141.772 42.744 141.793 42.5307 141.836 42.328L142.748 37.784H141.308L141.548 36.52H143.004L143.372 34.664H144.908L144.54 36.52H146.972L146.716 37.784H144.284L143.372 42.296ZM152.611 45.096C151.811 45.096 151.113 44.9467 150.515 44.648C149.918 44.3387 149.454 43.9067 149.123 43.352C148.793 42.7973 148.627 42.1573 148.627 41.432C148.627 40.4827 148.841 39.6293 149.267 38.872C149.694 38.1147 150.286 37.5227 151.043 37.096C151.801 36.6587 152.654 36.44 153.603 36.44C154.403 36.44 155.102 36.5893 155.699 36.888C156.297 37.1867 156.755 37.6133 157.075 38.168C157.406 38.712 157.571 39.352 157.571 40.088C157.571 41.0373 157.358 41.896 156.931 42.664C156.505 43.4213 155.913 44.0187 155.155 44.456C154.409 44.8827 153.561 45.096 152.611 45.096ZM152.707 43.752C153.337 43.752 153.902 43.6027 154.403 43.304C154.915 42.9947 155.31 42.568 155.587 42.024C155.875 41.48 156.019 40.8613 156.019 40.168C156.019 39.4107 155.801 38.824 155.363 38.408C154.926 37.992 154.302 37.784 153.491 37.784C152.862 37.784 152.297 37.9387 151.795 38.248C151.294 38.5467 150.899 38.968 150.611 39.512C150.323 40.056 150.179 40.6747 150.179 41.368C150.179 42.1147 150.398 42.7013 150.835 43.128C151.283 43.544 151.907 43.752 152.707 43.752ZM171.432 36.44C172.158 36.44 172.803 36.5893 173.368 36.888C173.934 37.176 174.376 37.5973 174.696 38.152C175.016 38.696 175.176 39.3413 175.176 40.088C175.176 41.048 174.968 41.9067 174.552 42.664C174.136 43.4213 173.56 44.0187 172.824 44.456C172.099 44.8827 171.283 45.096 170.376 45.096C169.63 45.096 168.99 44.9573 168.456 44.68C167.934 44.4027 167.539 43.9973 167.272 43.464L166.952 45H165.496L167.864 33.128H169.4L168.52 37.496C169.31 36.792 170.28 36.44 171.432 36.44ZM170.312 43.752C170.942 43.752 171.507 43.6027 172.008 43.304C172.51 42.9947 172.904 42.568 173.192 42.024C173.48 41.48 173.624 40.8613 173.624 40.168C173.624 39.4107 173.406 38.824 172.968 38.408C172.531 37.992 171.907 37.784 171.096 37.784C170.467 37.784 169.896 37.9387 169.384 38.248C168.883 38.5467 168.488 38.968 168.2 39.512C167.923 40.056 167.784 40.6747 167.784 41.368C167.784 42.1147 168.003 42.7013 168.44 43.128C168.888 43.544 169.512 43.752 170.312 43.752ZM187.187 36.52L185.507 45H184.035L184.243 43.912C183.859 44.3067 183.405 44.6053 182.883 44.808C182.371 45 181.811 45.096 181.203 45.096C180.264 45.096 179.523 44.8453 178.979 44.344C178.435 43.8427 178.163 43.144 178.163 42.248C178.163 41.9493 178.195 41.624 178.259 41.272L179.203 36.52H180.739L179.795 41.288C179.741 41.576 179.715 41.816 179.715 42.008C179.715 42.5627 179.875 42.9893 180.195 43.288C180.525 43.576 181.011 43.72 181.651 43.72C182.461 43.72 183.133 43.4907 183.667 43.032C184.211 42.5733 184.573 41.9013 184.755 41.016L185.651 36.52H187.187ZM198.815 36.52L192.799 45.928C192.255 46.7813 191.737 47.3733 191.247 47.704C190.756 48.0347 190.175 48.2 189.503 48.2C189.087 48.2 188.681 48.1307 188.287 47.992C187.892 47.864 187.588 47.6827 187.375 47.448L188.175 46.312C188.559 46.696 189.039 46.888 189.615 46.888C189.977 46.888 190.297 46.792 190.575 46.6C190.852 46.408 191.14 46.0827 191.439 45.624L191.871 44.952L189.823 36.52H191.359L192.991 43.304L197.263 36.52H198.815ZM214.929 36.52L213.249 45H211.777L211.985 43.96C211.601 44.3227 211.153 44.6053 210.641 44.808C210.14 45 209.591 45.096 208.993 45.096C208.268 45.096 207.623 44.952 207.057 44.664C206.492 44.3653 206.049 43.9387 205.729 43.384C205.409 42.8293 205.249 42.1787 205.249 41.432C205.249 40.472 205.457 39.6133 205.873 38.856C206.289 38.0987 206.86 37.5067 207.585 37.08C208.321 36.6533 209.143 36.44 210.049 36.44C210.775 36.44 211.393 36.568 211.905 36.824C212.428 37.08 212.828 37.4587 213.105 37.96L213.393 36.52H214.929ZM209.329 43.752C209.959 43.752 210.524 43.6027 211.025 43.304C211.537 42.9947 211.932 42.568 212.209 42.024C212.497 41.48 212.641 40.8613 212.641 40.168C212.641 39.4107 212.423 38.824 211.985 38.408C211.548 37.992 210.924 37.784 210.113 37.784C209.484 37.784 208.919 37.9387 208.417 38.248C207.916 38.5467 207.521 38.968 207.233 39.512C206.945 40.056 206.801 40.6747 206.801 41.368C206.801 42.1147 207.02 42.7013 207.457 43.128C207.905 43.544 208.529 43.752 209.329 43.752ZM228.804 36.44C229.53 36.44 230.175 36.5893 230.74 36.888C231.306 37.176 231.748 37.5973 232.068 38.152C232.388 38.696 232.548 39.3413 232.548 40.088C232.548 41.048 232.34 41.9067 231.924 42.664C231.508 43.4213 230.932 44.0187 230.196 44.456C229.471 44.8827 228.655 45.096 227.748 45.096C227.002 45.096 226.362 44.9573 225.828 44.68C225.306 44.4027 224.911 43.9973 224.644 43.464L224.324 45H222.868L225.236 33.128H226.772L225.892 37.496C226.682 36.792 227.652 36.44 228.804 36.44ZM227.684 43.752C228.314 43.752 228.879 43.6027 229.38 43.304C229.882 42.9947 230.276 42.568 230.564 42.024C230.852 41.48 230.996 40.8613 230.996 40.168C230.996 39.4107 230.778 38.824 230.34 38.408C229.903 37.992 229.279 37.784 228.468 37.784C227.839 37.784 227.268 37.9387 226.756 38.248C226.255 38.5467 225.86 38.968 225.572 39.512C225.295 40.056 225.156 40.6747 225.156 41.368C225.156 42.1147 225.375 42.7013 225.812 43.128C226.26 43.544 226.884 43.752 227.684 43.752ZM236.655 36.52H238.191L236.511 45H234.975L236.655 36.52ZM237.871 34.888C237.593 34.888 237.364 34.7973 237.183 34.616C237.001 34.4347 236.911 34.216 236.911 33.96C236.911 33.6613 237.012 33.4107 237.215 33.208C237.428 32.9947 237.695 32.888 238.015 32.888C238.292 32.888 238.521 32.9787 238.703 33.16C238.895 33.3307 238.991 33.5387 238.991 33.784C238.991 34.1147 238.884 34.3813 238.671 34.584C238.468 34.7867 238.201 34.888 237.871 34.888ZM242.915 42.296C242.883 42.456 242.867 42.6053 242.867 42.744C242.867 43.0853 242.958 43.3467 243.139 43.528C243.331 43.7093 243.614 43.8 243.987 43.8C244.435 43.8 244.841 43.6667 245.203 43.4L245.523 44.568C245.011 44.92 244.355 45.096 243.555 45.096C242.883 45.096 242.339 44.9093 241.923 44.536C241.518 44.152 241.315 43.6293 241.315 42.968C241.315 42.744 241.337 42.5307 241.379 42.328L242.291 37.784H240.851L241.091 36.52H242.547L242.915 34.664H244.451L244.083 36.52H246.515L246.259 37.784H243.827L242.915 42.296ZM257.933 45.096C257.133 45.096 256.435 44.9467 255.837 44.648C255.24 44.3387 254.776 43.9067 254.445 43.352C254.115 42.7973 253.949 42.1573 253.949 41.432C253.949 40.4827 254.163 39.6293 254.589 38.872C255.016 38.1147 255.608 37.5227 256.365 37.096C257.123 36.6587 257.976 36.44 258.925 36.44C259.725 36.44 260.424 36.5893 261.021 36.888C261.619 37.1867 262.077 37.6133 262.397 38.168C262.728 38.712 262.893 39.352 262.893 40.088C262.893 41.0373 262.68 41.896 262.253 42.664C261.827 43.4213 261.235 44.0187 260.477 44.456C259.731 44.8827 258.883 45.096 257.933 45.096ZM258.029 43.752C258.659 43.752 259.224 43.6027 259.725 43.304C260.237 42.9947 260.632 42.568 260.909 42.024C261.197 41.48 261.341 40.8613 261.341 40.168C261.341 39.4107 261.123 38.824 260.685 38.408C260.248 37.992 259.624 37.784 258.813 37.784C258.184 37.784 257.619 37.9387 257.117 38.248C256.616 38.5467 256.221 38.968 255.933 39.512C255.645 40.056 255.501 40.6747 255.501 41.368C255.501 42.1147 255.72 42.7013 256.157 43.128C256.605 43.544 257.229 43.752 258.029 43.752ZM270.537 34.296C270.079 34.296 269.716 34.424 269.449 34.68C269.183 34.9253 268.991 35.3147 268.873 35.848L268.729 36.52H271.193L270.937 37.784H268.521L267.065 45H265.529L266.985 37.784H265.529L265.769 36.52H267.241L267.401 35.72C267.572 34.856 267.919 34.1947 268.441 33.736C268.975 33.2667 269.673 33.032 270.537 33.032C270.889 33.032 271.22 33.08 271.529 33.176C271.849 33.2613 272.111 33.3893 272.313 33.56L271.673 34.696C271.375 34.4293 270.996 34.296 270.537 34.296ZM287.323 36.52L285.643 45H284.171L284.379 43.96C283.995 44.3227 283.547 44.6053 283.035 44.808C282.534 45 281.984 45.096 281.387 45.096C280.662 45.096 280.016 44.952 279.451 44.664C278.886 44.3653 278.443 43.9387 278.123 43.384C277.803 42.8293 277.643 42.1787 277.643 41.432C277.643 40.472 277.851 39.6133 278.267 38.856C278.683 38.0987 279.254 37.5067 279.979 37.08C280.715 36.6533 281.536 36.44 282.443 36.44C283.168 36.44 283.787 36.568 284.299 36.824C284.822 37.08 285.222 37.4587 285.499 37.96L285.787 36.52H287.323ZM281.723 43.752C282.352 43.752 282.918 43.6027 283.419 43.304C283.931 42.9947 284.326 42.568 284.603 42.024C284.891 41.48 285.035 40.8613 285.035 40.168C285.035 39.4107 284.816 38.824 284.379 38.408C283.942 37.992 283.318 37.784 282.507 37.784C281.878 37.784 281.312 37.9387 280.811 38.248C280.31 38.5467 279.915 38.968 279.627 39.512C279.339 40.056 279.195 40.6747 279.195 41.368C279.195 42.1147 279.414 42.7013 279.851 43.128C280.299 43.544 280.923 43.752 281.723 43.752ZM309.854 36.52L305.102 45H303.598L302.302 38.584L298.622 45H297.15L295.534 36.52H296.926L298.174 43.24L302.014 36.52H303.326L304.606 43.24L308.398 36.52H309.854ZM312.564 36.52H314.1L312.42 45H310.884L312.564 36.52ZM313.78 34.888C313.503 34.888 313.273 34.7973 313.092 34.616C312.911 34.4347 312.82 34.216 312.82 33.96C312.82 33.6613 312.921 33.4107 313.124 33.208C313.337 32.9947 313.604 32.888 313.924 32.888C314.201 32.888 314.431 32.9787 314.612 33.16C314.804 33.3307 314.9 33.5387 314.9 33.784C314.9 34.1147 314.793 34.3813 314.58 34.584C314.377 34.7867 314.111 34.888 313.78 34.888ZM322.569 36.44C323.539 36.44 324.291 36.6853 324.825 37.176C325.369 37.6667 325.641 38.36 325.641 39.256C325.641 39.5653 325.609 39.896 325.545 40.248L324.601 45H323.065L324.009 40.248C324.062 39.96 324.089 39.7253 324.089 39.544C324.089 38.9893 323.923 38.5627 323.593 38.264C323.262 37.9653 322.771 37.816 322.121 37.816C321.289 37.816 320.601 38.0453 320.057 38.504C319.523 38.952 319.166 39.624 318.985 40.52L318.089 45H316.553L318.233 36.52H319.705L319.497 37.608C320.265 36.8293 321.289 36.44 322.569 36.44ZM339.042 33.128L336.674 45H335.202L335.41 43.96C335.026 44.3227 334.578 44.6053 334.066 44.808C333.565 45 333.016 45.096 332.418 45.096C331.693 45.096 331.048 44.952 330.482 44.664C329.917 44.3653 329.474 43.9387 329.154 43.384C328.834 42.8293 328.674 42.1787 328.674 41.432C328.674 40.472 328.882 39.6133 329.298 38.856C329.714 38.0987 330.285 37.5067 331.01 37.08C331.746 36.6533 332.568 36.44 333.474 36.44C334.2 36.44 334.824 36.5733 335.346 36.84C335.88 37.096 336.28 37.4747 336.546 37.976L337.506 33.128H339.042ZM332.754 43.752C333.384 43.752 333.949 43.6027 334.45 43.304C334.962 42.9947 335.357 42.568 335.634 42.024C335.922 41.48 336.066 40.8613 336.066 40.168C336.066 39.4107 335.848 38.824 335.41 38.408C334.973 37.992 334.349 37.784 333.538 37.784C332.909 37.784 332.344 37.9387 331.842 38.248C331.341 38.5467 330.946 38.968 330.658 39.512C330.37 40.056 330.226 40.6747 330.226 41.368C330.226 42.1147 330.445 42.7013 330.882 43.128C331.33 43.544 331.954 43.752 332.754 43.752ZM351.509 34.296C351.051 34.296 350.688 34.424 350.421 34.68C350.155 34.9253 349.963 35.3147 349.845 35.848L349.701 36.52H352.165L351.909 37.784H349.493L348.037 45H346.501L347.957 37.784H346.501L346.741 36.52H348.213L348.373 35.72C348.544 34.856 348.891 34.1947 349.413 33.736C349.947 33.2667 350.645 33.032 351.509 33.032C351.861 33.032 352.192 33.08 352.501 33.176C352.821 33.2613 353.083 33.3893 353.285 33.56L352.645 34.696C352.347 34.4293 351.968 34.296 351.509 34.296ZM362.673 36.52L360.993 45H359.521L359.729 43.96C359.345 44.3227 358.897 44.6053 358.385 44.808C357.884 45 357.334 45.096 356.737 45.096C356.012 45.096 355.366 44.952 354.801 44.664C354.236 44.3653 353.793 43.9387 353.473 43.384C353.153 42.8293 352.993 42.1787 352.993 41.432C352.993 40.472 353.201 39.6133 353.617 38.856C354.033 38.0987 354.604 37.5067 355.329 37.08C356.065 36.6533 356.886 36.44 357.793 36.44C358.518 36.44 359.137 36.568 359.649 36.824C360.172 37.08 360.572 37.4587 360.849 37.96L361.137 36.52H362.673ZM357.073 43.752C357.702 43.752 358.268 43.6027 358.769 43.304C359.281 42.9947 359.676 42.568 359.953 42.024C360.241 41.48 360.385 40.8613 360.385 40.168C360.385 39.4107 360.166 38.824 359.729 38.408C359.292 37.992 358.668 37.784 357.857 37.784C357.228 37.784 356.662 37.9387 356.161 38.248C355.66 38.5467 355.265 38.968 354.977 39.512C354.689 40.056 354.545 40.6747 354.545 41.368C354.545 42.1147 354.764 42.7013 355.201 43.128C355.649 43.544 356.273 43.752 357.073 43.752ZM368.027 37.784C368.401 37.3147 368.859 36.9733 369.403 36.76C369.947 36.5467 370.609 36.44 371.387 36.44L371.099 37.928C371.003 37.9173 370.87 37.912 370.699 37.912C368.939 37.912 367.873 38.8613 367.499 40.76L366.651 45H365.115L366.795 36.52H368.267L368.027 37.784ZM384.832 36.44C385.792 36.44 386.539 36.6853 387.072 37.176C387.616 37.656 387.888 38.344 387.888 39.24C387.888 39.4853 387.851 39.8213 387.776 40.248L386.832 45H385.296L386.24 40.248C386.294 39.9493 386.32 39.704 386.32 39.512C386.32 38.9573 386.166 38.536 385.856 38.248C385.547 37.96 385.078 37.816 384.448 37.816C383.659 37.816 383.008 38.04 382.496 38.488C381.995 38.9253 381.654 39.5867 381.472 40.472L380.56 45H379.024L379.984 40.248C380.038 39.96 380.064 39.72 380.064 39.528C380.064 38.9733 379.904 38.552 379.584 38.264C379.275 37.9653 378.806 37.816 378.176 37.816C377.387 37.816 376.736 38.04 376.224 38.488C375.723 38.936 375.382 39.6133 375.2 40.52L374.304 45H372.768L374.448 36.52H375.92L375.712 37.576C376.459 36.8187 377.44 36.44 378.656 36.44C379.318 36.44 379.883 36.568 380.352 36.824C380.822 37.08 381.163 37.4533 381.376 37.944C382.24 36.9413 383.392 36.44 384.832 36.44ZM391.483 42.904C391.771 42.904 392.011 43.0053 392.203 43.208C392.395 43.4 392.491 43.6453 392.491 43.944C392.491 44.104 392.464 44.2587 392.411 44.408C392.357 44.5573 392.261 44.744 392.123 44.968L390.779 47.368H389.771L390.859 44.968C390.699 44.8827 390.571 44.76 390.475 44.6C390.389 44.44 390.347 44.264 390.347 44.072C390.347 43.7307 390.453 43.4533 390.667 43.24C390.891 43.016 391.163 42.904 391.483 42.904ZM415.788 36.52L411.036 45H409.532L408.236 38.584L404.556 45H403.084L401.468 36.52H402.86L404.108 43.24L407.948 36.52H409.26L410.54 43.24L414.332 36.52H415.788ZM422.834 36.44C423.805 36.44 424.557 36.6853 425.09 37.176C425.634 37.6667 425.906 38.36 425.906 39.256C425.906 39.5653 425.874 39.896 425.81 40.248L424.866 45H423.33L424.274 40.248C424.328 39.96 424.354 39.7253 424.354 39.544C424.354 38.9893 424.189 38.5627 423.858 38.264C423.528 37.9653 423.037 37.816 422.386 37.816C421.554 37.816 420.866 38.0453 420.322 38.504C419.789 38.952 419.432 39.624 419.25 40.52L418.354 45H416.818L419.186 33.128H420.722L419.842 37.512C420.6 36.7973 421.597 36.44 422.834 36.44ZM437.937 36.52L431.921 45.928C431.377 46.7813 430.859 47.3733 430.369 47.704C429.878 48.0347 429.297 48.2 428.625 48.2C428.209 48.2 427.803 48.1307 427.409 47.992C427.014 47.864 426.71 47.6827 426.497 47.448L427.297 46.312C427.681 46.696 428.161 46.888 428.737 46.888C429.099 46.888 429.419 46.792 429.697 46.6C429.974 46.408 430.262 46.0827 430.561 45.624L430.993 44.952L428.945 36.52H430.481L432.113 43.304L436.385 36.52H437.937ZM454.051 36.52L452.371 45H450.899L451.107 43.96C450.723 44.3227 450.275 44.6053 449.763 44.808C449.262 45 448.712 45.096 448.115 45.096C447.39 45.096 446.744 44.952 446.179 44.664C445.614 44.3653 445.171 43.9387 444.851 43.384C444.531 42.8293 444.371 42.1787 444.371 41.432C444.371 40.472 444.579 39.6133 444.995 38.856C445.411 38.0987 445.982 37.5067 446.707 37.08C447.443 36.6533 448.264 36.44 449.171 36.44C449.896 36.44 450.515 36.568 451.027 36.824C451.55 37.08 451.95 37.4587 452.227 37.96L452.515 36.52H454.051ZM448.451 43.752C449.08 43.752 449.646 43.6027 450.147 43.304C450.659 42.9947 451.054 42.568 451.331 42.024C451.619 41.48 451.763 40.8613 451.763 40.168C451.763 39.4107 451.544 38.824 451.107 38.408C450.67 37.992 450.046 37.784 449.235 37.784C448.606 37.784 448.04 37.9387 447.539 38.248C447.038 38.5467 446.643 38.968 446.355 39.512C446.067 40.056 445.923 40.6747 445.923 41.368C445.923 42.1147 446.142 42.7013 446.579 43.128C447.027 43.544 447.651 43.752 448.451 43.752ZM468.557 36.44C469.517 36.44 470.264 36.6853 470.797 37.176C471.341 37.656 471.613 38.344 471.613 39.24C471.613 39.4853 471.576 39.8213 471.501 40.248L470.557 45H469.021L469.965 40.248C470.019 39.9493 470.045 39.704 470.045 39.512C470.045 38.9573 469.891 38.536 469.581 38.248C469.272 37.96 468.803 37.816 468.173 37.816C467.384 37.816 466.733 38.04 466.221 38.488C465.72 38.9253 465.379 39.5867 465.197 40.472L464.285 45H462.749L463.709 40.248C463.763 39.96 463.789 39.72 463.789 39.528C463.789 38.9733 463.629 38.552 463.309 38.264C463 37.9653 462.531 37.816 461.901 37.816C461.112 37.816 460.461 38.04 459.949 38.488C459.448 38.936 459.107 39.6133 458.925 40.52L458.029 45H456.493L458.173 36.52H459.645L459.437 37.576C460.184 36.8187 461.165 36.44 462.381 36.44C463.043 36.44 463.608 36.568 464.077 36.824C464.547 37.08 464.888 37.4533 465.101 37.944C465.965 36.9413 467.117 36.44 468.557 36.44ZM482.544 33.8H484.144L481.904 45H480.304L482.544 33.8ZM497.682 36.44C498.408 36.44 499.053 36.5893 499.618 36.888C500.184 37.176 500.626 37.5973 500.946 38.152C501.266 38.696 501.426 39.3413 501.426 40.088C501.426 41.048 501.218 41.9067 500.802 42.664C500.386 43.4213 499.81 44.0187 499.074 44.456C498.349 44.8827 497.533 45.096 496.626 45.096C495.88 45.096 495.24 44.9573 494.706 44.68C494.184 44.4027 493.789 43.9973 493.522 43.464L493.202 45H491.746L494.114 33.128H495.65L494.77 37.496C495.56 36.792 496.53 36.44 497.682 36.44ZM496.562 43.752C497.192 43.752 497.757 43.6027 498.258 43.304C498.76 42.9947 499.154 42.568 499.442 42.024C499.73 41.48 499.874 40.8613 499.874 40.168C499.874 39.4107 499.656 38.824 499.218 38.408C498.781 37.992 498.157 37.784 497.346 37.784C496.717 37.784 496.146 37.9387 495.634 38.248C495.133 38.5467 494.738 38.968 494.45 39.512C494.173 40.056 494.034 40.6747 494.034 41.368C494.034 42.1147 494.253 42.7013 494.69 43.128C495.138 43.544 495.762 43.752 496.562 43.752ZM505.341 41.24V41.336C505.341 42.1253 505.565 42.728 506.013 43.144C506.461 43.5493 507.133 43.752 508.029 43.752C508.551 43.752 509.042 43.6667 509.501 43.496C509.959 43.3147 510.343 43.0747 510.653 42.776L511.309 43.88C510.893 44.264 510.386 44.5627 509.789 44.776C509.191 44.9893 508.562 45.096 507.901 45.096C507.069 45.096 506.349 44.9467 505.741 44.648C505.133 44.3493 504.663 43.9227 504.333 43.368C504.002 42.8133 503.837 42.1627 503.837 41.416C503.837 40.4667 504.039 39.6133 504.445 38.856C504.861 38.0987 505.431 37.5067 506.157 37.08C506.893 36.6533 507.714 36.44 508.621 36.44C509.773 36.44 510.69 36.7707 511.373 37.432C512.066 38.0827 512.413 38.9733 512.413 40.104C512.413 40.4453 512.375 40.824 512.301 41.24H505.341ZM508.557 37.72C507.799 37.72 507.149 37.9333 506.605 38.36C506.061 38.7867 505.693 39.3733 505.501 40.12H510.973C511.015 39.3627 510.813 38.776 510.365 38.36C509.927 37.9333 509.325 37.72 508.557 37.72ZM516.514 36.52H518.05L516.37 45H514.834L516.514 36.52ZM517.73 34.888C517.453 34.888 517.223 34.7973 517.042 34.616C516.861 34.4347 516.77 34.216 516.77 33.96C516.77 33.6613 516.871 33.4107 517.074 33.208C517.287 32.9947 517.554 32.888 517.874 32.888C518.151 32.888 518.381 32.9787 518.562 33.16C518.754 33.3307 518.85 33.5387 518.85 33.784C518.85 34.1147 518.743 34.3813 518.53 34.584C518.327 34.7867 518.061 34.888 517.73 34.888ZM526.519 36.44C527.489 36.44 528.241 36.6853 528.775 37.176C529.319 37.6667 529.591 38.36 529.591 39.256C529.591 39.5653 529.559 39.896 529.495 40.248L528.551 45H527.015L527.959 40.248C528.012 39.96 528.039 39.7253 528.039 39.544C528.039 38.9893 527.873 38.5627 527.543 38.264C527.212 37.9653 526.721 37.816 526.071 37.816C525.239 37.816 524.551 38.0453 524.007 38.504C523.473 38.952 523.116 39.624 522.935 40.52L522.039 45H520.503L522.183 36.52H523.655L523.447 37.608C524.215 36.8293 525.239 36.44 526.519 36.44ZM542.432 36.52L540.976 43.848C540.678 45.3627 540.112 46.4667 539.28 47.16C538.459 47.8533 537.334 48.2 535.904 48.2C535.104 48.2 534.374 48.0933 533.712 47.88C533.051 47.6773 532.491 47.384 532.032 47L532.88 45.816C533.222 46.1253 533.664 46.3707 534.208 46.552C534.763 46.744 535.366 46.84 536.016 46.84C536.998 46.84 537.755 46.616 538.288 46.168C538.832 45.72 539.2 45.0267 539.392 44.088L539.52 43.48C538.71 44.2587 537.686 44.648 536.448 44.648C535.702 44.648 535.04 44.5093 534.464 44.232C533.899 43.9547 533.456 43.5547 533.136 43.032C532.827 42.5093 532.672 41.896 532.672 41.192C532.672 40.3067 532.875 39.5013 533.28 38.776C533.696 38.0507 534.272 37.48 535.008 37.064C535.744 36.648 536.576 36.44 537.504 36.44C538.23 36.44 538.87 36.5787 539.424 36.856C539.99 37.1227 540.406 37.528 540.672 38.072L540.976 36.52H542.432ZM536.752 43.304C537.392 43.304 537.963 43.1653 538.464 42.888C538.976 42.6 539.371 42.2053 539.648 41.704C539.936 41.192 540.08 40.616 540.08 39.976C540.08 39.2933 539.856 38.76 539.408 38.376C538.971 37.9813 538.352 37.784 537.552 37.784C536.912 37.784 536.336 37.928 535.824 38.216C535.323 38.4933 534.928 38.888 534.64 39.4C534.363 39.9013 534.224 40.4667 534.224 41.096C534.224 41.7893 534.448 42.3333 534.896 42.728C535.344 43.112 535.963 43.304 536.752 43.304ZM553.056 45.096C552.352 45.096 551.68 45.0053 551.04 44.824C550.411 44.6427 549.92 44.408 549.568 44.12L550.256 42.904C550.587 43.1707 551.013 43.384 551.536 43.544C552.069 43.6933 552.624 43.768 553.2 43.768C553.925 43.768 554.475 43.6613 554.848 43.448C555.232 43.224 555.424 42.9147 555.424 42.52C555.424 42.2 555.269 41.9707 554.96 41.832C554.661 41.6933 554.192 41.5547 553.552 41.416C552.955 41.288 552.464 41.16 552.08 41.032C551.707 40.8933 551.387 40.68 551.12 40.392C550.853 40.0933 550.72 39.6933 550.72 39.192C550.72 38.6373 550.875 38.152 551.184 37.736C551.504 37.32 551.952 37 552.528 36.776C553.115 36.552 553.792 36.44 554.56 36.44C555.125 36.44 555.675 36.5093 556.208 36.648C556.741 36.7867 557.179 36.9733 557.52 37.208L556.912 38.424C556.581 38.2 556.197 38.0347 555.76 37.928C555.323 37.8107 554.875 37.752 554.416 37.752C553.723 37.752 553.189 37.8693 552.816 38.104C552.443 38.328 552.256 38.632 552.256 39.016C552.256 39.3573 552.411 39.6027 552.72 39.752C553.029 39.8907 553.509 40.0293 554.16 40.168C554.747 40.296 555.227 40.424 555.6 40.552C555.973 40.68 556.288 40.888 556.544 41.176C556.811 41.464 556.944 41.8533 556.944 42.344C556.944 43.208 556.587 43.8853 555.872 44.376C555.168 44.856 554.229 45.096 553.056 45.096ZM565.616 36.44C566.586 36.44 567.338 36.6853 567.872 37.176C568.416 37.6667 568.688 38.36 568.688 39.256C568.688 39.5653 568.656 39.896 568.592 40.248L567.648 45H566.112L567.056 40.248C567.109 39.96 567.136 39.7253 567.136 39.544C567.136 38.9893 566.97 38.5627 566.64 38.264C566.309 37.9653 565.818 37.816 565.168 37.816C564.336 37.816 563.648 38.0453 563.104 38.504C562.57 38.952 562.213 39.624 562.032 40.52L561.136 45H559.6L561.968 33.128H563.504L562.624 37.512C563.381 36.7973 564.378 36.44 565.616 36.44ZM575.705 45.096C574.905 45.096 574.206 44.9467 573.609 44.648C573.012 44.3387 572.548 43.9067 572.217 43.352C571.886 42.7973 571.721 42.1573 571.721 41.432C571.721 40.4827 571.934 39.6293 572.361 38.872C572.788 38.1147 573.38 37.5227 574.137 37.096C574.894 36.6587 575.748 36.44 576.697 36.44C577.497 36.44 578.196 36.5893 578.793 36.888C579.39 37.1867 579.849 37.6133 580.169 38.168C580.5 38.712 580.665 39.352 580.665 40.088C580.665 41.0373 580.452 41.896 580.025 42.664C579.598 43.4213 579.006 44.0187 578.249 44.456C577.502 44.8827 576.654 45.096 575.705 45.096ZM575.801 43.752C576.43 43.752 576.996 43.6027 577.497 43.304C578.009 42.9947 578.404 42.568 578.681 42.024C578.969 41.48 579.113 40.8613 579.113 40.168C579.113 39.4107 578.894 38.824 578.457 38.408C578.02 37.992 577.396 37.784 576.585 37.784C575.956 37.784 575.39 37.9387 574.889 38.248C574.388 38.5467 573.993 38.968 573.705 39.512C573.417 40.056 573.273 40.6747 573.273 41.368C573.273 42.1147 573.492 42.7013 573.929 43.128C574.377 43.544 575.001 43.752 575.801 43.752ZM597.451 36.52L592.699 45H591.195L589.899 38.584L586.219 45H584.747L583.131 36.52H584.523L585.771 43.24L589.611 36.52H590.923L592.203 43.24L595.995 36.52H597.451ZM604.497 36.44C605.467 36.44 606.219 36.6853 606.753 37.176C607.297 37.6667 607.569 38.36 607.569 39.256C607.569 39.5653 607.537 39.896 607.473 40.248L606.529 45H604.993L605.937 40.248C605.99 39.96 606.017 39.7253 606.017 39.544C606.017 38.9893 605.851 38.5627 605.521 38.264C605.19 37.9653 604.699 37.816 604.049 37.816C603.217 37.816 602.529 38.0453 601.985 38.504C601.451 38.952 601.094 39.624 600.913 40.52L600.017 45H598.481L600.161 36.52H601.633L601.425 37.608C602.193 36.8293 603.217 36.44 604.497 36.44ZM298.339 64.296C298.307 64.456 298.291 64.6053 298.291 64.744C298.291 65.0853 298.381 65.3467 298.563 65.528C298.755 65.7093 299.037 65.8 299.411 65.8C299.859 65.8 300.264 65.6667 300.627 65.4L300.947 66.568C300.435 66.92 299.779 67.096 298.979 67.096C298.307 67.096 297.763 66.9093 297.347 66.536C296.941 66.152 296.739 65.6293 296.739 64.968C296.739 64.744 296.76 64.5307 296.803 64.328L297.715 59.784H296.275L296.515 58.52H297.971L298.339 56.664H299.875L299.507 58.52H301.939L301.683 59.784H299.251L298.339 64.296ZM313.275 58.52L311.595 67H310.123L310.331 65.96C309.947 66.3227 309.499 66.6053 308.987 66.808C308.485 67 307.936 67.096 307.339 67.096C306.613 67.096 305.968 66.952 305.403 66.664C304.837 66.3653 304.395 65.9387 304.075 65.384C303.755 64.8293 303.595 64.1787 303.595 63.432C303.595 62.472 303.803 61.6133 304.219 60.856C304.635 60.0987 305.205 59.5067 305.931 59.08C306.667 58.6533 307.488 58.44 308.395 58.44C309.12 58.44 309.739 58.568 310.251 58.824C310.773 59.08 311.173 59.4587 311.451 59.96L311.739 58.52H313.275ZM307.675 65.752C308.304 65.752 308.869 65.6027 309.371 65.304C309.883 64.9947 310.277 64.568 310.555 64.024C310.843 63.48 310.987 62.8613 310.987 62.168C310.987 61.4107 310.768 60.824 310.331 60.408C309.893 59.992 309.269 59.784 308.459 59.784C307.829 59.784 307.264 59.9387 306.763 60.248C306.261 60.5467 305.867 60.968 305.579 61.512C305.291 62.056 305.147 62.6747 305.147 63.368C305.147 64.1147 305.365 64.7013 305.803 65.128C306.251 65.544 306.875 65.752 307.675 65.752ZM318.629 59.784C319.002 59.3147 319.461 58.9733 320.005 58.76C320.549 58.5467 321.21 58.44 321.989 58.44L321.701 59.928C321.605 59.9173 321.471 59.912 321.301 59.912C319.541 59.912 318.474 60.8613 318.101 62.76L317.253 67H315.717L317.397 58.52H318.869L318.629 59.784ZM325.05 58.52H326.586L324.906 67H323.37L325.05 58.52ZM326.266 56.888C325.989 56.888 325.759 56.7973 325.578 56.616C325.397 56.4347 325.306 56.216 325.306 55.96C325.306 55.6613 325.407 55.4107 325.61 55.208C325.823 54.9947 326.09 54.888 326.41 54.888C326.687 54.888 326.917 54.9787 327.098 55.16C327.29 55.3307 327.386 55.5387 327.386 55.784C327.386 56.1147 327.279 56.3813 327.066 56.584C326.863 56.7867 326.597 56.888 326.266 56.888ZM334.255 56.296C333.796 56.296 333.433 56.424 333.167 56.68C332.9 56.9253 332.708 57.3147 332.591 57.848L332.447 58.52H334.911L334.655 59.784H332.239L330.783 67H329.247L330.703 59.784H329.247L329.487 58.52H330.959L331.119 57.72C331.289 56.856 331.636 56.1947 332.159 55.736C332.692 55.2667 333.391 55.032 334.255 55.032C334.607 55.032 334.937 55.08 335.247 55.176C335.567 55.2613 335.828 55.3893 336.031 55.56L335.391 56.696C335.092 56.4293 334.713 56.296 334.255 56.296ZM341.095 56.296C340.637 56.296 340.274 56.424 340.007 56.68C339.741 56.9253 339.549 57.3147 339.431 57.848L339.287 58.52H341.751L341.495 59.784H339.079L337.623 67H336.087L337.543 59.784H336.087L336.327 58.52H337.799L337.959 57.72C338.13 56.856 338.477 56.1947 338.999 55.736C339.533 55.2667 340.231 55.032 341.095 55.032C341.447 55.032 341.778 55.08 342.087 55.176C342.407 55.2613 342.669 55.3893 342.871 55.56L342.231 56.696C341.933 56.4293 341.554 56.296 341.095 56.296ZM345.392 67.096C344.688 67.096 344.016 67.0053 343.376 66.824C342.747 66.6427 342.256 66.408 341.904 66.12L342.592 64.904C342.923 65.1707 343.349 65.384 343.872 65.544C344.405 65.6933 344.96 65.768 345.536 65.768C346.261 65.768 346.811 65.6613 347.184 65.448C347.568 65.224 347.76 64.9147 347.76 64.52C347.76 64.2 347.605 63.9707 347.296 63.832C346.997 63.6933 346.528 63.5547 345.888 63.416C345.291 63.288 344.8 63.16 344.416 63.032C344.043 62.8933 343.723 62.68 343.456 62.392C343.189 62.0933 343.056 61.6933 343.056 61.192C343.056 60.6373 343.211 60.152 343.52 59.736C343.84 59.32 344.288 59 344.864 58.776C345.451 58.552 346.128 58.44 346.896 58.44C347.461 58.44 348.011 58.5093 348.544 58.648C349.077 58.7867 349.515 58.9733 349.856 59.208L349.248 60.424C348.917 60.2 348.533 60.0347 348.096 59.928C347.659 59.8107 347.211 59.752 346.752 59.752C346.059 59.752 345.525 59.8693 345.152 60.104C344.779 60.328 344.592 60.632 344.592 61.016C344.592 61.3573 344.747 61.6027 345.056 61.752C345.365 61.8907 345.845 62.0293 346.496 62.168C347.083 62.296 347.563 62.424 347.936 62.552C348.309 62.68 348.624 62.888 348.88 63.176C349.147 63.464 349.28 63.8533 349.28 64.344C349.28 65.208 348.923 65.8853 348.208 66.376C347.504 66.856 346.565 67.096 345.392 67.096Z" fill="black"/>
</svg>
