<svg width="814" height="49" viewBox="0 0 814 49" fill="none" xmlns="http://www.w3.org/2000/svg">
<path d="M22.68 18.8H27.4C28.584 18.8 29.6347 19.0347 30.552 19.504C31.4693 19.9733 32.1787 20.6347 32.68 21.488C33.192 22.3307 33.448 23.3013 33.448 24.4C33.448 25.4987 33.192 26.4747 32.68 27.328C32.1787 28.1707 31.4693 28.8267 30.552 29.296C29.6347 29.7653 28.584 30 27.4 30H22.68V18.8ZM27.304 28.608C28.2107 28.608 29.0053 28.432 29.688 28.08C30.3813 27.728 30.9147 27.2373 31.288 26.608C31.6613 25.968 31.848 25.232 31.848 24.4C31.848 23.568 31.6613 22.8373 31.288 22.208C30.9147 21.568 30.3813 21.072 29.688 20.72C29.0053 20.368 28.2107 20.192 27.304 20.192H24.28V28.608H27.304ZM36.8747 21.52H38.4107V30H36.8747V21.52ZM37.6428 19.888C37.3441 19.888 37.0934 19.792 36.8907 19.6C36.6987 19.408 36.6027 19.1733 36.6027 18.896C36.6027 18.6187 36.6987 18.384 36.8907 18.192C37.0934 17.9893 37.3441 17.888 37.6428 17.888C37.9414 17.888 38.1867 17.984 38.3787 18.176C38.5814 18.3573 38.6827 18.5867 38.6827 18.864C38.6827 19.152 38.5814 19.3973 38.3787 19.6C38.1867 19.792 37.9414 19.888 37.6428 19.888ZM44.9755 30.096C44.2822 30.096 43.6155 30.0053 42.9755 29.824C42.3355 29.632 41.8342 29.392 41.4715 29.104L42.1115 27.888C42.4848 28.1547 42.9382 28.368 43.4715 28.528C44.0048 28.688 44.5435 28.768 45.0875 28.768C46.4315 28.768 47.1035 28.384 47.1035 27.616C47.1035 27.36 47.0128 27.1573 46.8315 27.008C46.6502 26.8587 46.4208 26.752 46.1435 26.688C45.8768 26.6133 45.4928 26.5333 44.9915 26.448C44.3088 26.3413 43.7488 26.2187 43.3115 26.08C42.8848 25.9413 42.5168 25.7067 42.2075 25.376C41.8982 25.0453 41.7435 24.5813 41.7435 23.984C41.7435 23.216 42.0635 22.6027 42.7035 22.144C43.3435 21.6747 44.2022 21.44 45.2795 21.44C45.8448 21.44 46.4102 21.5093 46.9755 21.648C47.5408 21.7867 48.0048 21.9733 48.3675 22.208L47.7115 23.424C47.0182 22.976 46.2022 22.752 45.2635 22.752C44.6128 22.752 44.1168 22.8587 43.7755 23.072C43.4342 23.2853 43.2635 23.568 43.2635 23.92C43.2635 24.1973 43.3595 24.416 43.5515 24.576C43.7435 24.736 43.9782 24.8533 44.2555 24.928C44.5435 25.0027 44.9435 25.088 45.4555 25.184C46.1382 25.3013 46.6875 25.4293 47.1035 25.568C47.5302 25.696 47.8928 25.92 48.1915 26.24C48.4902 26.56 48.6395 27.008 48.6395 27.584C48.6395 28.352 48.3088 28.9653 47.6475 29.424C46.9968 29.872 46.1062 30.096 44.9755 30.096ZM55.4551 30.096C54.5911 30.096 53.8178 29.9093 53.1351 29.536C52.4631 29.1627 51.9351 28.6507 51.5511 28C51.1671 27.3387 50.9751 26.592 50.9751 25.76C50.9751 24.928 51.1671 24.1867 51.5511 23.536C51.9351 22.8747 52.4631 22.3627 53.1351 22C53.8178 21.6267 54.5911 21.44 55.4551 21.44C56.2231 21.44 56.9058 21.5947 57.5031 21.904C58.1111 22.2133 58.5805 22.6613 58.9111 23.248L57.7431 24C57.4765 23.5947 57.1458 23.2907 56.7511 23.088C56.3565 22.8853 55.9191 22.784 55.4391 22.784C54.8845 22.784 54.3831 22.9067 53.9351 23.152C53.4978 23.3973 53.1511 23.7493 52.8951 24.208C52.6498 24.656 52.5271 25.1733 52.5271 25.76C52.5271 26.3573 52.6498 26.8853 52.8951 27.344C53.1511 27.792 53.4978 28.1387 53.9351 28.384C54.3831 28.6293 54.8845 28.752 55.4391 28.752C55.9191 28.752 56.3565 28.6507 56.7511 28.448C57.1458 28.2453 57.4765 27.9413 57.7431 27.536L58.9111 28.272C58.5805 28.8587 58.1111 29.312 57.5031 29.632C56.9058 29.9413 56.2231 30.096 55.4551 30.096ZM65.6067 30.096C64.7641 30.096 64.0067 29.9093 63.3347 29.536C62.6627 29.1627 62.1347 28.6507 61.7507 28C61.3774 27.3387 61.1907 26.592 61.1907 25.76C61.1907 24.928 61.3774 24.1867 61.7507 23.536C62.1347 22.8747 62.6627 22.3627 63.3347 22C64.0067 21.6267 64.7641 21.44 65.6067 21.44C66.4494 21.44 67.2014 21.6267 67.8627 22C68.5347 22.3627 69.0574 22.8747 69.4307 23.536C69.8148 24.1867 70.0068 24.928 70.0068 25.76C70.0068 26.592 69.8148 27.3387 69.4307 28C69.0574 28.6507 68.5347 29.1627 67.8627 29.536C67.2014 29.9093 66.4494 30.096 65.6067 30.096ZM65.6067 28.752C66.1507 28.752 66.6361 28.6293 67.0627 28.384C67.5001 28.128 67.8414 27.776 68.0867 27.328C68.3321 26.8693 68.4547 26.3467 68.4547 25.76C68.4547 25.1733 68.3321 24.656 68.0867 24.208C67.8414 23.7493 67.5001 23.3973 67.0627 23.152C66.6361 22.9067 66.1507 22.784 65.6067 22.784C65.0627 22.784 64.5721 22.9067 64.1347 23.152C63.7081 23.3973 63.3667 23.7493 63.1107 24.208C62.8654 24.656 62.7427 25.1733 62.7427 25.76C62.7427 26.3467 62.8654 26.8693 63.1107 27.328C63.3667 27.776 63.7081 28.128 64.1347 28.384C64.5721 28.6293 65.0627 28.752 65.6067 28.752ZM80.6006 21.52L76.8886 30H75.3206L71.6086 21.52H73.2086L76.1206 28.32L79.0966 21.52H80.6006ZM90.6638 25.808C90.6638 25.9253 90.6531 26.08 90.6318 26.272H83.7518C83.8478 27.0187 84.1731 27.6213 84.7278 28.08C85.2931 28.528 85.9918 28.752 86.8238 28.752C87.8371 28.752 88.6531 28.4107 89.2718 27.728L90.1198 28.72C89.7358 29.168 89.2558 29.5093 88.6798 29.744C88.1144 29.9787 87.4798 30.096 86.7758 30.096C85.8798 30.096 85.0851 29.9147 84.3918 29.552C83.6984 29.1787 83.1598 28.6613 82.7758 28C82.4024 27.3387 82.2158 26.592 82.2158 25.76C82.2158 24.9387 82.3971 24.1973 82.7598 23.536C83.1331 22.8747 83.6398 22.3627 84.2798 22C84.9304 21.6267 85.6611 21.44 86.4718 21.44C87.2824 21.44 88.0024 21.6267 88.6318 22C89.2718 22.3627 89.7678 22.8747 90.1198 23.536C90.4824 24.1973 90.6638 24.9547 90.6638 25.808ZM86.4718 22.736C85.7358 22.736 85.1171 22.96 84.6158 23.408C84.1251 23.856 83.8371 24.4427 83.7518 25.168H89.1918C89.1064 24.4533 88.8131 23.872 88.3118 23.424C87.8211 22.9653 87.2078 22.736 86.4718 22.736ZM95.4686 22.944C95.7353 22.4533 96.13 22.08 96.6526 21.824C97.1753 21.568 97.81 21.44 98.5566 21.44V22.928C98.4713 22.9173 98.354 22.912 98.2046 22.912C97.3726 22.912 96.7166 23.1627 96.2366 23.664C95.7673 24.1547 95.5326 24.8587 95.5326 25.776V30H93.9966V21.52H95.4686V22.944ZM109.497 21.52L105.385 30.848C105.023 31.712 104.596 32.32 104.105 32.672C103.625 33.024 103.044 33.2 102.361 33.2C101.945 33.2 101.54 33.1307 101.145 32.992C100.761 32.864 100.441 32.672 100.185 32.416L100.841 31.264C101.279 31.68 101.785 31.888 102.361 31.888C102.735 31.888 103.044 31.7867 103.289 31.584C103.545 31.392 103.775 31.056 103.977 30.576L104.249 29.984L100.505 21.52H102.105L105.065 28.304L107.993 21.52H109.497Z" fill="black"/>
<path d="M0.5 0.5H131.777L152.835 24.0067L131.771 48.5H0.5V0.5Z" stroke="#57CBBD"/>
<path d="M189.28 20.192V24.096H194.896V25.472H189.28V30H187.68V18.8H195.584V20.192H189.28ZM198.656 21.52H200.192V30H198.656V21.52ZM199.424 19.888C199.125 19.888 198.875 19.792 198.672 19.6C198.48 19.408 198.384 19.1733 198.384 18.896C198.384 18.6187 198.48 18.384 198.672 18.192C198.875 17.9893 199.125 17.888 199.424 17.888C199.723 17.888 199.968 17.984 200.16 18.176C200.363 18.3573 200.464 18.5867 200.464 18.864C200.464 19.152 200.363 19.3973 200.16 19.6C199.968 19.792 199.723 19.888 199.424 19.888ZM208.853 21.44C209.93 21.44 210.783 21.7547 211.413 22.384C212.053 23.0027 212.373 23.9147 212.373 25.12V30H210.837V25.296C210.837 24.4747 210.639 23.856 210.245 23.44C209.85 23.024 209.285 22.816 208.549 22.816C207.717 22.816 207.061 23.0613 206.581 23.552C206.101 24.032 205.861 24.7253 205.861 25.632V30H204.325V21.52H205.797V22.8C206.106 22.3627 206.522 22.0267 207.045 21.792C207.578 21.5573 208.181 21.44 208.853 21.44ZM224.462 18.128V30H222.99V28.656C222.649 29.1253 222.217 29.4827 221.694 29.728C221.172 29.9733 220.596 30.096 219.966 30.096C219.145 30.096 218.409 29.9147 217.758 29.552C217.108 29.1893 216.596 28.6827 216.222 28.032C215.86 27.3707 215.678 26.6133 215.678 25.76C215.678 24.9067 215.86 24.1547 216.222 23.504C216.596 22.8533 217.108 22.3467 217.758 21.984C218.409 21.6213 219.145 21.44 219.966 21.44C220.574 21.44 221.134 21.5573 221.646 21.792C222.158 22.016 222.585 22.352 222.926 22.8V18.128H224.462ZM220.094 28.752C220.628 28.752 221.113 28.6293 221.55 28.384C221.988 28.128 222.329 27.776 222.574 27.328C222.82 26.8693 222.942 26.3467 222.942 25.76C222.942 25.1733 222.82 24.656 222.574 24.208C222.329 23.7493 221.988 23.3973 221.55 23.152C221.113 22.9067 220.628 22.784 220.094 22.784C219.55 22.784 219.06 22.9067 218.622 23.152C218.196 23.3973 217.854 23.7493 217.598 24.208C217.353 24.656 217.23 25.1733 217.23 25.76C217.23 26.3467 217.353 26.8693 217.598 27.328C217.854 27.776 218.196 28.128 218.622 28.384C219.06 28.6293 219.55 28.752 220.094 28.752ZM228.568 21.52H230.104V30H228.568V21.52ZM229.336 19.888C229.038 19.888 228.787 19.792 228.584 19.6C228.392 19.408 228.296 19.1733 228.296 18.896C228.296 18.6187 228.392 18.384 228.584 18.192C228.787 17.9893 229.038 17.888 229.336 17.888C229.635 17.888 229.88 17.984 230.072 18.176C230.275 18.3573 230.376 18.5867 230.376 18.864C230.376 19.152 230.275 19.3973 230.072 19.6C229.88 19.792 229.635 19.888 229.336 19.888ZM238.765 21.44C239.843 21.44 240.696 21.7547 241.325 22.384C241.965 23.0027 242.285 23.9147 242.285 25.12V30H240.749V25.296C240.749 24.4747 240.552 23.856 240.157 23.44C239.763 23.024 239.197 22.816 238.461 22.816C237.629 22.816 236.973 23.0613 236.493 23.552C236.013 24.032 235.773 24.7253 235.773 25.632V30H234.237V21.52H235.709V22.8C236.019 22.3627 236.435 22.0267 236.957 21.792C237.491 21.5573 238.093 21.44 238.765 21.44ZM254.487 21.52V28.848C254.487 30.3307 254.119 31.424 253.383 32.128C252.647 32.8427 251.548 33.2 250.087 33.2C249.287 33.2 248.524 33.088 247.799 32.864C247.073 32.6507 246.487 32.3413 246.039 31.936L246.775 30.752C247.169 31.0933 247.655 31.36 248.231 31.552C248.817 31.7547 249.42 31.856 250.039 31.856C251.031 31.856 251.761 31.6213 252.231 31.152C252.711 30.6827 252.951 29.968 252.951 29.008V28.336C252.588 28.7733 252.14 29.104 251.607 29.328C251.084 29.5413 250.513 29.648 249.895 29.648C249.084 29.648 248.348 29.4773 247.687 29.136C247.036 28.784 246.524 28.2987 246.151 27.68C245.777 27.0507 245.591 26.336 245.591 25.536C245.591 24.736 245.777 24.0267 246.151 23.408C246.524 22.7787 247.036 22.2933 247.687 21.952C248.348 21.6107 249.084 21.44 249.895 21.44C250.535 21.44 251.127 21.5573 251.671 21.792C252.225 22.0267 252.679 22.3733 253.031 22.832V21.52H254.487ZM250.071 28.304C250.625 28.304 251.121 28.1867 251.559 27.952C252.007 27.7173 252.353 27.392 252.599 26.976C252.855 26.5493 252.983 26.0693 252.983 25.536C252.983 24.7147 252.711 24.0533 252.167 23.552C251.623 23.04 250.924 22.784 250.071 22.784C249.207 22.784 248.503 23.04 247.959 23.552C247.415 24.0533 247.143 24.7147 247.143 25.536C247.143 26.0693 247.265 26.5493 247.511 26.976C247.767 27.392 248.113 27.7173 248.551 27.952C248.999 28.1867 249.505 28.304 250.071 28.304ZM261.054 30.096C260.36 30.096 259.694 30.0053 259.054 29.824C258.414 29.632 257.912 29.392 257.55 29.104L258.19 27.888C258.563 28.1547 259.016 28.368 259.55 28.528C260.083 28.688 260.622 28.768 261.166 28.768C262.51 28.768 263.182 28.384 263.182 27.616C263.182 27.36 263.091 27.1573 262.91 27.008C262.728 26.8587 262.499 26.752 262.222 26.688C261.955 26.6133 261.571 26.5333 261.07 26.448C260.387 26.3413 259.827 26.2187 259.39 26.08C258.963 25.9413 258.595 25.7067 258.286 25.376C257.976 25.0453 257.822 24.5813 257.822 23.984C257.822 23.216 258.142 22.6027 258.782 22.144C259.422 21.6747 260.28 21.44 261.358 21.44C261.923 21.44 262.488 21.5093 263.054 21.648C263.619 21.7867 264.083 21.9733 264.446 22.208L263.79 23.424C263.096 22.976 262.28 22.752 261.342 22.752C260.691 22.752 260.195 22.8587 259.854 23.072C259.512 23.2853 259.342 23.568 259.342 23.92C259.342 24.1973 259.438 24.416 259.63 24.576C259.822 24.736 260.056 24.8533 260.334 24.928C260.622 25.0027 261.022 25.088 261.534 25.184C262.216 25.3013 262.766 25.4293 263.182 25.568C263.608 25.696 263.971 25.92 264.27 26.24C264.568 26.56 264.718 27.008 264.718 27.584C264.718 28.352 264.387 28.9653 263.726 29.424C263.075 29.872 262.184 30.096 261.054 30.096Z" fill="black"/>
<path d="M296.771 48.5H145.073L165.383 24.3216L165.659 23.9934L165.376 23.6707L145.102 0.5H296.777L317.835 24.0067L296.771 48.5Z" stroke="#57CBBD"/>
<path d="M352.68 18.8H354.28V30H352.68V18.8ZM366.609 18.128V30H365.137V28.656C364.796 29.1253 364.364 29.4827 363.841 29.728C363.318 29.9733 362.742 30.096 362.113 30.096C361.292 30.096 360.556 29.9147 359.905 29.552C359.254 29.1893 358.742 28.6827 358.369 28.032C358.006 27.3707 357.825 26.6133 357.825 25.76C357.825 24.9067 358.006 24.1547 358.369 23.504C358.742 22.8533 359.254 22.3467 359.905 21.984C360.556 21.6213 361.292 21.44 362.113 21.44C362.721 21.44 363.281 21.5573 363.793 21.792C364.305 22.016 364.732 22.352 365.073 22.8V18.128H366.609ZM362.241 28.752C362.774 28.752 363.26 28.6293 363.697 28.384C364.134 28.128 364.476 27.776 364.721 27.328C364.966 26.8693 365.089 26.3467 365.089 25.76C365.089 25.1733 364.966 24.656 364.721 24.208C364.476 23.7493 364.134 23.3973 363.697 23.152C363.26 22.9067 362.774 22.784 362.241 22.784C361.697 22.784 361.206 22.9067 360.769 23.152C360.342 23.3973 360.001 23.7493 359.745 24.208C359.5 24.656 359.377 25.1733 359.377 25.76C359.377 26.3467 359.5 26.8693 359.745 27.328C360.001 27.776 360.342 28.128 360.769 28.384C361.206 28.6293 361.697 28.752 362.241 28.752ZM378.379 25.808C378.379 25.9253 378.369 26.08 378.347 26.272H371.467C371.563 27.0187 371.889 27.6213 372.443 28.08C373.009 28.528 373.707 28.752 374.539 28.752C375.553 28.752 376.369 28.4107 376.987 27.728L377.835 28.72C377.451 29.168 376.971 29.5093 376.395 29.744C375.83 29.9787 375.195 30.096 374.491 30.096C373.595 30.096 372.801 29.9147 372.107 29.552C371.414 29.1787 370.875 28.6613 370.491 28C370.118 27.3387 369.931 26.592 369.931 25.76C369.931 24.9387 370.113 24.1973 370.475 23.536C370.849 22.8747 371.355 22.3627 371.995 22C372.646 21.6267 373.377 21.44 374.187 21.44C374.998 21.44 375.718 21.6267 376.347 22C376.987 22.3627 377.483 22.8747 377.835 23.536C378.198 24.1973 378.379 24.9547 378.379 25.808ZM374.187 22.736C373.451 22.736 372.833 22.96 372.331 23.408C371.841 23.856 371.553 24.4427 371.467 25.168H376.907C376.822 24.4533 376.529 23.872 376.027 23.424C375.537 22.9653 374.923 22.736 374.187 22.736ZM384.566 21.44C385.739 21.44 386.635 21.728 387.254 22.304C387.883 22.88 388.198 23.7387 388.198 24.88V30H386.742V28.88C386.486 29.2747 386.118 29.5787 385.638 29.792C385.169 29.9947 384.609 30.096 383.958 30.096C383.009 30.096 382.246 29.8667 381.67 29.408C381.105 28.9493 380.822 28.3467 380.822 27.6C380.822 26.8533 381.094 26.256 381.638 25.808C382.182 25.3493 383.046 25.12 384.23 25.12H386.662V24.816C386.662 24.1547 386.47 23.648 386.086 23.296C385.702 22.944 385.137 22.768 384.39 22.768C383.889 22.768 383.398 22.8533 382.918 23.024C382.438 23.184 382.033 23.4027 381.702 23.68L381.062 22.528C381.499 22.176 382.022 21.9093 382.63 21.728C383.238 21.536 383.883 21.44 384.566 21.44ZM384.214 28.912C384.801 28.912 385.307 28.784 385.734 28.528C386.161 28.2613 386.47 27.888 386.662 27.408V26.224H384.294C382.993 26.224 382.342 26.6613 382.342 27.536C382.342 27.9627 382.507 28.2987 382.838 28.544C383.169 28.7893 383.627 28.912 384.214 28.912ZM397.008 29.504C396.784 29.696 396.507 29.8453 396.176 29.952C395.846 30.048 395.504 30.096 395.152 30.096C394.299 30.096 393.638 29.8667 393.168 29.408C392.699 28.9493 392.464 28.2933 392.464 27.44V22.784H391.024V21.52H392.464V19.664H394V21.52H396.432V22.784H394V27.376C394 27.8347 394.112 28.1867 394.336 28.432C394.571 28.6773 394.902 28.8 395.328 28.8C395.798 28.8 396.198 28.6667 396.528 28.4L397.008 29.504ZM400.065 21.52H401.601V30H400.065V21.52ZM400.833 19.888C400.535 19.888 400.284 19.792 400.081 19.6C399.889 19.408 399.793 19.1733 399.793 18.896C399.793 18.6187 399.889 18.384 400.081 18.192C400.284 17.9893 400.535 17.888 400.833 17.888C401.132 17.888 401.377 17.984 401.569 18.176C401.772 18.3573 401.873 18.5867 401.873 18.864C401.873 19.152 401.772 19.3973 401.569 19.6C401.377 19.792 401.132 19.888 400.833 19.888ZM409.366 30.096C408.523 30.096 407.766 29.9093 407.094 29.536C406.422 29.1627 405.894 28.6507 405.51 28C405.137 27.3387 404.95 26.592 404.95 25.76C404.95 24.928 405.137 24.1867 405.51 23.536C405.894 22.8747 406.422 22.3627 407.094 22C407.766 21.6267 408.523 21.44 409.366 21.44C410.209 21.44 410.961 21.6267 411.622 22C412.294 22.3627 412.817 22.8747 413.19 23.536C413.574 24.1867 413.766 24.928 413.766 25.76C413.766 26.592 413.574 27.3387 413.19 28C412.817 28.6507 412.294 29.1627 411.622 29.536C410.961 29.9093 410.209 30.096 409.366 30.096ZM409.366 28.752C409.91 28.752 410.395 28.6293 410.822 28.384C411.259 28.128 411.601 27.776 411.846 27.328C412.091 26.8693 412.214 26.3467 412.214 25.76C412.214 25.1733 412.091 24.656 411.846 24.208C411.601 23.7493 411.259 23.3973 410.822 23.152C410.395 22.9067 409.91 22.784 409.366 22.784C408.822 22.784 408.331 22.9067 407.894 23.152C407.467 23.3973 407.126 23.7493 406.87 24.208C406.625 24.656 406.502 25.1733 406.502 25.76C406.502 26.3467 406.625 26.8693 406.87 27.328C407.126 27.776 407.467 28.128 407.894 28.384C408.331 28.6293 408.822 28.752 409.366 28.752ZM421.618 21.44C422.696 21.44 423.549 21.7547 424.178 22.384C424.818 23.0027 425.138 23.9147 425.138 25.12V30H423.602V25.296C423.602 24.4747 423.405 23.856 423.01 23.44C422.616 23.024 422.05 22.816 421.314 22.816C420.482 22.816 419.826 23.0613 419.346 23.552C418.866 24.032 418.626 24.7253 418.626 25.632V30H417.09V21.52H418.562V22.8C418.872 22.3627 419.288 22.0267 419.81 21.792C420.344 21.5573 420.946 21.44 421.618 21.44Z" fill="black"/>
<path d="M461.771 48.5H310.073L330.383 24.3216L330.659 23.9934L330.376 23.6707L310.102 0.5H461.777L482.835 24.0067L461.771 48.5Z" stroke="#57CBBD"/>
<path d="M522.048 18.8C523.499 18.8 524.64 19.1467 525.472 19.84C526.304 20.5333 526.72 21.488 526.72 22.704C526.72 23.92 526.304 24.8747 525.472 25.568C524.64 26.2613 523.499 26.608 522.048 26.608H519.28V30H517.68V18.8H522.048ZM522 25.216C523.013 25.216 523.787 25.0027 524.32 24.576C524.853 24.1387 525.12 23.5147 525.12 22.704C525.12 21.8933 524.853 21.2747 524.32 20.848C523.787 20.4107 523.013 20.192 522 20.192H519.28V25.216H522ZM530.203 18.128H531.739V30H530.203V18.128ZM538.96 21.44C540.133 21.44 541.029 21.728 541.648 22.304C542.277 22.88 542.592 23.7387 542.592 24.88V30H541.136V28.88C540.88 29.2747 540.512 29.5787 540.032 29.792C539.562 29.9947 539.002 30.096 538.352 30.096C537.402 30.096 536.64 29.8667 536.064 29.408C535.498 28.9493 535.216 28.3467 535.216 27.6C535.216 26.8533 535.488 26.256 536.032 25.808C536.576 25.3493 537.44 25.12 538.624 25.12H541.056V24.816C541.056 24.1547 540.864 23.648 540.48 23.296C540.096 22.944 539.53 22.768 538.784 22.768C538.282 22.768 537.792 22.8533 537.312 23.024C536.832 23.184 536.426 23.4027 536.096 23.68L535.456 22.528C535.893 22.176 536.416 21.9093 537.024 21.728C537.632 21.536 538.277 21.44 538.96 21.44ZM538.608 28.912C539.194 28.912 539.701 28.784 540.128 28.528C540.554 28.2613 540.864 27.888 541.056 27.408V26.224H538.688C537.386 26.224 536.736 26.6613 536.736 27.536C536.736 27.9627 536.901 28.2987 537.232 28.544C537.562 28.7893 538.021 28.912 538.608 28.912ZM551.162 21.44C552.239 21.44 553.093 21.7547 553.722 22.384C554.362 23.0027 554.682 23.9147 554.682 25.12V30H553.146V25.296C553.146 24.4747 552.949 23.856 552.554 23.44C552.159 23.024 551.594 22.816 550.858 22.816C550.026 22.816 549.37 23.0613 548.89 23.552C548.41 24.032 548.17 24.7253 548.17 25.632V30H546.634V21.52H548.106V22.8C548.415 22.3627 548.831 22.0267 549.354 21.792C549.887 21.5573 550.49 21.44 551.162 21.44ZM563.253 21.44C564.33 21.44 565.183 21.7547 565.813 22.384C566.453 23.0027 566.773 23.9147 566.773 25.12V30H565.237V25.296C565.237 24.4747 565.039 23.856 564.645 23.44C564.25 23.024 563.685 22.816 562.949 22.816C562.117 22.816 561.461 23.0613 560.981 23.552C560.501 24.032 560.261 24.7253 560.261 25.632V30H558.725V21.52H560.197V22.8C560.506 22.3627 560.922 22.0267 561.445 21.792C561.978 21.5573 562.581 21.44 563.253 21.44ZM570.815 21.52H572.351V30H570.815V21.52ZM571.583 19.888C571.285 19.888 571.034 19.792 570.831 19.6C570.639 19.408 570.543 19.1733 570.543 18.896C570.543 18.6187 570.639 18.384 570.831 18.192C571.034 17.9893 571.285 17.888 571.583 17.888C571.882 17.888 572.127 17.984 572.319 18.176C572.522 18.3573 572.623 18.5867 572.623 18.864C572.623 19.152 572.522 19.3973 572.319 19.6C572.127 19.792 571.882 19.888 571.583 19.888ZM581.012 21.44C582.089 21.44 582.943 21.7547 583.572 22.384C584.212 23.0027 584.532 23.9147 584.532 25.12V30H582.996V25.296C582.996 24.4747 582.799 23.856 582.404 23.44C582.009 23.024 581.444 22.816 580.708 22.816C579.876 22.816 579.22 23.0613 578.74 23.552C578.26 24.032 578.02 24.7253 578.02 25.632V30H576.484V21.52H577.956V22.8C578.265 22.3627 578.681 22.0267 579.204 21.792C579.737 21.5573 580.34 21.44 581.012 21.44ZM596.734 21.52V28.848C596.734 30.3307 596.366 31.424 595.63 32.128C594.894 32.8427 593.795 33.2 592.334 33.2C591.534 33.2 590.771 33.088 590.046 32.864C589.32 32.6507 588.734 32.3413 588.286 31.936L589.022 30.752C589.416 31.0933 589.902 31.36 590.478 31.552C591.064 31.7547 591.667 31.856 592.286 31.856C593.278 31.856 594.008 31.6213 594.478 31.152C594.958 30.6827 595.198 29.968 595.198 29.008V28.336C594.835 28.7733 594.387 29.104 593.854 29.328C593.331 29.5413 592.76 29.648 592.142 29.648C591.331 29.648 590.595 29.4773 589.934 29.136C589.283 28.784 588.771 28.2987 588.398 27.68C588.024 27.0507 587.838 26.336 587.838 25.536C587.838 24.736 588.024 24.0267 588.398 23.408C588.771 22.7787 589.283 22.2933 589.934 21.952C590.595 21.6107 591.331 21.44 592.142 21.44C592.782 21.44 593.374 21.5573 593.918 21.792C594.472 22.0267 594.926 22.3733 595.278 22.832V21.52H596.734ZM592.318 28.304C592.872 28.304 593.368 28.1867 593.806 27.952C594.254 27.7173 594.6 27.392 594.846 26.976C595.102 26.5493 595.23 26.0693 595.23 25.536C595.23 24.7147 594.958 24.0533 594.414 23.552C593.87 23.04 593.171 22.784 592.318 22.784C591.454 22.784 590.75 23.04 590.206 23.552C589.662 24.0533 589.39 24.7147 589.39 25.536C589.39 26.0693 589.512 26.5493 589.758 26.976C590.014 27.392 590.36 27.7173 590.798 27.952C591.246 28.1867 591.752 28.304 592.318 28.304Z" fill="black"/>
<path d="M626.771 48.5H475.073L495.383 24.3216L495.659 23.9934L495.376 23.6707L475.102 0.5H626.777L647.835 24.0067L626.771 48.5Z" stroke="#57CBBD"/>
<path d="M692.944 30.128C692.101 30.128 691.285 30 690.496 29.744C689.717 29.4773 689.104 29.136 688.656 28.72L689.248 27.472C689.675 27.856 690.219 28.1707 690.88 28.416C691.552 28.6507 692.24 28.768 692.944 28.768C693.872 28.768 694.565 28.6133 695.024 28.304C695.483 27.984 695.712 27.5627 695.712 27.04C695.712 26.656 695.584 26.3467 695.328 26.112C695.083 25.8667 694.773 25.68 694.4 25.552C694.037 25.424 693.52 25.28 692.848 25.12C692.005 24.9173 691.323 24.7147 690.8 24.512C690.288 24.3093 689.845 24 689.472 23.584C689.109 23.1573 688.928 22.5867 688.928 21.872C688.928 21.2747 689.083 20.736 689.392 20.256C689.712 19.776 690.192 19.392 690.832 19.104C691.472 18.816 692.267 18.672 693.216 18.672C693.877 18.672 694.528 18.7573 695.168 18.928C695.808 19.0987 696.357 19.344 696.816 19.664L696.288 20.944C695.819 20.6453 695.317 20.4213 694.784 20.272C694.251 20.112 693.728 20.032 693.216 20.032C692.309 20.032 691.627 20.1973 691.168 20.528C690.72 20.8587 690.496 21.2853 690.496 21.808C690.496 22.192 690.624 22.5067 690.88 22.752C691.136 22.9867 691.451 23.1733 691.824 23.312C692.208 23.44 692.725 23.5787 693.376 23.728C694.219 23.9307 694.896 24.1333 695.408 24.336C695.92 24.5387 696.357 24.848 696.72 25.264C697.093 25.68 697.28 26.24 697.28 26.944C697.28 27.5307 697.12 28.0693 696.8 28.56C696.48 29.04 695.995 29.424 695.344 29.712C694.693 29.9893 693.893 30.128 692.944 30.128ZM704.226 30.096C703.383 30.096 702.625 29.9093 701.954 29.536C701.281 29.1627 700.753 28.6507 700.369 28C699.996 27.3387 699.809 26.592 699.809 25.76C699.809 24.928 699.996 24.1867 700.369 23.536C700.753 22.8747 701.281 22.3627 701.954 22C702.625 21.6267 703.383 21.44 704.226 21.44C705.068 21.44 705.82 21.6267 706.482 22C707.154 22.3627 707.676 22.8747 708.05 23.536C708.434 24.1867 708.626 24.928 708.626 25.76C708.626 26.592 708.434 27.3387 708.05 28C707.676 28.6507 707.154 29.1627 706.482 29.536C705.82 29.9093 705.068 30.096 704.226 30.096ZM704.226 28.752C704.77 28.752 705.255 28.6293 705.681 28.384C706.119 28.128 706.46 27.776 706.706 27.328C706.951 26.8693 707.074 26.3467 707.074 25.76C707.074 25.1733 706.951 24.656 706.706 24.208C706.46 23.7493 706.119 23.3973 705.681 23.152C705.255 22.9067 704.77 22.784 704.226 22.784C703.682 22.784 703.191 22.9067 702.753 23.152C702.327 23.3973 701.985 23.7493 701.729 24.208C701.484 24.656 701.362 25.1733 701.362 25.76C701.362 26.3467 701.484 26.8693 701.729 27.328C701.985 27.776 702.327 28.128 702.753 28.384C703.191 28.6293 703.682 28.752 704.226 28.752ZM711.95 18.128H713.486V30H711.95V18.128ZM725.523 21.52V30H724.067V28.72C723.757 29.1573 723.347 29.4987 722.835 29.744C722.333 29.9787 721.784 30.096 721.187 30.096C720.056 30.096 719.165 29.7867 718.515 29.168C717.864 28.5387 717.539 27.616 717.539 26.4V21.52H719.075V26.224C719.075 27.0453 719.272 27.6693 719.667 28.096C720.061 28.512 720.627 28.72 721.363 28.72C722.173 28.72 722.813 28.4747 723.283 27.984C723.752 27.4933 723.987 26.8 723.987 25.904V21.52H725.523ZM734.415 29.504C734.191 29.696 733.913 29.8453 733.583 29.952C733.252 30.048 732.911 30.096 732.559 30.096C731.705 30.096 731.044 29.8667 730.575 29.408C730.105 28.9493 729.871 28.2933 729.871 27.44V22.784H728.431V21.52H729.871V19.664H731.407V21.52H733.839V22.784H731.407V27.376C731.407 27.8347 731.519 28.1867 731.743 28.432C731.977 28.6773 732.308 28.8 732.735 28.8C733.204 28.8 733.604 28.6667 733.935 28.4L734.415 29.504ZM737.472 21.52H739.008V30H737.472V21.52ZM738.24 19.888C737.941 19.888 737.69 19.792 737.488 19.6C737.296 19.408 737.2 19.1733 737.2 18.896C737.2 18.6187 737.296 18.384 737.488 18.192C737.69 17.9893 737.941 17.888 738.24 17.888C738.538 17.888 738.784 17.984 738.976 18.176C739.178 18.3573 739.28 18.5867 739.28 18.864C739.28 19.152 739.178 19.3973 738.976 19.6C738.784 19.792 738.538 19.888 738.24 19.888ZM746.772 30.096C745.93 30.096 745.172 29.9093 744.5 29.536C743.828 29.1627 743.3 28.6507 742.916 28C742.543 27.3387 742.356 26.592 742.356 25.76C742.356 24.928 742.543 24.1867 742.916 23.536C743.3 22.8747 743.828 22.3627 744.5 22C745.172 21.6267 745.93 21.44 746.772 21.44C747.615 21.44 748.367 21.6267 749.028 22C749.7 22.3627 750.223 22.8747 750.596 23.536C750.98 24.1867 751.172 24.928 751.172 25.76C751.172 26.592 750.98 27.3387 750.596 28C750.223 28.6507 749.7 29.1627 749.028 29.536C748.367 29.9093 747.615 30.096 746.772 30.096ZM746.772 28.752C747.316 28.752 747.802 28.6293 748.228 28.384C748.666 28.128 749.007 27.776 749.252 27.328C749.498 26.8693 749.62 26.3467 749.62 25.76C749.62 25.1733 749.498 24.656 749.252 24.208C749.007 23.7493 748.666 23.3973 748.228 23.152C747.802 22.9067 747.316 22.784 746.772 22.784C746.228 22.784 745.738 22.9067 745.3 23.152C744.874 23.3973 744.532 23.7493 744.276 24.208C744.031 24.656 743.908 25.1733 743.908 25.76C743.908 26.3467 744.031 26.8693 744.276 27.328C744.532 27.776 744.874 28.128 745.3 28.384C745.738 28.6293 746.228 28.752 746.772 28.752ZM759.025 21.44C760.102 21.44 760.955 21.7547 761.585 22.384C762.225 23.0027 762.545 23.9147 762.545 25.12V30H761.009V25.296C761.009 24.4747 760.811 23.856 760.417 23.44C760.022 23.024 759.457 22.816 758.721 22.816C757.889 22.816 757.233 23.0613 756.753 23.552C756.273 24.032 756.033 24.7253 756.033 25.632V30H754.497V21.52H755.969V22.8C756.278 22.3627 756.694 22.0267 757.217 21.792C757.75 21.5573 758.353 21.44 759.025 21.44Z" fill="black"/>
<path d="M791.771 48.5H640.073L660.383 24.3216L660.659 23.9934L660.376 23.6707L640.102 0.5H791.777L812.835 24.0067L791.771 48.5Z" stroke="#57CBBD"/>
</svg>
